<svg width="343" height="136" viewBox="0 0 343 136" fill="none" xmlns="http://www.w3.org/2000/svg">
<path d="M123.288 1.922V5.108H124.53L124.818 3.182L125.106 2.948H127.266V12.74L126.96 13.028L125.79 13.118V14H131.172V13.118L130.002 13.028L129.696 12.74V2.948H131.856L132.126 3.182L132.432 5.108H133.674V1.922H123.288ZM134.368 14H139.336V13.19L138.058 13.118L137.788 12.848V7.682C138.346 7.34 138.778 7.178 139.066 7.178C139.588 7.178 139.966 7.376 140.236 7.826H141.172L141.406 5.342C141.01 5.144 140.614 5.036 140.218 5.036C140.092 5.036 139.948 5.054 139.822 5.072C139.084 5.594 138.364 6.206 137.716 6.908L137.788 5.072H136.924L134.278 5.918V6.638H135.574V12.848L135.322 13.118L134.368 13.19V14ZM144.374 5.018L141.836 5.882V6.584H143.006V11.084C143.006 13.154 143.798 14.162 145.472 14.162C146.426 14.162 147.362 13.748 148.496 13.01V14H151.898V13.19L150.962 13.118L150.71 12.848V5.018H149.882L147.326 5.882V6.584H148.496V12.326C147.902 12.506 147.398 12.614 146.948 12.614C145.706 12.614 145.238 12.002 145.238 10.598V5.018H144.374ZM159.325 5.45C158.407 5.144 157.507 5 156.607 5C154.393 5 153.079 6.134 153.079 7.682C153.079 8.762 153.763 9.392 155.095 10.058C156.499 10.76 157.471 10.94 157.471 11.912C157.471 12.704 156.913 13.208 155.941 13.208C155.401 13.208 154.897 13.082 154.429 12.83L154.249 12.632L154.051 11.084H152.953V13.748C154.069 14.054 155.059 14.198 155.923 14.198C158.245 14.198 159.595 13.046 159.595 11.228C159.595 9.932 158.569 9.446 156.967 8.672C155.905 8.15 155.293 7.844 155.293 7.088C155.293 6.422 155.779 6.008 156.661 6.008C157.075 6.008 157.471 6.116 157.849 6.296L158.065 6.494L158.245 7.844H159.325V5.45ZM161.778 6.548V11.786C161.778 12.704 161.796 13.28 162.426 13.694C162.84 13.982 163.326 14.09 163.92 14.09C164.658 14.09 165.594 13.91 166.674 13.514V12.65C166.314 12.74 165.936 12.776 165.504 12.776C164.316 12.776 164.01 12.308 164.01 11.03V6.548H166.674V5.468H164.01V3.236H162.876L161.94 5.108L160.608 5.864V6.548H161.778ZM175.555 11.768C174.511 12.434 173.539 12.758 172.585 12.758C170.803 12.758 169.687 11.534 169.687 9.464C169.687 9.446 169.687 9.428 169.687 9.41H175.573C175.573 9.302 175.573 9.176 175.573 9.068C175.573 6.476 174.187 5 171.829 5C169.237 5 167.383 6.89 167.383 9.644C167.383 12.362 169.147 14.162 171.829 14.162C173.089 14.162 174.349 13.802 175.555 13.1V11.768ZM173.215 8.456H169.777C169.831 6.89 170.569 5.99 171.649 5.99C172.639 5.99 173.215 6.764 173.215 8.258C173.215 8.33 173.215 8.384 173.215 8.456ZM183.158 2.264V5.18C182.51 5.054 181.952 5 181.466 5C178.73 5 176.822 6.926 176.822 9.824C176.822 12.416 178.298 14.162 180.314 14.162C181.232 14.162 182.132 13.748 183.158 12.992V14H186.524V13.208L185.606 13.136L185.354 12.848V0.698H184.526L181.844 1.544V2.264H183.158ZM183.158 12.29C182.582 12.506 182.078 12.632 181.646 12.632C180.152 12.632 179.234 11.462 179.234 9.446C179.234 7.304 180.296 6.008 181.826 6.008C182.204 6.008 182.636 6.098 183.158 6.278V12.29ZM194.943 0.698L192.279 1.544V2.246H193.575V13.982L195.573 14.018C195.735 14.018 195.897 14.018 196.059 14.018C197.445 14.018 198.453 13.874 199.119 13.586C200.973 12.758 201.963 11.21 201.963 9.122C201.963 6.692 200.469 5.036 198.417 5.036C197.625 5.036 196.779 5.306 195.807 5.846V0.698H194.943ZM195.807 13.028V6.584C196.239 6.494 196.617 6.44 196.941 6.44C198.597 6.44 199.551 7.538 199.551 9.59C199.551 11.948 198.561 13.046 196.383 13.046C196.203 13.046 196.005 13.046 195.807 13.028ZM202.434 5.252V6.026L203.514 6.188L206.718 14.216C206.268 15.296 205.782 16.034 205.314 16.412L203.748 15.332C203.154 15.638 202.812 16.088 202.812 16.61C202.812 17.294 203.478 17.942 204.36 17.942C205.548 17.942 206.826 16.754 207.708 14.63L211.182 6.188L212.154 6.026V5.252H208.698V6.026L209.652 6.134L209.814 6.404L207.852 11.48L205.908 6.386L206.088 6.134L207.006 6.026V5.252H202.434ZM214.884 5.216C214.11 5.216 213.48 5.846 213.48 6.638C213.48 7.43 214.11 8.06 214.884 8.06C215.658 8.06 216.288 7.43 216.288 6.638C216.288 5.846 215.658 5.216 214.884 5.216ZM214.884 11.282C214.11 11.282 213.48 11.912 213.48 12.722C213.48 13.514 214.128 14.144 214.884 14.144C215.658 14.144 216.288 13.514 216.288 12.722C216.288 11.912 215.658 11.282 214.884 11.282Z" fill="#686058"/>
<path d="M154.952 40.8002L154.954 40.8482C155.321 40.8434 155.657 40.861 155.968 40.8979C156.4 40.9507 156.783 41.0468 157.126 41.1861C159.207 42.0285 159.878 44.4578 161.798 48.8313C161.167 48.961 160.463 49.2604 160.062 49.5375C159.42 49.9827 159.103 50.3558 159.358 51.022C159.59 51.6273 160.195 52.0405 160.754 52.3127C162.116 52.9741 163.578 53.0382 164.948 52.3704C165.579 52.0629 165.994 51.5649 166.648 51.283C167.344 50.982 167.961 51.0572 168.468 51.5793C168.845 51.9652 169.155 52.4184 169.436 52.8972C168.491 53.525 167.591 54.2216 166.7 54.9278C165.009 54.1864 163.832 55.1376 162.964 56.4332C162.522 57.0945 162.103 57.9065 161.577 58.5102C160.48 59.7721 158.964 60.8755 157.612 61.6986C157.041 62.0317 156.43 62.3696 155.771 62.7139L156.014 63.1383C158.946 61.7915 161.938 59.7417 166.893 55.98C167.696 56.7102 168.414 58.4814 167.733 63.6988L168.268 63.6956C168.781 60.6417 169.343 58.1515 170.222 54.3834C170.408 54.7501 170.595 55.1104 170.797 55.4499C171.554 56.7198 172.427 57.9913 173.631 58.8785C174.807 59.7449 176.219 60.094 177.66 60.1004C178.794 61.3799 180.077 62.5217 181.557 63.3448C183.049 64.176 184.799 64.61 186.502 64.2977C183.185 64.7108 180.437 62.6626 178.306 60.0844C179.619 59.9963 181.02 59.5943 181.778 58.4477C182.638 57.1458 182.332 55.4499 181.606 54.1624C180.014 51.3311 176.637 50.4199 173.626 51.1069C173.47 51.1421 173.313 51.1837 173.157 51.2254C172.967 50.8058 172.774 50.3862 172.589 49.9651C172.48 49.7168 172.365 49.4366 172.24 49.2156C171.458 47.832 170.494 49.72 169.921 51.9108C169.921 51.9124 169.921 51.9124 169.921 51.914C169.874 51.8419 169.83 51.7698 169.781 51.6994C169.037 50.6008 167.921 49.845 166.523 50.311C165.86 50.532 165.519 50.8955 164.947 51.2734C164.365 51.6561 163.932 51.8563 163.238 51.8803C162.551 51.9044 161.846 51.7698 161.222 51.4768C160.844 51.3006 159.994 50.8955 160.418 50.4279C160.706 50.1108 161.355 49.7777 162.138 49.5951C162.782 51.0364 163.017 51.5505 164.058 50.8907C165.126 50.2149 164.602 49.3101 164.106 49.0282C163.653 48.7704 163.027 48.708 162.397 48.7544C162.303 48.5526 162.2 48.33 162.082 48.085C160.501 44.7973 159.492 42.0381 157.122 41.1189C156.887 41.0276 156.64 40.9555 156.376 40.9011C156.089 40.8434 155.785 40.8066 155.46 40.797C155.297 40.7922 155.127 40.7922 154.952 40.8002ZM162.742 49.499C163.448 49.4494 163.831 49.6592 163.903 49.877C163.96 50.0515 163.819 50.1829 163.675 50.2853C163.289 50.5592 163.15 50.3766 162.742 49.499ZM172.219 51.5168C171.73 51.6882 171.252 51.89 170.787 52.1206C170.875 51.8147 170.968 51.5088 171.069 51.2062C171.171 50.8987 171.381 50.3302 171.553 50.0003C171.65 50.2277 171.783 50.5368 171.846 50.6841C171.966 50.9643 172.092 51.2398 172.219 51.5168ZM177.588 59.17C176.626 57.876 175.808 56.5116 175.141 55.2946C174.57 54.2504 174.051 53.1791 173.553 52.0981C174.288 51.906 175.052 51.8019 175.852 51.8179C178.427 51.8675 181.563 53.9526 181.334 56.8415C181.19 58.6703 179.382 59.2468 177.588 59.17ZM170.729 53.2944C171.344 52.9421 171.979 52.633 172.637 52.3896C172.723 52.5625 172.805 52.7387 172.895 52.9101C173.614 54.2841 174.387 55.6309 175.249 56.92C175.739 57.655 176.262 58.3885 176.824 59.0979C175.985 58.9778 175.202 58.728 174.664 58.4125C172.723 57.2771 171.774 55.2177 170.729 53.2944ZM166.007 55.4803C165.877 55.5828 165.748 55.6869 165.618 55.7894C164.699 56.5164 163.808 57.2899 162.793 58.1114C163.277 57.4901 163.733 56.7054 164.173 56.1849C164.639 55.6357 165.272 55.2769 166.007 55.4803ZM169.392 54.1351C169.091 55.5107 168.835 56.8767 168.609 58.2235C168.489 56.9344 168.14 56.0568 167.547 55.4835C167.583 55.4563 167.616 55.4307 167.653 55.4035C168.22 54.9695 168.798 54.5403 169.392 54.1351Z" fill="#686058"/>
<path d="M145.576 70.814H144.45L142.948 74.3899C142.788 74.7646 142.666 75.1218 142.581 75.4693C142.506 75.1122 142.385 74.7646 142.224 74.3899L140.722 70.814H139.587L140.461 72.8494L139.814 74.3899C139.654 74.7646 139.532 75.1218 139.448 75.4693C139.372 75.1122 139.251 74.7646 139.09 74.3899L137.588 70.814H136.453L139.448 77.7881L141.014 74.1385L142.58 77.7881L145.576 70.814Z" fill="#686058"/>
<path d="M145.4 77.5188H146.545L147.323 75.7925H149.979L150.739 77.5188H151.894L148.648 70.5479L145.4 77.5188ZM148.909 73.3519L149.593 74.8813H147.727L148.412 73.3519C148.488 73.1742 148.573 72.9308 148.656 72.5929C148.75 72.9308 148.834 73.1742 148.909 73.3519Z" fill="#686058"/>
<path d="M154.647 70.8108H153.558V77.5191H157.086V76.5422H154.647V70.8108Z" fill="#686058"/>
<path d="M160.152 70.8108H159.063V77.5191H162.591V76.5422H160.152V70.8108Z" fill="#686058"/>
<path d="M164.641 77.5191H168.383V76.5422H165.728V74.3755H168.383V73.4179H165.728V71.7396H168.383V70.8108H164.641V77.5191Z" fill="#686058"/>
<path d="M181.224 73.6338C180.473 73.2863 179.947 73.0894 179.947 72.4424C179.947 71.9347 180.314 71.5984 180.905 71.5984C181.328 71.5984 181.637 71.7954 181.899 72.2086L182.753 71.7682C182.5 71.0636 181.814 70.6616 180.82 70.6616C179.6 70.6616 178.802 71.4207 178.802 72.5C178.802 73.5137 179.459 73.9637 180.65 74.545C181.344 74.8829 181.842 75.0431 181.842 75.6997C181.842 76.3002 181.438 76.6941 180.782 76.6941C180.096 76.6941 179.646 76.3755 179.486 75.7749L178.613 76.1785C178.839 77.1537 179.589 77.6982 180.734 77.6982C182.122 77.6982 182.956 76.8719 182.956 75.6244C182.96 74.6571 182.405 74.1783 181.224 73.6338Z" fill="#686058"/>
<path d="M175.71 75.4642C175.484 75.1823 175.25 74.9101 174.978 74.6475L170.718 70.5479V77.5188H171.722V72.8571C171.91 73.1197 172.126 73.3727 172.369 73.6065L176.712 77.7814V70.8105H175.708V75.4642H175.71Z" fill="#686058"/>
<path d="M184.241 71.7396H186.023V77.5191H187.11V71.7396H188.883V70.8108H184.241V71.7396Z" fill="#686058"/>
<path d="M189.181 77.5188H190.326L191.104 75.7925H193.759L194.52 77.5188H195.675L192.429 70.5479L189.181 77.5188ZM192.69 73.3519L193.374 74.8813H191.506L192.192 73.3519C192.267 73.1742 192.352 72.9308 192.435 72.5929C192.531 72.9308 192.616 73.1742 192.69 73.3519Z" fill="#686058"/>
<path d="M202.923 70.5479L200.99 74.7596C200.887 74.995 200.737 75.2944 200.606 75.6692C200.418 75.1823 200.296 74.8813 200.24 74.7596L198.261 70.5479L196.676 77.5188H197.68L198.402 74.2167C198.468 73.9172 198.514 73.6065 198.524 73.2879C198.609 73.5889 198.721 73.8692 198.852 74.1414L200.606 77.791L202.361 74.2167C202.511 73.9076 202.614 73.6065 202.67 73.2879C202.735 73.7859 202.764 74.0854 202.791 74.2071L203.533 77.5188H204.547L202.923 70.5479Z" fill="#686058"/>
<path d="M231.906 70.5294V65.2373H232.686V70.455C232.672 70.5715 232.683 70.6897 232.718 70.8017C232.754 70.9137 232.812 71.0169 232.89 71.1045C232.969 71.192 233.064 71.2619 233.172 71.3095C233.279 71.3571 233.395 71.3812 233.513 71.3804C234.091 71.3804 234.339 70.9921 234.339 70.4633V65.2373H235.078V70.4757C235.094 70.6905 235.063 70.9062 234.987 71.1079C234.912 71.3096 234.793 71.4925 234.64 71.644C234.487 71.7956 234.303 71.9122 234.1 71.9857C233.898 72.0593 233.682 72.0882 233.467 72.0703C232.554 72.0703 231.906 71.5787 231.906 70.5294Z" fill="#686058"/>
<path d="M236.772 65.2417H237.598L239.317 70.005V65.2417H240.077V71.9797H239.329L237.508 66.8074H237.479V71.9797H236.772V65.2417Z" fill="#686058"/>
<path d="M241.816 65.2417H242.601V71.9797H241.816V65.2417Z" fill="#686058"/>
<path d="M244.361 65.2417H245.977C246.923 65.2417 247.357 65.8531 247.357 66.9231C247.357 67.7824 247.018 68.369 246.46 68.4806V68.5177C247.138 68.6706 247.414 69.3027 247.414 70.1082C247.414 71.4591 246.836 71.9797 246.022 71.9797H244.37L244.361 65.2417ZM245.741 68.2079C246.233 68.2079 246.601 67.8567 246.601 67.0057C246.601 66.2249 246.299 65.911 245.853 65.911H245.146V68.2079H245.741ZM245.865 71.3063C246.365 71.3063 246.629 70.8932 246.629 70.0669C246.629 69.2407 246.274 68.8689 245.75 68.8689H245.146V71.3063H245.865Z" fill="#686058"/>
<path d="M250.017 65.2212H251.058L252.409 71.9798H251.645L251.231 69.9845H249.744L249.368 72.0005H248.637L250.017 65.2212ZM251.108 69.3235L250.509 66.1177H250.484L249.876 69.3235H251.108Z" fill="#686058"/>
<path d="M253.884 65.2417H254.669V71.9797H253.884V65.2417Z" fill="#686058"/>
<path d="M256.433 65.2417H257.218V71.298H259.118V71.9797H256.433V65.2417Z" fill="#686058"/>
<path d="M260.006 68.9014H261.63V69.5252H260.006V68.9014Z" fill="#686058"/>
<path d="M263.092 65.2417H264.575C265.645 65.2417 266.174 65.9192 266.174 67.1131C266.174 68.0674 265.823 68.6788 265.277 68.8606L266.24 71.9797H265.447L264.55 69.0383H263.877V71.9797H263.092V65.2417ZM264.558 68.4351C265.116 68.4351 265.385 67.9889 265.385 67.1958C265.385 66.5306 265.186 65.9192 264.525 65.9192H263.877V68.4516L264.558 68.4351Z" fill="#686058"/>
<path d="M267.653 70.4633V66.7452C267.642 66.5276 267.677 66.3101 267.757 66.1073C267.836 65.9045 267.959 65.7212 268.115 65.5697C268.272 65.4182 268.459 65.302 268.664 65.229C268.87 65.156 269.088 65.1278 269.305 65.1464C270.223 65.1464 270.933 65.6298 270.933 66.6667V70.4385C270.952 70.6603 270.922 70.8835 270.846 71.0925C270.769 71.3015 270.648 71.4914 270.491 71.6488C270.334 71.8061 270.144 71.9272 269.935 72.0036C269.726 72.08 269.502 72.1098 269.281 72.091C268.306 72.0703 267.653 71.5415 267.653 70.4633ZM270.161 70.4633V66.6543C270.142 66.4361 270.042 66.233 269.879 66.0862C269.717 65.9394 269.505 65.8597 269.286 65.8634C269.067 65.8671 268.857 65.9538 268.7 66.106C268.543 66.2582 268.449 66.4645 268.438 66.6832V70.4757C268.43 70.5938 268.446 70.7124 268.485 70.824C268.525 70.9356 268.587 71.0378 268.668 71.1244C268.749 71.211 268.846 71.28 268.955 71.3272C269.064 71.3744 269.181 71.3988 269.299 71.3988C269.418 71.3988 269.535 71.3744 269.643 71.3272C269.752 71.28 269.85 71.211 269.931 71.1244C270.011 71.0378 270.073 70.9356 270.113 70.824C270.153 70.7124 270.169 70.5938 270.161 70.4757V70.4633Z" fill="#686058"/>
<path d="M272.577 65.2417H274.176C275.064 65.2417 275.746 65.692 275.746 66.6587V70.447C275.746 71.4881 275.064 71.9797 274.16 71.9797H272.577V65.2417ZM274.11 71.3063C274.225 71.3138 274.34 71.2964 274.448 71.2553C274.556 71.2141 274.654 71.1502 274.735 71.0678C274.815 70.9854 274.877 70.8866 274.916 70.778C274.956 70.6694 274.971 70.5537 274.961 70.4387V66.7207C274.969 66.6078 274.953 66.4945 274.913 66.3887C274.873 66.283 274.81 66.1873 274.729 66.1085C274.648 66.0296 274.55 65.9696 274.443 65.9326C274.336 65.8957 274.222 65.8826 274.11 65.8944H273.362V71.3063H274.11Z" fill="#686058"/>
<path d="M278.34 65.2212H279.381L280.732 71.9798H279.947L279.559 69.9845H278.084L277.671 71.9798H276.944L278.34 65.2212ZM279.427 69.3235L278.832 66.1177H278.803L278.2 69.3235H279.427Z" fill="#686058"/>
<path d="M282.166 65.2417H283.112L284.132 68.1335H284.153L285.202 65.2417H286.099V71.9797H285.4V66.6091H285.38L284.388 69.4059H283.868L282.893 66.6174V71.9797H282.19L282.166 65.2417Z" fill="#686058"/>
<path d="M287.726 70.5581V66.6789C287.726 65.7411 288.379 65.1379 289.379 65.1379C290.379 65.1379 290.891 65.708 290.891 66.5054V67.2696H290.189V66.6169C290.199 66.5057 290.186 66.3935 290.148 66.2882C290.11 66.183 290.05 66.0875 289.971 66.0085C289.892 65.9295 289.796 65.869 289.691 65.8313C289.586 65.7936 289.473 65.7798 289.362 65.7907C289.244 65.7808 289.124 65.7978 289.013 65.8403C288.902 65.8829 288.802 65.9499 288.72 66.0364C288.639 66.1229 288.577 66.2266 288.541 66.34C288.505 66.4534 288.495 66.5734 288.511 66.6913V70.463C288.495 70.5824 288.506 70.7039 288.544 70.8183C288.581 70.9328 288.644 71.0374 288.727 71.1244C288.81 71.2113 288.912 71.2783 289.025 71.3205C289.138 71.3626 289.259 71.3788 289.379 71.3678C289.488 71.3775 289.597 71.3636 289.7 71.3271C289.803 71.2906 289.897 71.2323 289.975 71.1562C290.054 71.0802 290.115 70.9881 290.155 70.8863C290.194 70.7845 290.211 70.6754 290.205 70.5663V69.9053H290.891V70.6035C290.897 70.803 290.862 71.0017 290.786 71.1863C290.71 71.371 290.596 71.5375 290.451 71.6749C290.306 71.8123 290.134 71.9175 289.946 71.9834C289.757 72.0494 289.557 72.0747 289.358 72.0577C288.387 72.0701 287.726 71.533 287.726 70.5581Z" fill="#686058"/>
<path d="M292.391 70.4632V66.7451C292.378 66.5273 292.413 66.3095 292.493 66.1064C292.572 65.9033 292.695 65.7197 292.851 65.5681C293.008 65.4164 293.196 65.3002 293.401 65.2275C293.607 65.1547 293.826 65.127 294.043 65.1463C294.96 65.1463 295.667 65.6297 295.667 66.6666V70.4384C295.686 70.6603 295.657 70.8838 295.581 71.0932C295.505 71.3026 295.384 71.4928 295.226 71.6503C295.068 71.8078 294.878 71.9289 294.669 72.005C294.46 72.0812 294.236 72.1105 294.014 72.0909C293.043 72.0702 292.391 71.5414 292.391 70.4632ZM294.894 70.4632V66.6542C294.89 66.4263 294.796 66.2093 294.632 66.0509C294.468 65.8924 294.248 65.8056 294.02 65.8094C293.907 65.8113 293.796 65.8354 293.693 65.8803C293.589 65.9253 293.495 65.9902 293.417 66.0713C293.258 66.2352 293.172 66.4553 293.175 66.6831V70.4756C293.175 70.7035 293.266 70.922 293.427 71.0832C293.588 71.2443 293.807 71.3349 294.035 71.3349C294.263 71.3349 294.481 71.2443 294.642 71.0832C294.803 70.922 294.894 70.7035 294.894 70.4756V70.4632Z" fill="#686058"/>
<path d="M297.046 68.9014H298.674V69.5252H297.046V68.9014Z" fill="#686058"/>
<path d="M299.632 65.2373H300.393L301.016 70.1617H301.045L301.781 65.2373H302.557L303.293 70.1534H303.313L303.929 65.2373H304.627L303.698 72.0249H302.97L302.169 66.8733H302.14L301.355 72.0249H300.628L299.632 65.2373Z" fill="#686058"/>
<path d="M306.061 65.2417H308.734V65.911H306.846V68.1211H308.358V68.7945H306.846V71.3063H308.746V71.9797H306.061V65.2417Z" fill="#686058"/>
<path d="M309.597 70.3972L310.332 70.3682C310.39 70.9838 310.609 71.4465 311.158 71.4465C311.708 71.4465 311.898 70.9549 311.898 70.5004C311.865 70.0176 311.656 69.5636 311.311 69.2239L310.506 68.3316C310.043 67.8985 309.756 67.3102 309.7 66.6791C309.683 66.48 309.708 66.2795 309.775 66.0912C309.842 65.9029 309.948 65.7311 310.088 65.5877C310.227 65.4442 310.395 65.3324 310.581 65.2599C310.768 65.1873 310.967 65.1556 311.167 65.1671C311.91 65.1671 312.497 65.5802 312.563 66.7452H311.865C311.79 66.0925 311.572 65.7785 311.117 65.7785C310.663 65.7785 310.427 66.0512 310.427 66.6047C310.5 67.0727 310.734 67.5006 311.088 67.8152L311.79 68.6084C312.298 69.0982 312.594 69.7666 312.617 70.4715C312.617 71.4134 312.088 72.0951 311.134 72.0951C310.179 72.0951 309.663 71.4671 309.597 70.3972Z" fill="#686058"/>
<path d="M314.678 65.9027H313.389V65.2417H316.736V65.9027H315.463V71.9797H314.678V65.9027Z" fill="#686058"/>
<path d="M318.156 65.2417H320.821V65.9027H318.937V68.1418H320.433V68.8234H318.937V71.9797H318.156V65.2417Z" fill="#686058"/>
<path d="M322.106 65.2417H322.891V71.9797H322.106V65.2417Z" fill="#686058"/>
<path d="M324.655 65.2417H327.332V65.911H325.44V68.1211H326.952V68.7945H325.44V71.3063H327.34V71.9797H324.655V65.2417Z" fill="#686058"/>
<path d="M328.898 65.2417H329.678V71.298H331.579V71.9797H328.898V65.2417Z" fill="#686058"/>
<path d="M332.443 65.2417H334.037C334.925 65.2417 335.607 65.692 335.607 66.6587V70.447C335.607 71.4881 334.925 71.9797 334.021 71.9797H332.443V65.2417ZM333.971 71.3063C334.086 71.3138 334.202 71.2964 334.309 71.2553C334.417 71.2141 334.515 71.1502 334.596 71.0678C334.676 70.9854 334.739 70.8866 334.778 70.778C334.817 70.6694 334.832 70.5537 334.822 70.4387V66.7207C334.831 66.6078 334.814 66.4945 334.774 66.3887C334.734 66.283 334.671 66.1873 334.59 66.1085C334.509 66.0296 334.411 65.9696 334.304 65.9326C334.197 65.8957 334.084 65.8826 333.971 65.8944H333.223V71.3063H333.971Z" fill="#686058"/>
<path d="M292.956 49.2208C292.642 47.2792 292.39 45.7382 292.39 45.7382L287.301 47.8038H287.276L287.371 48.1839C287.371 48.1839 288.664 47.684 289.098 48.1633C289.185 48.2533 289.248 48.3643 289.28 48.4855C289.399 48.8697 289.577 49.6629 289.899 51.4145C289.924 51.5423 289.922 51.6736 289.894 51.8007C289.866 51.9277 289.813 52.0479 289.738 52.154L289.718 52.1746L287.429 54.4881C287.338 53.9015 287.367 54.075 287.429 54.4881C286.917 51.1501 286.024 45.73 286.024 45.73L280.91 47.8162L281.001 48.1922C281.001 48.1922 282.298 47.6923 282.732 48.1922C282.819 48.2804 282.882 48.3901 282.914 48.5103C283.029 48.8945 283.211 49.6877 283.533 51.4393C283.561 51.5788 283.556 51.7228 283.52 51.8603C283.483 51.9977 283.416 52.125 283.322 52.2325L281.063 54.517C280.55 51.179 279.662 45.7837 279.662 45.7837L274.548 47.8699L274.643 48.25C274.643 48.25 275.936 47.7501 276.37 48.25C276.572 48.4772 276.713 48.3781 278.398 58.4788V58.5077C278.423 58.6978 278.534 59.9495 277.217 61.0691L277.63 61.5442C277.63 61.5442 281.711 58.8713 281.302 56.0042L281.265 55.7729L283.868 53.162C284.103 54.5005 284.401 56.2191 284.768 58.4251V58.4582C284.797 58.6647 284.892 59.9041 283.587 61.0154L283.979 61.4863C283.979 61.4863 288.057 58.83 287.644 55.9381C287.644 55.8721 287.644 55.7977 287.615 55.7275L290.238 53.1124L292.267 51.0881C292.72 50.5726 292.966 49.9072 292.956 49.2208Z" fill="#686058"/>
<g clip-path="url(#clip0)">
<path d="M183.506 130.953H180.852L180.302 133.079H179.181L181.38 124.664H182.982L185.181 133.079H184.06L183.506 130.953ZM183.239 129.888L182.187 125.798L181.123 129.888H183.239ZM192.542 124.664V133.079H191.421V126.757L189.796 130.66H189.024L187.399 126.78V133.079H186.278V124.664H187.6L189.413 129.058L191.226 124.664H192.542ZM195.195 125.728V128.158H198.432V129.223H195.195V133.079H194.074V124.664H198.689V125.728H195.195ZM203.024 125.728V128.158H206.261V129.223H203.024V133.079H201.903V124.664H206.518V125.728H203.024ZM211.509 128.883V133.079H210.458V132.542C210.085 132.987 209.544 133.198 208.869 133.198C207.629 133.198 206.871 132.413 206.871 131.316C206.871 130.136 207.712 129.457 209.149 129.457H210.411V128.896C210.411 128.253 210.013 127.881 209.291 127.881C208.612 127.881 208.203 128.23 208.17 128.804H207.072C207.131 127.634 208.054 126.889 209.304 126.889C210.622 126.885 211.509 127.667 211.509 128.883ZM210.411 130.94V130.356H209.195C208.424 130.356 207.969 130.673 207.969 131.279C207.969 131.853 208.401 132.202 209.09 132.202C209.874 132.202 210.411 131.688 210.411 130.94ZM212.379 131.092H213.467C213.467 131.817 213.935 132.202 214.693 132.202C215.478 132.202 215.85 131.83 215.85 131.408C215.85 131.009 215.557 130.825 214.964 130.637L214.028 130.333C213.128 130.053 212.498 129.585 212.498 128.626C212.498 127.574 213.398 126.885 214.684 126.885C216.061 126.885 216.905 127.574 216.915 128.777H215.85C215.804 128.171 215.396 127.878 214.68 127.878C214.024 127.878 213.639 128.217 213.639 128.603C213.639 129.012 213.932 129.199 214.479 129.361L215.402 129.641C216.289 129.911 217.004 130.307 217.004 131.326C217.004 132.496 215.999 133.195 214.69 133.195C213.395 133.195 212.379 132.506 212.379 131.092ZM219.691 128.006V131.49C219.691 131.922 219.856 132.074 220.264 132.074H220.907V133.079H220.136C219.236 133.079 218.58 132.634 218.58 131.514V128.006H217.505V127.001H218.58V124.664H219.691V127.001H221.059V128.006H219.691ZM222.077 124.736H223.211V126.022H222.077V124.736ZM222.1 127.001H223.188V133.079H222.1V127.001ZM228.901 127.001V133.264C228.901 134.691 228.037 135.532 226.633 135.532C225.278 135.532 224.448 134.774 224.411 133.567H225.486C225.545 134.164 225.954 134.559 226.643 134.559C227.345 134.559 227.787 134.174 227.787 133.416V132.562C227.414 132.924 226.91 133.076 226.419 133.076C225.202 133.076 224.302 132.259 224.302 130.914V129.045C224.302 127.69 225.202 126.882 226.419 126.882C226.92 126.882 227.424 127.034 227.797 127.409V127.001H228.901ZM227.79 130.788V129.176C227.79 128.418 227.345 127.937 226.597 127.937C225.862 127.937 225.417 128.392 225.417 129.176V130.788C225.417 131.573 225.862 132.028 226.61 132.028C227.348 132.028 227.79 131.55 227.79 130.788ZM234.511 129.048V133.079H233.401V129.176C233.401 128.392 232.956 127.937 232.22 127.937C231.472 127.937 231.027 128.415 231.027 129.176V133.079H229.916V124.664H231.027V127.4C231.354 127.073 231.845 126.885 232.418 126.885C233.612 126.885 234.511 127.693 234.511 129.048ZM236.499 130.356V131.036C236.499 131.794 236.977 132.216 237.716 132.216C238.474 132.216 238.873 131.807 238.932 131.082H240.007C239.96 132.404 239.024 133.198 237.706 133.198C236.305 133.198 235.392 132.321 235.392 130.953V129.048C235.392 127.762 236.315 126.885 237.729 126.885C239.13 126.885 240.043 127.762 240.043 129.048V130.356H236.499ZM236.499 129.048V129.457H238.929V129.048C238.929 128.313 238.451 127.868 237.712 127.868C236.977 127.868 236.499 128.309 236.499 129.048ZM242.785 128.006V131.49C242.785 131.922 242.95 132.074 243.359 132.074H244.002V133.079H243.23C242.331 133.079 241.675 132.634 241.675 131.514V128.006H240.6V127.001H241.675V124.664H242.785V127.001H244.153V128.006H242.785ZM245.815 130.356V131.036C245.815 131.794 246.293 132.216 247.031 132.216C247.789 132.216 248.188 131.807 248.248 131.082H249.322C249.276 132.404 248.34 133.198 247.021 133.198C245.62 133.198 244.707 132.321 244.707 130.953V129.048C244.707 127.762 245.63 126.885 247.044 126.885C248.445 126.885 249.359 127.762 249.359 129.048V130.356H245.815ZM245.815 129.048V129.457H248.244V129.048C248.244 128.313 247.766 127.868 247.028 127.868C246.293 127.868 245.815 128.309 245.815 129.048ZM253.192 127.001V128.098H252.609C251.92 128.098 251.475 128.543 251.475 129.476V133.076H250.364V127.001H251.462V127.584C251.788 127.212 252.269 127.001 252.783 127.001H253.192Z" fill="#686058"/>
<path fill-rule="evenodd" clip-rule="evenodd" d="M283.348 111H258.348V136H283.348V111ZM262.979 126.483H265.462L265.475 126.533L267.614 134.899H265.959L265.498 133.023H262.946L262.485 134.899H260.83L262.979 126.483ZM263.322 131.477H265.119L264.387 128.521H264.064L263.322 131.477ZM280.816 126.483V128.033H277.995V129.763H280.503V131.309H277.995V134.899H276.366V126.483H280.816ZM271.827 129.579L273.564 126.483H275.331V134.899H273.716V129.272L272.097 132.203H271.576L269.941 129.272V134.899H268.323V126.483H270.09L271.827 129.579ZM267.812 114.409C267.749 114.442 267.687 114.475 267.624 114.511C267.558 114.547 267.535 114.629 267.571 114.685C267.611 114.748 267.683 114.765 267.756 114.735C270.021 113.822 272.608 113.812 273.976 114.639C274.131 114.732 274.164 114.781 274.21 114.969C274.349 115.549 274.098 116.637 273.366 117.204C273.27 117.279 273.182 117.321 273.005 117.406C272.995 117.411 272.985 117.416 272.974 117.421C272.892 117.461 266.905 120.115 266.905 120.115C266.83 120.151 266.803 120.214 266.83 120.279C266.856 120.342 266.929 120.372 267.001 120.345C267.074 120.319 271.639 118.687 271.886 118.602C272.457 118.407 272.691 118.529 272.79 118.694L272.793 118.7L272.796 118.707C272.892 118.875 272.879 119.139 272.427 119.534C272.232 119.706 268.534 122.844 268.475 122.894C268.415 122.943 268.402 123.019 268.445 123.075C268.491 123.131 268.557 123.141 268.626 123.091C268.626 123.091 273.917 119.238 273.993 119.185C274.174 119.06 274.256 119.004 274.378 118.954C275.235 118.602 276.304 118.885 276.735 119.294C276.877 119.429 276.903 119.482 276.907 119.663C276.94 121.262 275.638 123.543 273.713 125.046C273.65 125.096 273.627 125.168 273.663 125.234C273.696 125.293 273.778 125.316 273.841 125.277C273.886 125.251 273.932 125.223 273.976 125.195C273.993 125.185 274.009 125.175 274.026 125.165C274.087 125.128 274.148 125.091 274.209 125.055C274.348 124.972 274.488 124.888 274.626 124.799C275.12 124.476 275.598 124.126 276.056 123.751C276.666 123.253 277.24 122.706 277.751 122.109C278.304 121.46 278.792 120.744 279.135 119.96C279.369 119.426 280.164 117.431 278.984 117.431H278.037C277.952 117.431 277.866 117.421 277.82 117.342C277.797 117.303 277.79 117.255 277.802 117.211C277.814 117.166 277.843 117.128 277.883 117.105L278.644 116.673C278.951 116.489 279.142 116.182 279.191 115.852L279.864 115.463C279.966 115.404 279.956 115.335 279.837 115.312L279.079 115.16C279.074 115.15 279.068 115.14 279.063 115.13C279.057 115.121 279.051 115.111 279.046 115.101C278.73 114.554 278.034 114.362 277.48 114.666L276.725 115.101C276.685 115.123 276.637 115.129 276.592 115.117C276.547 115.104 276.508 115.075 276.485 115.035C276.439 114.956 276.472 114.877 276.514 114.801L276.989 113.98C277.579 112.958 275.453 112.652 274.873 112.586C274.022 112.493 273.159 112.556 272.318 112.711C271.544 112.856 270.785 113.08 270.05 113.357C269.496 113.565 268.956 113.802 268.428 114.072C268.299 114.138 268.173 114.209 268.046 114.28C267.968 114.323 267.891 114.366 267.812 114.409L267.812 114.409Z" fill="#686058"/>
</g>
<g clip-path="url(#clip1)">
<path fill-rule="evenodd" clip-rule="evenodd" d="M4.58407 65.7529H6.90922L11.4933 52H9.43016L5.77918 63.1007L2.12821 52H-0.000610352L4.58407 65.7529ZM14.1461 64.2137C13.1639 64.2137 12.7706 63.6572 12.7706 62.97C12.7706 61.9712 13.5891 61.3326 14.8829 61.3326H16.7977V61.5615C16.7977 63.3627 15.3903 64.2137 14.1461 64.2137ZM13.8676 65.9167C15.1774 65.9167 16.2418 65.3762 16.8799 64.4762L17.0763 65.7529H18.7628V59.5805C18.7628 56.7805 17.1584 55.7817 15.0958 55.7817C13.0491 55.7817 11.886 56.8301 11.4277 58.3528L13.1958 58.8436C13.5074 57.9596 14.113 57.5173 15.0296 57.5173C15.9793 57.5173 16.7977 58.0578 16.7977 59.3676V59.7933H14.9971C12.459 59.7933 10.7731 60.9559 10.7731 63.0676C10.7731 64.9345 12.132 65.9167 13.8676 65.9167ZM23.937 65.9167C25.9665 65.9167 27.4402 64.6725 27.4402 62.8713C27.4402 61.1688 26.0813 60.4811 24.6898 59.9571C23.6916 59.5805 22.807 59.286 22.807 58.4675C22.807 57.9105 23.2327 57.5173 23.8879 57.5173C24.51 57.5173 25.0665 57.8614 25.5082 58.4675L26.8021 57.2393C26.2125 56.4209 25.2628 55.7817 23.9695 55.7817C22.2179 55.7817 20.9081 56.9773 20.9081 58.6148C20.9081 60.0553 21.972 60.8087 23.1346 61.267C23.953 61.594 25.4426 62.0363 25.4426 63.0676C25.4426 63.7554 24.8376 64.1811 24.0517 64.1811C22.856 64.1811 22.0541 63.2314 21.6935 62.3474L20.0891 63.2811C20.5474 64.4596 21.7425 65.9167 23.937 65.9167ZM32.0414 64.2137C31.0751 64.2137 30.6819 63.6572 30.6819 62.97C30.6819 61.9712 31.4844 61.3326 32.7617 61.3326H34.6445V61.5615C34.6445 63.3627 33.2525 64.2137 32.0414 64.2137ZM31.7629 65.9167C33.0562 65.9167 34.088 65.3762 34.7261 64.4762L34.923 65.7529H36.609V59.5805C36.609 56.7805 34.9886 55.7817 32.8764 55.7817C30.7641 55.7817 29.569 56.8301 29.0776 58.3853L30.8788 58.8767C31.2059 57.9596 31.8451 57.5173 32.7942 57.5173C33.793 57.5173 34.6445 58.0578 34.6445 59.3676V59.7933H32.8764C30.2893 59.7933 28.6849 61.021 28.6849 63.0516C28.6849 64.9345 30.0598 65.9167 31.7629 65.9167ZM38.9016 65.7529H40.8991V61.005L44.6974 65.7529H47.2189L42.8145 60.3504L46.8091 55.9295H44.4519L40.8991 59.9081V52H38.9016V65.7529ZM48.2336 65.7529H50.2643V61.2835C50.2643 58.7946 51.3607 57.6976 52.6876 57.6976C53.0146 57.6976 53.4244 57.7632 53.7349 57.8614L54.0791 56.0111C53.7349 55.8964 53.2115 55.7817 52.6545 55.7817C51.4103 55.7817 50.657 56.486 50.1987 57.2719L50.0023 55.9295H48.2336V65.7529ZM59.0889 65.8842C62.1349 65.8842 63.935 63.7068 63.935 60.8412C63.935 57.9761 62.1349 55.7982 59.0889 55.7982C56.0601 55.7982 54.2429 57.9761 54.2429 60.8412C54.2429 63.7068 56.0601 65.8842 59.0889 65.8842ZM59.0889 64.083C57.3048 64.083 56.4042 62.6093 56.4042 60.8412C56.4042 59.0731 57.3048 57.5994 59.0889 57.5994C60.8736 57.5994 61.7742 59.0731 61.7742 60.8412C61.7742 62.6093 60.8736 64.083 59.0889 64.083ZM65.7037 65.7529H67.7338V61.7578C67.7338 59.1222 68.9615 57.5829 70.386 57.5829C71.205 57.5829 71.762 58.0903 71.762 59.4001V65.7529H73.7916V58.8767C73.7916 56.9117 72.6946 55.7817 70.8283 55.7817C69.3878 55.7817 68.3559 56.5185 67.7007 57.3375L67.5049 55.9295H65.7037V65.7529ZM78.8511 64.2137C77.8848 64.2137 77.4922 63.6572 77.4922 62.97C77.4922 61.9712 78.2941 61.3326 79.5714 61.3326H81.4542V61.5615C81.4542 63.3627 80.0622 64.2137 78.8511 64.2137ZM78.5726 65.9167C79.8664 65.9167 80.8977 65.3762 81.5358 64.4762L81.7327 65.7529H83.4187V59.5805C83.4187 56.7805 81.7983 55.7817 79.6861 55.7817C77.5744 55.7817 76.3787 56.8301 75.8873 58.3853L77.6885 58.8767C78.0156 57.9596 78.6548 57.5173 79.6039 57.5173C80.6032 57.5173 81.4542 58.0578 81.4542 59.3676V59.7933H79.6861C77.099 59.7933 75.4946 61.021 75.4946 63.0516C75.4946 64.9345 76.8695 65.9167 78.5726 65.9167ZM85.7113 65.7529H87.7414V61.7578C87.7414 59.1222 88.9696 57.5829 90.3941 57.5829C91.2126 57.5829 91.769 58.0903 91.769 59.4001V65.7529H93.7997V58.8767C93.7997 56.9117 92.7022 55.7817 90.8359 55.7817C89.3948 55.7817 88.3635 56.5185 87.7089 57.3375L87.512 55.9295H85.7113V65.7529Z" fill="#686058"/>
</g>
<g clip-path="url(#clip2)">
<rect width="0" height="0" transform="translate(45 111)" fill="#686058"/>
</g>
<defs>
<clipPath id="clip0">
<rect width="104.348" height="25" fill="white" transform="translate(179 111)"/>
</clipPath>
<clipPath id="clip1">
<rect width="96" height="14.1745" fill="white" transform="translate(0 52)"/>
</clipPath>
<clipPath id="clip2">
<rect width="0" height="0" fill="white" transform="translate(45 111)"/>
</clipPath>
</defs>
</svg>
