<svg width="1117" height="64" viewBox="0 0 1117 64" fill="none" xmlns="http://www.w3.org/2000/svg">
<path d="M0.288 26.922V30.108H1.53L1.818 28.182L2.106 27.948H4.266V37.74L3.96 38.028L2.79 38.118V39H8.172V38.118L7.002 38.028L6.696 37.74V27.948H8.856L9.126 28.182L9.432 30.108H10.674V26.922H0.288ZM11.3677 39H16.3357V38.19L15.0577 38.118L14.7877 37.848V32.682C15.3457 32.34 15.7777 32.178 16.0657 32.178C16.5877 32.178 16.9657 32.376 17.2357 32.826H18.1717L18.4057 30.342C18.0097 30.144 17.6137 30.036 17.2177 30.036C17.0917 30.036 16.9477 30.054 16.8217 30.072C16.0837 30.594 15.3637 31.206 14.7157 31.908L14.7877 30.072H13.9237L11.2777 30.918V31.638H12.5737V37.848L12.3217 38.118L11.3677 38.19V39ZM21.3739 30.018L18.8359 30.882V31.584H20.0059V36.084C20.0059 38.154 20.7979 39.162 22.4719 39.162C23.4259 39.162 24.3619 38.748 25.4959 38.01V39H28.8979V38.19L27.9619 38.118L27.7099 37.848V30.018H26.8819L24.3259 30.882V31.584H25.4959V37.326C24.9019 37.506 24.3979 37.614 23.9479 37.614C22.7059 37.614 22.2379 37.002 22.2379 35.598V30.018H21.3739ZM36.3248 30.45C35.4068 30.144 34.5068 30 33.6068 30C31.3928 30 30.0788 31.134 30.0788 32.682C30.0788 33.762 30.7628 34.392 32.0948 35.058C33.4988 35.76 34.4708 35.94 34.4708 36.912C34.4708 37.704 33.9128 38.208 32.9408 38.208C32.4008 38.208 31.8968 38.082 31.4288 37.83L31.2488 37.632L31.0508 36.084H29.9528V38.748C31.0688 39.054 32.0588 39.198 32.9228 39.198C35.2448 39.198 36.5948 38.046 36.5948 36.228C36.5948 34.932 35.5688 34.446 33.9668 33.672C32.9048 33.15 32.2928 32.844 32.2928 32.088C32.2928 31.422 32.7788 31.008 33.6608 31.008C34.0748 31.008 34.4708 31.116 34.8488 31.296L35.0648 31.494L35.2448 32.844H36.3248V30.45ZM38.7776 31.548V36.786C38.7776 37.704 38.7956 38.28 39.4256 38.694C39.8396 38.982 40.3256 39.09 40.9196 39.09C41.6576 39.09 42.5936 38.91 43.6736 38.514V37.65C43.3136 37.74 42.9356 37.776 42.5036 37.776C41.3156 37.776 41.0096 37.308 41.0096 36.03V31.548H43.6736V30.468H41.0096V28.236H39.8756L38.9396 30.108L37.6076 30.864V31.548H38.7776ZM52.5548 36.768C51.5108 37.434 50.5388 37.758 49.5848 37.758C47.8028 37.758 46.6868 36.534 46.6868 34.464C46.6868 34.446 46.6868 34.428 46.6868 34.41H52.5728C52.5728 34.302 52.5728 34.176 52.5728 34.068C52.5728 31.476 51.1868 30 48.8288 30C46.2368 30 44.3828 31.89 44.3828 34.644C44.3828 37.362 46.1468 39.162 48.8288 39.162C50.0888 39.162 51.3488 38.802 52.5548 38.1V36.768ZM50.2148 33.456H46.7768C46.8308 31.89 47.5688 30.99 48.6488 30.99C49.6388 30.99 50.2148 31.764 50.2148 33.258C50.2148 33.33 50.2148 33.384 50.2148 33.456ZM60.1583 27.264V30.18C59.5103 30.054 58.9523 30 58.4663 30C55.7303 30 53.8223 31.926 53.8223 34.824C53.8223 37.416 55.2983 39.162 57.3143 39.162C58.2323 39.162 59.1323 38.748 60.1583 37.992V39H63.5243V38.208L62.6063 38.136L62.3543 37.848V25.698H61.5263L58.8443 26.544V27.264H60.1583ZM60.1583 37.29C59.5823 37.506 59.0783 37.632 58.6463 37.632C57.1523 37.632 56.2343 36.462 56.2343 34.446C56.2343 32.304 57.2963 31.008 58.8263 31.008C59.2043 31.008 59.6363 31.098 60.1583 31.278V37.29ZM71.9432 25.698L69.2792 26.544V27.246H70.5752V38.982L72.5732 39.018C72.7352 39.018 72.8972 39.018 73.0592 39.018C74.4452 39.018 75.4532 38.874 76.1192 38.586C77.9732 37.758 78.9632 36.21 78.9632 34.122C78.9632 31.692 77.4692 30.036 75.4172 30.036C74.6252 30.036 73.7792 30.306 72.8072 30.846V25.698H71.9432ZM72.8072 38.028V31.584C73.2392 31.494 73.6172 31.44 73.9412 31.44C75.5972 31.44 76.5512 32.538 76.5512 34.59C76.5512 36.948 75.5612 38.046 73.3832 38.046C73.2032 38.046 73.0052 38.046 72.8072 38.028ZM79.4339 30.252V31.026L80.5139 31.188L83.7179 39.216C83.2679 40.296 82.7819 41.034 82.3139 41.412L80.7479 40.332C80.1539 40.638 79.8119 41.088 79.8119 41.61C79.8119 42.294 80.4779 42.942 81.3599 42.942C82.5479 42.942 83.8259 41.754 84.7079 39.63L88.1819 31.188L89.1539 31.026V30.252H85.6979V31.026L86.6519 31.134L86.8139 31.404L84.8519 36.48L82.9079 31.386L83.0879 31.134L84.0059 31.026V30.252H79.4339ZM91.8835 30.216C91.1095 30.216 90.4795 30.846 90.4795 31.638C90.4795 32.43 91.1095 33.06 91.8835 33.06C92.6575 33.06 93.2875 32.43 93.2875 31.638C93.2875 30.846 92.6575 30.216 91.8835 30.216ZM91.8835 36.282C91.1095 36.282 90.4795 36.912 90.4795 37.722C90.4795 38.514 91.1275 39.144 91.8835 39.144C92.6575 39.144 93.2875 38.514 93.2875 37.722C93.2875 36.912 92.6575 36.282 91.8835 36.282Z" fill="#686058"/>
<g clip-path="url(#clip0)">
<path d="M529.673 51.9256V42.7065H531.033V51.7961C531.009 51.9991 531.028 52.205 531.089 52.4001C531.15 52.5952 531.252 52.7749 531.389 52.9275C531.525 53.08 531.692 53.2018 531.879 53.2846C532.066 53.3675 532.268 53.4096 532.473 53.4082C533.48 53.4082 533.912 52.7317 533.912 51.8105V42.7065H535.2V51.8321C535.228 52.2064 535.173 52.5821 535.042 52.9335C534.91 53.2848 534.703 53.6035 534.437 53.8675C534.17 54.1315 533.849 54.3345 533.496 54.4627C533.144 54.5909 532.767 54.6412 532.393 54.61C530.803 54.61 529.673 53.7536 529.673 51.9256Z" fill="#686058"/>
<path d="M538.151 42.7139H539.59L542.584 51.0118V42.7139H543.908V54.4518H542.606L539.432 45.4414H539.382V54.4518H538.151V42.7139Z" fill="#686058"/>
<path d="M546.938 42.7139H548.306V54.4518H546.938V42.7139Z" fill="#686058"/>
<path d="M551.372 42.7139H554.186C555.834 42.7139 556.589 43.779 556.589 45.643C556.589 47.1399 555.999 48.1618 555.028 48.3561V48.4209C556.208 48.6872 556.69 49.7883 556.69 51.1917C556.69 53.545 555.682 54.4518 554.265 54.4518H551.386L551.372 42.7139ZM553.775 47.8812C554.632 47.8812 555.272 47.2694 555.272 45.7869C555.272 44.4267 554.747 43.8797 553.97 43.8797H552.739V47.8812H553.775ZM553.991 53.2787C554.862 53.2787 555.323 52.5591 555.323 51.1197C555.323 49.6804 554.704 49.0326 553.79 49.0326H552.739V53.2787H553.991Z" fill="#686058"/>
<path d="M561.224 42.6782H563.038L565.391 54.4522H564.06L563.34 50.9761H560.749L560.094 54.4881H558.82L561.224 42.6782ZM563.124 49.8246L562.08 44.2399H562.037L560.979 49.8246H563.124Z" fill="#686058"/>
<path d="M567.96 42.7139H569.327V54.4518H567.96V42.7139Z" fill="#686058"/>
<path d="M572.4 42.7139H573.768V53.2644H577.078V54.4518H572.4V42.7139Z" fill="#686058"/>
<path d="M578.626 49.0903H581.454V50.177H578.626V49.0903Z" fill="#686058"/>
<path d="M584.002 42.7139H586.585C588.449 42.7139 589.371 43.8941 589.371 45.974C589.371 47.6365 588.759 48.7016 587.809 49.0182L589.486 54.4518H588.104L586.542 49.3277H585.369V54.4518H584.002V42.7139ZM586.557 48.277C587.528 48.277 587.996 47.4997 587.996 46.1179C587.996 44.9593 587.65 43.8941 586.499 43.8941H585.369V48.3058L586.557 48.277Z" fill="#686058"/>
<path d="M591.947 51.8105V45.3334C591.927 44.9544 591.989 44.5754 592.128 44.2222C592.267 43.8689 592.48 43.5496 592.752 43.2856C593.025 43.0217 593.351 42.8193 593.709 42.6921C594.067 42.5649 594.448 42.5159 594.826 42.5483C596.423 42.5483 597.661 43.3903 597.661 45.1967V51.7674C597.694 52.1537 597.642 52.5425 597.509 52.9067C597.376 53.2708 597.165 53.6016 596.891 53.8757C596.617 54.1499 596.286 54.3608 595.922 54.4939C595.558 54.627 595.169 54.6789 594.783 54.6461C593.084 54.6101 591.947 53.6889 591.947 51.8105ZM596.315 51.8105V45.1751C596.283 44.795 596.108 44.4412 595.825 44.1854C595.542 43.9296 595.173 43.7908 594.791 43.7972C594.41 43.8036 594.045 43.9547 593.771 44.2199C593.497 44.4851 593.334 44.8445 593.314 45.2255V51.8321C593.3 52.0379 593.328 52.2444 593.397 52.4389C593.466 52.6333 593.574 52.8114 593.715 52.9623C593.856 53.1131 594.026 53.2333 594.215 53.3156C594.405 53.3978 594.609 53.4402 594.815 53.4402C595.021 53.4402 595.225 53.3978 595.414 53.3156C595.604 53.2333 595.774 53.1131 595.915 52.9623C596.055 52.8114 596.164 52.6333 596.233 52.4389C596.301 52.2444 596.33 52.0379 596.315 51.8321V51.8105Z" fill="#686058"/>
<path d="M600.525 42.7139H603.311C604.858 42.7139 606.045 43.4983 606.045 45.1824V51.7818C606.045 53.5954 604.858 54.4518 603.282 54.4518H600.525V42.7139ZM603.195 53.2787C603.396 53.2919 603.597 53.2616 603.785 53.1899C603.973 53.1182 604.143 53.0068 604.283 52.8633C604.424 52.7198 604.532 52.5476 604.6 52.3584C604.669 52.1693 604.695 51.9677 604.678 51.7674V45.2903C604.693 45.0938 604.664 44.8964 604.594 44.7121C604.524 44.5278 604.415 44.3611 604.273 44.2238C604.132 44.0865 603.962 43.982 603.776 43.9175C603.59 43.8531 603.391 43.8304 603.195 43.851H601.893V53.2787H603.195Z" fill="#686058"/>
<path d="M610.565 42.6782H612.379L614.732 54.4522H613.365L612.688 50.9761H610.119L609.399 54.4522H608.133L610.565 42.6782ZM612.458 49.8246L611.422 44.2399H611.371L610.321 49.8246H612.458Z" fill="#686058"/>
<path d="M617.229 42.7139H618.877L620.655 47.7516H620.691L622.519 42.7139H624.08V54.4518H622.864V45.096H622.828L621.101 49.9682H620.194L618.496 45.1104V54.4518H617.272L617.229 42.7139Z" fill="#686058"/>
<path d="M626.916 51.9759V45.2181C626.916 43.5844 628.053 42.5337 629.795 42.5337C631.536 42.5337 632.429 43.5268 632.429 44.9158V46.2472H631.205V45.1101C631.224 44.9164 631.2 44.7209 631.135 44.5376C631.069 44.3543 630.963 44.1879 630.826 44.0502C630.688 43.9126 630.522 43.8072 630.338 43.7415C630.155 43.6759 629.96 43.6518 629.766 43.6708C629.559 43.6537 629.352 43.6832 629.158 43.7573C628.964 43.8314 628.79 43.9481 628.647 44.0988C628.505 44.2495 628.398 44.4303 628.335 44.6278C628.272 44.8252 628.255 45.0344 628.283 45.2397V51.8103C628.255 52.0183 628.275 52.2299 628.34 52.4293C628.405 52.6288 628.514 52.811 628.659 52.9624C628.805 53.1139 628.982 53.2306 629.179 53.304C629.375 53.3774 629.586 53.4056 629.795 53.3864C629.984 53.4033 630.175 53.3791 630.355 53.3155C630.534 53.252 630.698 53.1505 630.834 53.018C630.971 52.8855 631.077 52.7251 631.146 52.5477C631.215 52.3704 631.245 52.1802 631.234 51.9903V50.8388H632.429V52.055C632.44 52.4026 632.378 52.7486 632.246 53.0703C632.114 53.3921 631.915 53.6822 631.663 53.9215C631.411 54.1609 631.11 54.344 630.782 54.459C630.454 54.5739 630.105 54.618 629.759 54.5883C628.067 54.6099 626.916 53.6743 626.916 51.9759Z" fill="#686058"/>
<path d="M635.041 51.8107V45.3336C635.02 44.9543 635.081 44.5748 635.22 44.221C635.358 43.8672 635.571 43.5473 635.844 43.2831C636.117 43.0189 636.444 42.8166 636.802 42.6898C637.16 42.5631 637.542 42.5149 637.92 42.5485C639.518 42.5485 640.748 43.3905 640.748 45.1969V51.7676C640.783 52.1542 640.732 52.5436 640.599 52.9083C640.466 53.2731 640.255 53.6043 639.981 53.8787C639.707 54.1532 639.375 54.3641 639.011 54.4967C638.646 54.6293 638.256 54.6804 637.87 54.6463C636.179 54.6103 635.041 53.6891 635.041 51.8107ZM639.403 51.8107V45.1753C639.396 44.7783 639.232 44.4002 638.946 44.1242C638.661 43.8482 638.278 43.6969 637.881 43.7036C637.684 43.7069 637.49 43.7489 637.31 43.8271C637.129 43.9054 636.966 44.0185 636.829 44.1598C636.553 44.4453 636.402 44.8287 636.409 45.2257V51.8323C636.409 52.2293 636.567 52.6101 636.847 52.8908C637.128 53.1715 637.509 53.3293 637.906 53.3293C638.303 53.3293 638.684 53.1715 638.964 52.8908C639.245 52.6101 639.403 52.2293 639.403 51.8323V51.8107Z" fill="#686058"/>
<path d="M643.152 49.0903H645.987V50.177H643.152V49.0903Z" fill="#686058"/>
<path d="M647.657 42.7065H648.981L650.068 51.2851H650.119L651.4 42.7065H652.753L654.034 51.2707H654.07L655.142 42.7065H656.358L654.739 54.5309H653.472L652.076 45.5565H652.026L650.658 54.5309H649.392L647.657 42.7065Z" fill="#686058"/>
<path d="M658.855 42.7139H663.512V43.8797H660.223V47.73H662.857V48.9031H660.223V53.2787H663.533V54.4518H658.855V42.7139Z" fill="#686058"/>
<path d="M665.016 51.6957L666.297 51.6453C666.397 52.7176 666.779 53.5237 667.736 53.5237C668.693 53.5237 669.024 52.6672 669.024 51.8756C668.966 51.0344 668.603 50.2435 668.002 49.6518L666.599 48.0973C665.793 47.3428 665.294 46.318 665.196 45.2186C665.165 44.8718 665.209 44.5225 665.326 44.1944C665.442 43.8663 665.628 43.5672 665.871 43.3173C666.113 43.0674 666.406 42.8726 666.731 42.7462C667.055 42.6197 667.403 42.5646 667.75 42.5845C669.046 42.5845 670.068 43.3042 670.183 45.3337H668.967C668.837 44.1966 668.456 43.6497 667.664 43.6497C666.872 43.6497 666.462 44.1247 666.462 45.089C666.59 45.9042 666.997 46.6497 667.614 47.1977L668.837 48.5795C669.721 49.4329 670.237 50.5972 670.276 51.8252C670.276 53.4661 669.355 54.6536 667.693 54.6536C666.03 54.6536 665.131 53.5596 665.016 51.6957Z" fill="#686058"/>
<path d="M673.868 43.8654H671.623V42.7139H677.452V43.8654H675.235V54.4518H673.868V43.8654Z" fill="#686058"/>
<path d="M679.928 42.7139H684.57V43.8654H681.288V47.766H683.893V48.9535H681.288V54.4518H679.928V42.7139Z" fill="#686058"/>
<path d="M686.808 42.7139H688.175V54.4518H686.808V42.7139Z" fill="#686058"/>
<path d="M691.248 42.7139H695.912V43.8797H692.615V47.73H695.249V48.9031H692.615V53.2787H695.926V54.4518H691.248V42.7139Z" fill="#686058"/>
<path d="M698.639 42.7139H699.999V53.2644H703.31V54.4518H698.639V42.7139Z" fill="#686058"/>
<path d="M704.814 42.7139H707.592C709.139 42.7139 710.327 43.4983 710.327 45.1824V51.7818C710.327 53.5954 709.139 54.4518 707.563 54.4518H704.814V42.7139ZM707.477 53.2787C707.678 53.2919 707.879 53.2616 708.066 53.1899C708.254 53.1182 708.424 53.0068 708.565 52.8633C708.706 52.7198 708.814 52.5476 708.882 52.3584C708.95 52.1693 708.977 51.9677 708.96 51.7674V45.2903C708.974 45.0938 708.946 44.8964 708.876 44.7121C708.806 44.5278 708.696 44.3611 708.555 44.2238C708.414 44.0865 708.244 43.982 708.057 43.9175C707.871 43.8531 707.673 43.8304 707.477 43.851H706.174V53.2787H707.477Z" fill="#686058"/>
<path d="M636.027 14.8049C635.48 11.4224 635.041 8.73803 635.041 8.73803L626.175 12.3364H626.132L626.297 12.9985C626.297 12.9985 628.55 12.1277 629.306 12.9625C629.457 13.1194 629.567 13.3127 629.622 13.5239C629.831 14.1932 630.14 15.575 630.702 18.6264C630.744 18.849 630.741 19.0778 630.693 19.2991C630.644 19.5205 630.552 19.7298 630.421 19.9146L630.385 19.9506L626.398 23.9808C626.24 22.9589 626.29 23.2611 626.398 23.9808C625.506 18.1658 623.951 8.72363 623.951 8.72363L615.042 12.358L615.2 13.0129C615.2 13.0129 617.46 12.1421 618.215 13.0129C618.368 13.1666 618.477 13.3577 618.532 13.5671C618.733 14.2364 619.05 15.6182 619.611 18.6696C619.66 18.9127 619.652 19.1635 619.588 19.403C619.524 19.6424 619.407 19.8642 619.244 20.0514L615.308 24.0312C614.415 18.2162 612.868 8.81719 612.868 8.81719L603.958 12.4516L604.124 13.1137C604.124 13.1137 606.377 12.2429 607.132 13.1137C607.485 13.5095 607.73 13.3368 610.666 30.9329V30.9833C610.709 31.3143 610.903 33.495 608.608 35.4453L609.327 36.2729C609.327 36.2729 616.438 31.6166 615.725 26.622L615.66 26.219L620.194 21.6706C620.605 24.0024 621.123 26.9963 621.763 30.8393V30.8969C621.814 31.2568 621.979 33.4158 619.705 35.3517L620.389 36.1722C620.389 36.1722 627.492 31.5446 626.772 26.5069C626.772 26.3917 626.772 26.2622 626.722 26.1398L631.292 21.5843L634.825 18.0579C635.615 17.1598 636.043 16.0006 636.027 14.8049Z" fill="#686058"/>
</g>
<path d="M1033.44 1.32765L1033.44 1.40733C1034.05 1.39936 1034.61 1.42858 1035.12 1.48968C1035.84 1.57733 1036.47 1.73671 1037.04 1.9678C1040.49 3.365 1041.61 7.39455 1044.79 14.6488C1043.75 14.864 1042.58 15.3607 1041.91 15.8202C1040.85 16.5587 1040.32 17.1776 1040.74 18.2826C1041.13 19.2866 1042.13 19.972 1043.06 20.4235C1045.32 21.5206 1047.74 21.6268 1050.02 20.5191C1051.06 20.0091 1051.75 19.183 1052.84 18.7155C1053.99 18.2162 1055.01 18.341 1055.86 19.207C1056.48 19.8471 1057 20.5988 1057.46 21.3931C1055.89 22.4343 1054.4 23.5898 1052.92 24.7612C1050.12 23.5313 1048.17 25.1092 1046.73 27.2581C1045.99 28.3551 1045.3 29.7018 1044.43 30.7033C1042.61 32.7964 1040.09 34.6266 1037.85 35.9919C1036.9 36.5444 1035.89 37.1049 1034.79 37.6759L1035.2 38.3799C1040.06 36.1459 1045.02 32.7459 1053.24 26.5064C1054.58 27.7176 1055.77 30.6554 1054.64 39.3096L1055.52 39.3042C1056.37 34.2387 1057.31 30.1083 1058.76 23.8581C1059.07 24.4664 1059.38 25.064 1059.72 25.6271C1060.97 27.7336 1062.42 29.8426 1064.42 31.3142C1066.37 32.7512 1068.71 33.3303 1071.1 33.3409C1072.98 35.4633 1075.11 37.3572 1077.57 38.7225C1080.04 40.1011 1082.94 40.821 1085.77 40.303C1080.27 40.9883 1075.71 37.591 1072.17 33.3144C1074.35 33.1683 1076.68 32.5015 1077.93 30.5997C1079.36 28.4401 1078.85 25.6271 1077.65 23.4915C1075.01 18.7952 1069.41 17.2838 1064.41 18.4234C1064.15 18.4818 1063.89 18.5509 1063.63 18.6199C1063.32 17.924 1063 17.228 1062.69 16.5294C1062.51 16.1177 1062.32 15.6529 1062.11 15.2863C1060.81 12.9913 1059.22 16.123 1058.26 19.7568C1058.26 19.7595 1058.26 19.7595 1058.26 19.7621C1058.19 19.6426 1058.11 19.523 1058.03 19.4062C1056.8 17.584 1054.95 16.3302 1052.63 17.1032C1051.53 17.4698 1050.96 18.0727 1050.01 18.6996C1049.05 19.3345 1048.33 19.6665 1047.18 19.7063C1046.04 19.7462 1044.87 19.523 1043.84 19.037C1043.21 18.7448 1041.8 18.0727 1042.5 17.2971C1042.98 16.7712 1044.06 16.2187 1045.36 15.9158C1046.42 18.3065 1046.81 19.1591 1048.54 18.0648C1050.31 16.9438 1049.44 15.443 1048.62 14.9755C1047.87 14.5479 1046.83 14.4443 1045.79 14.5213C1045.63 14.1866 1045.46 13.8174 1045.26 13.411C1042.64 7.95768 1040.97 3.38094 1037.04 1.85624C1036.65 1.70483 1036.24 1.5853 1035.8 1.49499C1035.32 1.39936 1034.82 1.33827 1034.28 1.32233C1034.01 1.31436 1033.73 1.31436 1033.44 1.32765ZM1046.36 15.7565C1047.53 15.6741 1048.16 16.0221 1048.28 16.3833C1048.38 16.6729 1048.14 16.8907 1047.91 17.0607C1047.27 17.5149 1047.03 17.2121 1046.36 15.7565ZM1062.08 19.1034C1061.27 19.3876 1060.47 19.7223 1059.7 20.1048C1059.85 19.5974 1060 19.0901 1060.17 18.588C1060.34 18.078 1060.69 17.1351 1060.97 16.5879C1061.13 16.9651 1061.35 17.4777 1061.46 17.7221C1061.66 18.1869 1061.87 18.6438 1062.08 19.1034ZM1070.98 31.7976C1069.39 29.6514 1068.03 27.3882 1066.92 25.3695C1065.98 23.6376 1065.12 21.8606 1064.29 20.0676C1065.51 19.7488 1066.78 19.5762 1068.1 19.6027C1072.37 19.6851 1077.58 23.1435 1077.2 27.9354C1076.96 30.9689 1073.96 31.9251 1070.98 31.7976ZM1059.61 22.0518C1060.63 21.4674 1061.68 20.9548 1062.77 20.551C1062.91 20.8379 1063.05 21.1301 1063.2 21.4143C1064.39 23.6934 1065.67 25.9273 1067.1 28.0656C1067.92 29.2848 1068.78 30.5014 1069.72 31.6781C1068.32 31.4789 1067.03 31.0645 1066.13 30.5412C1062.91 28.6579 1061.34 25.242 1059.61 22.0518ZM1051.77 25.6776C1051.56 25.8476 1051.34 26.0203 1051.13 26.1903C1049.6 27.3962 1048.13 28.6792 1046.44 30.0418C1047.24 29.0112 1048 27.7097 1048.73 26.8464C1049.5 25.9353 1050.55 25.3403 1051.77 25.6776ZM1057.39 23.4463C1056.89 25.7281 1056.46 27.9939 1056.09 30.2278C1055.89 28.0895 1055.31 26.6339 1054.33 25.6829C1054.39 25.6378 1054.44 25.5953 1054.5 25.5501C1055.44 24.8303 1056.4 24.1184 1057.39 23.4463Z" fill="#686058"/>
<path d="M1017.88 51.1113H1016.02L1013.53 57.0428C1013.26 57.6643 1013.06 58.2567 1012.92 58.8331C1012.79 58.2407 1012.59 57.6643 1012.32 57.0428L1009.83 51.1113H1007.95L1009.4 54.4874L1008.33 57.0428C1008.06 57.6643 1007.86 58.2567 1007.72 58.8331C1007.59 58.2407 1007.39 57.6643 1007.13 57.0428L1004.63 51.1113H1002.75L1007.72 62.6794L1010.32 56.6257L1012.91 62.6794L1017.88 51.1113Z" fill="#686058"/>
<path d="M1017.59 62.2331H1019.49L1020.78 59.3697H1025.19L1026.45 62.2331H1028.36L1022.98 50.6704L1017.59 62.2331ZM1023.41 55.3215L1024.55 57.8583H1021.45L1022.59 55.3215C1022.71 55.0267 1022.85 54.6229 1022.99 54.0625C1023.15 54.6229 1023.29 55.0267 1023.41 55.3215Z" fill="#686058"/>
<path d="M1032.93 51.106H1031.12V62.233H1036.97V60.6127H1032.93V51.106Z" fill="#686058"/>
<path d="M1042.06 51.106H1040.26V62.233H1046.11V60.6127H1042.06V51.106Z" fill="#686058"/>
<path d="M1049.51 62.233H1055.71V60.6127H1051.31V57.0188H1055.71V55.4304H1051.31V52.6466H1055.71V51.106H1049.51V62.233Z" fill="#686058"/>
<path d="M1077.01 55.7889C1075.77 55.2125 1074.9 54.8858 1074.9 53.8126C1074.9 52.9706 1075.5 52.4128 1076.48 52.4128C1077.19 52.4128 1077.7 52.7395 1078.13 53.4248L1079.55 52.6944C1079.13 51.5256 1077.99 50.8589 1076.34 50.8589C1074.32 50.8589 1073 52.118 1073 53.9083C1073 55.5897 1074.09 56.3361 1076.06 57.3003C1077.21 57.8608 1078.04 58.1264 1078.04 59.2155C1078.04 60.2116 1077.37 60.865 1076.28 60.865C1075.14 60.865 1074.4 60.3364 1074.13 59.3403L1072.68 60.0097C1073.06 61.6274 1074.3 62.5305 1076.2 62.5305C1078.5 62.5305 1079.89 61.1599 1079.89 59.0906C1079.89 57.4863 1078.97 56.692 1077.01 55.7889Z" fill="#686058"/>
<path d="M1067.87 58.8251C1067.49 58.3576 1067.1 57.9061 1066.65 57.4704L1059.59 50.6704V62.2331H1061.25V54.5007C1061.56 54.9364 1061.92 55.3561 1062.33 55.7439L1069.53 62.6687V51.106H1067.86V58.8251H1067.87Z" fill="#686058"/>
<path d="M1082.02 52.6466H1084.97V62.233H1086.78V52.6466H1089.72V51.106H1082.02V52.6466Z" fill="#686058"/>
<path d="M1090.21 62.2331H1092.11L1093.4 59.3697H1097.81L1099.07 62.2331H1100.98L1095.6 50.6704L1090.21 62.2331ZM1096.03 55.3215L1097.17 57.8583H1094.07L1095.21 55.3215C1095.33 55.0267 1095.47 54.6229 1095.61 54.0625C1095.77 54.6229 1095.91 55.0267 1096.03 55.3215Z" fill="#686058"/>
<path d="M1113.01 50.6704L1109.8 57.6564C1109.63 58.0469 1109.38 58.5436 1109.16 59.1651C1108.85 58.3576 1108.65 57.8583 1108.56 57.6564L1105.27 50.6704L1102.64 62.2331H1104.31L1105.51 56.7559C1105.62 56.2592 1105.69 55.7439 1105.71 55.2153C1105.85 55.7147 1106.04 56.1795 1106.25 56.6311L1109.16 62.6847L1112.07 56.7559C1112.32 56.2433 1112.49 55.7439 1112.59 55.2153C1112.69 56.0414 1112.74 56.5381 1112.79 56.74L1114.02 62.2331H1115.7L1113.01 50.6704Z" fill="#686058"/>
<g clip-path="url(#clip1)">
<path fill-rule="evenodd" clip-rule="evenodd" d="M335.115 42.3457H338.724L345.839 21H342.637L336.97 38.2293L331.304 21H328L335.115 42.3457ZM349.956 39.9566C348.432 39.9566 347.822 39.0929 347.822 38.0264C347.822 36.4762 349.092 35.485 351.1 35.485H354.072V35.8402C354.072 38.6359 351.887 39.9566 349.956 39.9566ZM349.524 42.5999C351.557 42.5999 353.209 41.7611 354.199 40.3641L354.504 42.3457H357.122V32.7655C357.122 28.4197 354.632 26.8695 351.43 26.8695C348.254 26.8695 346.449 28.4967 345.737 30.8601L348.482 31.6219C348.965 30.2498 349.905 29.5633 351.328 29.5633C352.802 29.5633 354.072 30.4021 354.072 32.4351V33.0959H351.277C347.338 33.0959 344.721 34.9003 344.721 38.1779C344.721 41.0754 346.83 42.5999 349.524 42.5999ZM365.153 42.5999C368.303 42.5999 370.59 40.6688 370.59 37.8732C370.59 35.2307 368.481 34.1633 366.321 33.3501C364.772 32.7655 363.399 32.3084 363.399 31.0381C363.399 30.1736 364.06 29.5633 365.076 29.5633C366.042 29.5633 366.906 30.0974 367.591 31.0381L369.6 29.1319C368.684 27.8616 367.21 26.8695 365.203 26.8695C362.485 26.8695 360.452 28.7253 360.452 31.2667C360.452 33.5025 362.103 34.6718 363.907 35.3831C365.177 35.8907 367.49 36.5772 367.49 38.1779C367.49 39.2453 366.55 39.9061 365.331 39.9061C363.475 39.9061 362.23 38.4321 361.671 37.06L359.18 38.5092C359.892 40.3384 361.747 42.5999 365.153 42.5999ZM377.731 39.9566C376.232 39.9566 375.621 39.0929 375.621 38.0264C375.621 36.4762 376.867 35.485 378.849 35.485H381.772V35.8402C381.772 38.6359 379.611 39.9566 377.731 39.9566ZM377.299 42.5999C379.306 42.5999 380.908 41.7611 381.898 40.3641L382.204 42.3457H384.821V32.7655C384.821 28.4197 382.306 26.8695 379.027 26.8695C375.749 26.8695 373.894 28.4967 373.131 30.9106L375.927 31.6733C376.435 30.2498 377.427 29.5633 378.9 29.5633C380.45 29.5633 381.772 30.4021 381.772 32.4351V33.0959H379.027C375.012 33.0959 372.522 35.0013 372.522 38.1531C372.522 41.0754 374.656 42.5999 377.299 42.5999ZM388.379 42.3457H391.479V34.9765L397.375 42.3457H401.288L394.452 33.9605L400.652 27.0989H396.994L391.479 33.274V21H388.379V42.3457ZM402.863 42.3457H406.015V35.4088C406.015 31.5457 407.717 29.8432 409.776 29.8432C410.284 29.8432 410.92 29.945 411.402 30.0974L411.936 27.2256C411.402 27.0475 410.589 26.8695 409.725 26.8695C407.794 26.8695 406.624 27.9626 405.913 29.1824L405.608 27.0989H402.863V42.3457ZM419.711 42.5494C424.439 42.5494 427.233 39.17 427.233 34.7223C427.233 30.2755 424.439 26.8952 419.711 26.8952C415.01 26.8952 412.19 30.2755 412.19 34.7223C412.19 39.17 415.01 42.5494 419.711 42.5494ZM419.711 39.7538C416.942 39.7538 415.544 37.4666 415.544 34.7223C415.544 31.978 416.942 29.6908 419.711 29.6908C422.481 29.6908 423.879 31.978 423.879 34.7223C423.879 37.4666 422.481 39.7538 419.711 39.7538ZM429.978 42.3457H433.129V36.1449C433.129 32.0542 435.034 29.6651 437.245 29.6651C438.517 29.6651 439.381 30.4526 439.381 32.4856V42.3457H442.531V31.6733C442.531 28.6234 440.829 26.8695 437.932 26.8695C435.696 26.8695 434.095 28.0131 433.078 29.2842L432.774 27.0989H429.978V42.3457ZM450.384 39.9566C448.884 39.9566 448.275 39.0929 448.275 38.0264C448.275 36.4762 449.519 35.485 451.502 35.485H454.424V35.8402C454.424 38.6359 452.264 39.9566 450.384 39.9566ZM449.952 42.5999C451.96 42.5999 453.56 41.7611 454.551 40.3641L454.856 42.3457H457.473V32.7655C457.473 28.4197 454.958 26.8695 451.68 26.8695C448.402 26.8695 446.547 28.4967 445.784 30.9106L448.579 31.6733C449.087 30.2498 450.079 29.5633 451.552 29.5633C453.103 29.5633 454.424 30.4021 454.424 32.4351V33.0959H451.68C447.664 33.0959 445.174 35.0013 445.174 38.1531C445.174 41.0754 447.308 42.5999 449.952 42.5999ZM461.032 42.3457H464.182V36.1449C464.182 32.0542 466.089 29.6651 468.3 29.6651C469.57 29.6651 470.434 30.4526 470.434 32.4856V42.3457H473.585V31.6733C473.585 28.6234 471.882 26.8695 468.985 26.8695C466.749 26.8695 465.148 28.0131 464.132 29.2842L463.826 27.0989H461.032V42.3457Z" fill="#686058"/>
</g>
<path fill-rule="evenodd" clip-rule="evenodd" d="M172.75 48.4615H166.378C161.295 48.4615 160.575 48.3639 158.228 47.211C156.788 46.5461 155.636 45.3447 155.014 43.8597C154.291 42.1809 154.151 40.743 154.151 35.998V16.481H161.49V36.8588C161.49 39.067 161.631 39.6877 162.256 40.4067C162.784 41.0337 163.593 41.2696 165.082 41.2696H172.75V48.4615" fill="#686058"/>
<path fill-rule="evenodd" clip-rule="evenodd" d="M147.82 20.9879C147.004 19.8814 146.001 18.8794 144.8 18.1092C142.836 16.7681 140.335 16 138.037 16C134.249 16 130.459 17.9168 128.208 20.9879C126.623 23.1947 126.001 25.4942 126.001 28.995V35.9973H126C126 40.7423 126.142 42.1809 126.862 43.859C127.485 45.344 128.636 46.5454 130.077 47.2103C132.424 48.3639 133.143 48.4608 138.225 48.4608H138.719V41.2689H136.934C135.442 41.2689 134.631 41.033 134.106 40.406C133.478 39.6877 133.334 39.0663 133.334 36.8581V29.186C133.334 27.0796 133.528 26.1654 134.152 25.1572C135.015 23.9137 136.407 23.1413 138.036 23.1413C139.618 23.1413 141.012 23.9144 141.872 25.1572C142.494 26.1661 142.687 27.1723 142.687 29.186V32.8777V48.4615H150.076V28.995C150.077 25.4499 149.448 23.194 147.82 20.9879Z" fill="#686058"/>
<path fill-rule="evenodd" clip-rule="evenodd" d="M179.987 36.1773L179.586 34.6404H177.125L176.724 36.1773H175.247L177.479 28.2061H179.221L181.454 36.1773H179.987ZM178.544 30.5413L178.361 29.6251H178.338L178.155 30.5413L177.455 33.392L179.242 33.3807L178.544 30.5413Z" fill="#686058"/>
<path fill-rule="evenodd" clip-rule="evenodd" d="M185.3 29.5574V36.1771H183.892V29.5574L181.968 29.5441V28.2852H187.214V29.5574H185.3Z" fill="#686058"/>
<path fill-rule="evenodd" clip-rule="evenodd" d="M192.265 36.1771L191.016 33.0723H190.284V36.1771H188.864L188.875 28.2852H191.509C192.185 28.2852 192.712 28.4684 193.056 28.7773C193.537 29.2127 193.697 29.8544 193.697 30.6099C193.697 31.3654 193.537 32.1223 193.078 32.5688C192.906 32.7514 192.678 32.8539 192.391 32.9445L193.765 36.1764H192.265V36.1771ZM191.464 29.5441H190.271L190.283 31.8126H191.473C192.196 31.8126 192.31 31.3886 192.31 30.6443C192.311 29.9225 192.15 29.5441 191.464 29.5441Z" fill="#686058"/>
<path d="M197.063 28.2852H195.644V36.1771H197.063V28.2852Z" fill="#686058"/>
<path fill-rule="evenodd" clip-rule="evenodd" d="M202.08 36.255C201.003 36.255 199.332 35.8309 199.332 33.898V28.2852H200.74V33.898C200.74 34.6535 201.302 34.9729 202.092 34.9729C202.87 34.9729 203.432 34.6535 203.432 33.898L203.42 28.2852H204.829V33.898C204.829 35.8316 203.168 36.255 202.08 36.255Z" fill="#686058"/>
<path fill-rule="evenodd" clip-rule="evenodd" d="M213.764 36.1771L213.799 29.7624H213.774L213.557 30.7138L212.011 36.1771H210.281L208.725 30.7475L208.507 29.7624H208.484L208.507 36.1771H207.11V28.2852H209.447L210.979 33.9183L211.175 34.836H211.196L211.394 33.9183L212.871 28.2852H215.183V36.1771H213.764Z" fill="#686058"/>
<path fill-rule="evenodd" clip-rule="evenodd" d="M220.543 36.1771V28.2852H221.963V34.9153H225.022V36.1771H220.543Z" fill="#686058"/>
<path fill-rule="evenodd" clip-rule="evenodd" d="M229.666 34.1026C229.666 35.7413 229.277 36.2792 227.653 36.2792C227.262 36.2792 226.783 36.2433 226.22 36.164L226.301 34.8819C226.873 34.9627 227.252 35.0069 227.616 35.0069C228.236 35.0069 228.245 34.8932 228.245 34.092L228.259 28.2861H229.679L229.666 34.1026Z" fill="#686058"/>
<path fill-rule="evenodd" clip-rule="evenodd" d="M234.174 36.255C233.095 36.255 231.423 35.8309 231.423 33.898V28.2852H232.833V33.898C232.833 34.6535 233.393 34.9729 234.185 34.9729C234.963 34.9729 235.524 34.6535 235.524 33.898L235.514 28.2852H236.922V33.898C236.922 35.8316 235.262 36.255 234.174 36.255Z" fill="#686058"/>
<path fill-rule="evenodd" clip-rule="evenodd" d="M243.187 36.1771L240.942 31.0228L240.578 30.0489L240.564 30.0377L240.599 36.1771H239.2V28.2852H241.228L243.475 33.5413L243.796 34.5615L243.817 34.5713L243.783 28.2852H245.169V36.1771H243.187Z" fill="#686058"/>
<path fill-rule="evenodd" clip-rule="evenodd" d="M252.946 35.9231C252.246 36.107 251.331 36.2784 250.586 36.2784C249.511 36.2784 248.696 36.0368 248.147 35.4997C247.482 34.825 247.208 33.7128 247.208 32.1674C247.208 29.3624 248.192 28.1821 250.586 28.1821C251.319 28.1821 251.789 28.2397 252.58 28.3429L252.477 29.6601C251.79 29.5337 251.205 29.4656 250.574 29.4656C249.316 29.4656 248.675 29.8778 248.675 32.1786C248.675 33.4958 248.858 34.252 249.281 34.6305C249.59 34.9296 250.037 34.9963 250.574 34.9963C250.885 34.9963 251.239 34.9619 251.538 34.8811V32.2482H252.946V35.9231" fill="#686058"/>
<path fill-rule="evenodd" clip-rule="evenodd" d="M259.406 35.7284C259.062 36.0605 258.557 36.1862 257.824 36.1862H255.064L255.051 28.2852H257.914C258.579 28.2852 259.061 28.4459 259.359 28.7556C259.748 29.1446 259.875 29.7519 259.875 30.4498C259.875 31.0691 259.598 31.7214 259.026 32.0535V32.0759C259.634 32.2585 260.011 33.2204 260.011 33.9183C260.012 34.6535 259.828 35.3156 259.406 35.7284ZM257.709 29.4998H256.472V31.5149H257.596C258.306 31.5276 258.443 31.1828 258.443 30.4849C258.443 29.8207 258.201 29.5111 257.709 29.4998ZM257.744 32.7619H256.472V34.9498H257.744C258.33 34.9498 258.557 34.6535 258.557 33.9183C258.557 33.2316 258.455 32.7619 257.744 32.7619Z" fill="#686058"/>
<path fill-rule="evenodd" clip-rule="evenodd" d="M261.936 36.1771V28.2852H266.518V29.5441H263.358V31.4911H265.522V32.7514H263.358V34.9153H266.518V36.1771H261.936Z" fill="#686058"/>
<path fill-rule="evenodd" clip-rule="evenodd" d="M271.638 36.1771L270.39 33.0723H269.657V36.1771H268.235L268.25 28.2852H270.881C271.558 28.2852 272.086 28.4684 272.428 28.7773C272.91 29.2127 273.069 29.8544 273.069 30.6099C273.069 31.3654 272.909 32.1223 272.451 32.5688C272.279 32.7514 272.05 32.8539 271.764 32.9445L273.137 36.1764H271.638V36.1771ZM270.836 29.5441H269.644L269.657 31.8126H270.848C271.57 31.8126 271.683 31.3886 271.683 30.6443C271.683 29.9225 271.522 29.5441 270.836 29.5441Z" fill="#686058"/>
<path fill-rule="evenodd" clip-rule="evenodd" d="M280.468 35.9231C279.769 36.107 278.853 36.2784 278.108 36.2784C277.032 36.2784 276.219 36.0368 275.67 35.4997C275.004 34.825 274.73 33.7128 274.73 32.1674C274.73 29.3624 275.715 28.1821 278.108 28.1821C278.842 28.1821 279.311 28.2397 280.102 28.3429L279.999 29.6601C279.312 29.5337 278.727 29.4656 278.098 29.4656C276.837 29.4656 276.196 29.8778 276.196 32.1786C276.196 33.4958 276.381 34.252 276.805 34.6305C277.113 34.9296 277.559 34.9963 278.098 34.9963C278.408 34.9963 278.763 34.9619 279.06 34.8811V32.2482H280.468V35.9231Z" fill="#686058"/>
<g clip-path="url(#clip2)">
<path d="M779.428 44.8892H775.054L774.146 48.3939H772.299L775.923 34.522H778.564L782.188 48.3939H780.34L779.428 44.8892ZM778.987 43.1342L777.254 36.3911L775.499 43.1342H778.987ZM794.321 34.522V48.3939H792.474V37.9723L789.795 44.4057H788.523L785.845 38.0103V48.3939H783.997V34.522H786.176L789.165 41.7649L792.153 34.522H794.321ZM798.695 36.277V40.2816H804.031V42.0366H798.695V48.3939H796.848V34.522H804.455V36.277H798.695ZM811.6 36.277V40.2816H816.936V42.0366H811.6V48.3939H809.752V34.522H817.359V36.277H811.6ZM825.586 41.477V48.3939H823.853V47.5082C823.239 48.2418 822.347 48.5895 821.234 48.5895C819.191 48.5895 817.941 47.2963 817.941 45.4869C817.941 43.5417 819.326 42.4224 821.695 42.4224H823.776V41.4987C823.776 40.4391 823.119 39.8251 821.929 39.8251C820.81 39.8251 820.136 40.4011 820.082 41.3465H818.272C818.37 39.4176 819.891 38.1896 821.951 38.1896C824.124 38.1842 825.586 39.472 825.586 41.477ZM823.776 44.8675V43.9058H821.771C820.5 43.9058 819.75 44.4274 819.75 45.4272C819.75 46.3726 820.462 46.9486 821.598 46.9486C822.891 46.9486 823.776 46.1009 823.776 44.8675ZM827.02 45.1175H828.813C828.813 46.3128 829.585 46.9486 830.835 46.9486C832.128 46.9486 832.742 46.3346 832.742 45.6391C832.742 44.9816 832.258 44.6773 831.28 44.3676L829.737 43.8677C828.254 43.4059 827.216 42.6343 827.216 41.0531C827.216 39.3198 828.699 38.1842 830.818 38.1842C833.09 38.1842 834.481 39.3198 834.497 41.3031H832.742C832.666 40.3033 831.992 39.8197 830.813 39.8197C829.732 39.8197 829.096 40.3794 829.096 41.0151C829.096 41.6889 829.58 41.9986 830.481 42.2648L832.003 42.7267C833.465 43.1722 834.644 43.8243 834.644 45.5032C834.644 47.4322 832.986 48.5841 830.829 48.5841C828.694 48.5841 827.02 47.4485 827.02 45.1175ZM839.072 40.0316V45.7749C839.072 46.4867 839.344 46.7367 840.017 46.7367H841.077V48.3939H839.806C838.322 48.3939 837.241 47.6604 837.241 45.813V40.0316H835.47V38.3744H837.241V34.522H839.072V38.3744H841.327V40.0316H839.072ZM843.006 34.6415H844.875V36.7606H843.006V34.6415ZM843.044 38.3744H844.837V48.3939H843.044V38.3744ZM854.253 38.3744V48.6982C854.253 51.0509 852.83 52.4365 850.515 52.4365C848.282 52.4365 846.913 51.1868 846.853 49.1981H848.624C848.722 50.1816 849.396 50.8336 850.531 50.8336C851.689 50.8336 852.417 50.1979 852.417 48.9481V47.5408C851.803 48.1385 850.972 48.3885 850.162 48.3885C848.157 48.3885 846.674 47.0409 846.674 44.824V41.7432C846.674 39.51 848.157 38.1788 850.162 38.1788C850.988 38.1788 851.819 38.4287 852.433 39.0481V38.3744H854.253ZM852.422 44.6176V41.9605C852.422 40.7108 851.689 39.9175 850.455 39.9175C849.244 39.9175 848.51 40.6674 848.51 41.9605V44.6176C848.51 45.9108 849.244 46.6606 850.477 46.6606C851.694 46.6606 852.422 45.8727 852.422 44.6176ZM863.501 41.7486V48.3939H861.67V41.9605C861.67 40.6674 860.937 39.9175 859.725 39.9175C858.492 39.9175 857.758 40.7054 857.758 41.9605V48.3939H855.927V34.522H857.758V39.0318C858.296 38.4939 859.106 38.1842 860.051 38.1842C862.018 38.1842 863.501 39.5154 863.501 41.7486ZM866.778 43.9058V45.0251C866.778 46.2748 867.566 46.9703 868.783 46.9703C870.033 46.9703 870.69 46.2965 870.788 45.1012H872.559C872.483 47.28 870.94 48.5895 868.766 48.5895C866.457 48.5895 864.952 47.1442 864.952 44.8892V41.7486C864.952 39.6295 866.474 38.1842 868.805 38.1842C871.114 38.1842 872.619 39.6295 872.619 41.7486V43.9058H866.778ZM866.778 41.7486V42.4224H870.782V41.7486C870.782 40.5369 869.994 39.8034 868.777 39.8034C867.566 39.8034 866.778 40.5315 866.778 41.7486ZM877.14 40.0316V45.7749C877.14 46.4867 877.411 46.7367 878.085 46.7367H879.145V48.3939H877.873C876.39 48.3939 875.309 47.6604 875.309 45.813V40.0316H873.537V38.3744H875.309V34.522H877.14V38.3744H879.395V40.0316H877.14ZM882.133 43.9058V45.0251C882.133 46.2748 882.921 46.9703 884.138 46.9703C885.388 46.9703 886.045 46.2965 886.143 45.1012H887.914C887.838 47.28 886.295 48.5895 884.122 48.5895C881.813 48.5895 880.307 47.1442 880.307 44.8892V41.7486C880.307 39.6295 881.829 38.1842 884.16 38.1842C886.469 38.1842 887.974 39.6295 887.974 41.7486V43.9058H882.133ZM882.133 41.7486V42.4224H886.138V41.7486C886.138 40.5369 885.35 39.8034 884.133 39.8034C882.921 39.8034 882.133 40.5315 882.133 41.7486ZM894.293 38.3744V40.1838H893.332C892.196 40.1838 891.463 40.9173 891.463 42.455V48.3885H889.631V38.3744H891.441V39.3361C891.979 38.7221 892.772 38.3744 893.62 38.3744H894.293Z" fill="#686058"/>
<path fill-rule="evenodd" clip-rule="evenodd" d="M944 12H902.792V53.2083H944V12ZM910.426 37.5219H914.517L914.539 37.6034L918.066 51.3939H915.338L914.577 48.3022H910.372L909.611 51.3939H906.883L910.426 37.5219ZM910.991 45.7538H913.952L912.746 40.8799H912.214L910.991 45.7538ZM939.827 37.5219V40.0757H935.176V42.9283H939.311V45.4767H935.176V51.3939H932.492V37.5219H939.827ZM925.01 42.6241L927.873 37.5219H930.786V51.3939H928.123V42.1187L925.455 46.9492H924.597L921.902 42.1187V51.3939H919.234V37.5219H922.146L925.01 42.6241ZM918.392 17.6188C918.288 17.6731 918.185 17.7274 918.082 17.7872C917.973 17.8469 917.935 17.9828 917.995 18.0751C918.06 18.1784 918.18 18.2056 918.299 18.1567C922.032 16.6515 926.297 16.6352 928.552 17.9991C928.808 18.1512 928.862 18.2327 928.938 18.5424C929.166 19.4987 928.753 21.2918 927.547 22.2264C927.388 22.3497 927.243 22.4196 926.952 22.5601C926.936 22.5681 926.918 22.5765 926.901 22.585C926.765 22.6502 916.897 27.0243 916.897 27.0243C916.772 27.084 916.729 27.1873 916.772 27.2959C916.816 27.3992 916.935 27.4481 917.055 27.4046C917.174 27.3611 924.7 24.6715 925.108 24.5302C926.048 24.2097 926.433 24.4107 926.596 24.6824L926.602 24.6932L926.607 24.7041C926.765 24.9812 926.743 25.4159 925.999 26.0679C925.678 26.3505 919.582 31.5233 919.484 31.6048C919.386 31.6863 919.364 31.8112 919.435 31.9036C919.511 31.996 919.62 32.0123 919.734 31.9308C919.734 31.9308 928.455 25.5789 928.58 25.492C928.878 25.2855 929.014 25.1931 929.215 25.1116C930.628 24.5302 932.389 24.9975 933.1 25.6713C933.334 25.8941 933.377 25.981 933.383 26.2799C933.437 28.9151 931.291 32.6752 928.118 35.1529C928.014 35.2344 927.976 35.3539 928.036 35.4626C928.091 35.5604 928.226 35.5984 928.33 35.5332C928.404 35.49 928.479 35.444 928.551 35.3992C928.579 35.382 928.607 35.3651 928.634 35.3485C928.734 35.2875 928.835 35.2276 928.935 35.1677C929.166 35.0301 929.396 34.893 929.623 34.7454C930.438 34.2129 931.226 33.6369 931.981 33.0175C932.986 32.197 933.932 31.295 934.774 30.3116C935.687 29.2412 936.491 28.0621 937.056 26.7689C937.442 25.8886 938.751 22.6013 936.806 22.6013H935.247C935.105 22.6013 934.964 22.585 934.888 22.4546C934.85 22.389 934.84 22.311 934.859 22.2377C934.878 22.1644 934.926 22.1017 934.991 22.0634L936.246 21.3516C936.752 21.0473 937.067 20.542 937.148 19.9986L938.257 19.3575C938.425 19.2597 938.409 19.1456 938.213 19.1075L936.964 18.8576C936.955 18.8413 936.946 18.825 936.936 18.8087C936.927 18.7924 936.917 18.7761 936.909 18.7598C936.388 17.8578 935.241 17.5427 934.328 18.0425L933.084 18.7598C933.017 18.797 932.938 18.8065 932.864 18.7861C932.789 18.7658 932.726 18.7174 932.687 18.6511C932.611 18.5207 932.666 18.3903 932.736 18.2653L933.519 16.9124C934.491 15.228 930.987 14.7226 930.03 14.614C928.628 14.4618 927.205 14.5651 925.819 14.8204C924.542 15.0595 923.293 15.429 922.081 15.8854C921.168 16.2277 920.277 16.6189 919.408 17.0645C919.195 17.1726 918.986 17.289 918.777 17.406C918.649 17.4773 918.521 17.5488 918.392 17.6187L918.392 17.6188Z" fill="#686058"/>
</g>
<defs>
<clipPath id="clip0">
<rect width="180" height="46" fill="white" transform="translate(530 9)"/>
</clipPath>
<clipPath id="clip1">
<rect width="149" height="22" fill="white" transform="translate(328 21)"/>
</clipPath>
<clipPath id="clip2">
<rect width="172" height="41.2083" fill="white" transform="translate(772 12)"/>
</clipPath>
</defs>
</svg>
