<svg width="421" height="262" viewBox="0 0 421 262" fill="none" xmlns="http://www.w3.org/2000/svg">
<g clip-path="url(#clip0)">
<path d="M58.0266 30.5H391.37" stroke="#212121" stroke-opacity="0.25" stroke-dasharray="6"/>
<path d="M56.792 66.5H390.135" stroke="#212121" stroke-opacity="0.25" stroke-dasharray="6"/>
<path d="M56.792 102.5H390.135" stroke="#212121" stroke-opacity="0.25" stroke-dasharray="6"/>
<path d="M56.792 136.5H390.135" stroke="#212121" stroke-opacity="0.25" stroke-dasharray="6"/>
<path d="M56.792 170.5H390.135" stroke="#212121" stroke-opacity="0.25" stroke-dasharray="6"/>
<path d="M56.792 204.5H390.135" stroke="#212121" stroke-opacity="0.25" stroke-dasharray="6"/>
<path d="M44.0284 197.852C42.2284 197.852 41.3404 199.328 41.3404 201.992C41.3404 204.656 42.2284 206.144 44.0284 206.144C45.8284 206.144 46.7164 204.656 46.7164 201.992C46.7164 199.34 45.8284 197.852 44.0284 197.852ZM44.0284 198.728C45.0244 198.728 45.5644 199.64 45.5644 201.992C45.5644 204.356 45.0244 205.268 44.0284 205.268C43.0204 205.268 42.4924 204.356 42.4924 201.992C42.4924 199.64 43.0204 198.728 44.0284 198.728Z" fill="#242728"/>
<path d="M33.5066 165.972H32.5346L30.0506 167.508L30.5306 168.288L32.4026 167.148V174H33.5066V165.972ZM38.0443 165.852C36.2443 165.852 35.3563 167.328 35.3563 169.992C35.3563 172.656 36.2443 174.144 38.0443 174.144C39.8443 174.144 40.7323 172.656 40.7323 169.992C40.7323 167.34 39.8443 165.852 38.0443 165.852ZM38.0443 166.728C39.0403 166.728 39.5803 167.64 39.5803 169.992C39.5803 172.356 39.0403 173.268 38.0443 173.268C37.0363 173.268 36.5083 172.356 36.5083 169.992C36.5083 167.64 37.0363 166.728 38.0443 166.728ZM44.61 165.852C42.81 165.852 41.922 167.328 41.922 169.992C41.922 172.656 42.81 174.144 44.61 174.144C46.41 174.144 47.298 172.656 47.298 169.992C47.298 167.34 46.41 165.852 44.61 165.852ZM44.61 166.728C45.606 166.728 46.146 167.64 46.146 169.992C46.146 172.356 45.606 173.268 44.61 173.268C43.602 173.268 43.074 172.356 43.074 169.992C43.074 167.64 43.602 166.728 44.61 166.728Z" fill="#242728"/>
<path d="M32.3306 96.852C31.4666 96.852 30.7226 97.164 30.0386 97.8L30.6146 98.46C31.1546 97.956 31.6346 97.74 32.2706 97.74C33.0746 97.74 33.6026 98.208 33.6026 98.964C33.6026 99.9 32.9426 100.38 32.1506 100.38H31.7426L31.6106 101.232H32.2106C33.1826 101.232 33.8066 101.568 33.8066 102.672C33.8066 103.62 33.1946 104.244 32.1866 104.244C31.5386 104.244 30.9986 104.004 30.4706 103.452L29.8106 104.064C30.4226 104.796 31.2626 105.144 32.2226 105.144C33.8906 105.144 34.9586 104.088 34.9586 102.684C34.9586 101.472 34.1546 100.836 33.1466 100.74C34.0466 100.524 34.7066 99.912 34.7066 98.892C34.7066 97.812 33.8666 96.852 32.3306 96.852ZM38.8412 96.852C37.0412 96.852 36.1532 98.328 36.1532 100.992C36.1532 103.656 37.0412 105.144 38.8412 105.144C40.6412 105.144 41.5292 103.656 41.5292 100.992C41.5292 98.34 40.6412 96.852 38.8412 96.852ZM38.8412 97.728C39.8372 97.728 40.3772 98.64 40.3772 100.992C40.3772 103.356 39.8372 104.268 38.8412 104.268C37.8332 104.268 37.3052 103.356 37.3052 100.992C37.3052 98.64 37.8332 97.728 38.8412 97.728ZM45.4069 96.852C43.6069 96.852 42.7189 98.328 42.7189 100.992C42.7189 103.656 43.6069 105.144 45.4069 105.144C47.2069 105.144 48.0949 103.656 48.0949 100.992C48.0949 98.34 47.2069 96.852 45.4069 96.852ZM45.4069 97.728C46.4029 97.728 46.9429 98.64 46.9429 100.992C46.9429 103.356 46.4029 104.268 45.4069 104.268C44.3989 104.268 43.8709 103.356 43.8709 100.992C43.8709 98.64 44.3989 97.728 45.4069 97.728Z" fill="#242728"/>
<path d="M32.3666 131.852C31.3586 131.852 30.5786 132.26 29.9306 133.064L30.6506 133.64C31.1906 133.028 31.6346 132.764 32.3066 132.764C33.0866 132.764 33.6266 133.256 33.6266 134.096C33.6266 135.404 32.9306 136.172 30.0986 139.124V140H34.8386L34.9706 139.076H31.3586C33.8186 136.616 34.7786 135.548 34.7786 134.048C34.7786 132.8 33.8426 131.852 32.3666 131.852ZM38.7943 131.852C36.9943 131.852 36.1063 133.328 36.1063 135.992C36.1063 138.656 36.9943 140.144 38.7943 140.144C40.5943 140.144 41.4823 138.656 41.4823 135.992C41.4823 133.34 40.5943 131.852 38.7943 131.852ZM38.7943 132.728C39.7903 132.728 40.3303 133.64 40.3303 135.992C40.3303 138.356 39.7903 139.268 38.7943 139.268C37.7863 139.268 37.2583 138.356 37.2583 135.992C37.2583 133.64 37.7863 132.728 38.7943 132.728ZM45.36 131.852C43.56 131.852 42.672 133.328 42.672 135.992C42.672 138.656 43.56 140.144 45.36 140.144C47.16 140.144 48.048 138.656 48.048 135.992C48.048 133.34 47.16 131.852 45.36 131.852ZM45.36 132.728C46.356 132.728 46.896 133.64 46.896 135.992C46.896 138.356 46.356 139.268 45.36 139.268C44.352 139.268 43.824 138.356 43.824 135.992C43.824 133.64 44.352 132.728 45.36 132.728Z" fill="#242728"/>
<path d="M75.8113 226.732H74.2633L72.6073 232.744L70.8673 226.732H69.3313L68.6473 235H69.7273L70.0033 231.352C70.0993 230.14 70.1593 228.856 70.1593 227.884L72.0433 234.064H73.1113L74.8993 227.896C74.9113 228.58 74.9953 229.972 75.1033 231.268L75.3913 235H76.4953L75.8113 226.732ZM80.6334 228.532C78.8334 228.532 77.8014 229.888 77.8014 231.844C77.8014 233.848 78.8214 235.144 80.6215 235.144C82.4094 235.144 83.4414 233.788 83.4414 231.832C83.4414 229.828 82.4334 228.532 80.6334 228.532ZM80.6334 229.42C81.6775 229.42 82.2535 230.188 82.2535 231.832C82.2535 233.488 81.6775 234.256 80.6215 234.256C79.5654 234.256 78.9894 233.488 78.9894 231.844C78.9894 230.188 79.5774 229.42 80.6334 229.42ZM88.0795 228.532C87.2515 228.532 86.5795 228.964 86.1475 229.612L86.0515 228.676H85.1035V235H86.2075V230.512C86.6275 229.84 87.1075 229.396 87.8155 229.396C88.4275 229.396 88.8115 229.672 88.8115 230.62V235H89.9155V230.464C89.9155 229.264 89.2435 228.532 88.0795 228.532Z" fill="#242728"/>
<path d="M125.841 226.732H119.937V227.704H122.289V235H123.429V227.704H125.721L125.841 226.732ZM131.146 228.676H130.042V233.188C129.658 233.824 129.142 234.28 128.458 234.28C127.774 234.28 127.486 233.956 127.486 233.092V228.676H126.382V233.212C126.382 234.448 127.042 235.144 128.146 235.144C129.046 235.144 129.634 234.784 130.114 234.016L130.198 235H131.146V228.676ZM138.043 231.652C138.043 229.72 137.143 228.532 135.439 228.532C133.807 228.532 132.811 229.936 132.811 231.904C132.811 233.908 133.843 235.144 135.607 235.144C136.483 235.144 137.191 234.844 137.815 234.352L137.335 233.692C136.783 234.076 136.315 234.244 135.691 234.244C134.779 234.244 134.095 233.68 133.987 232.216H138.019C138.031 232.072 138.043 231.868 138.043 231.652ZM136.951 231.4H133.987C134.071 229.996 134.623 229.408 135.463 229.408C136.459 229.408 136.951 230.092 136.951 231.328V231.4Z" fill="#242728"/>
<path d="M177.518 226.732H176.474L175.094 234.004L173.462 226.732H172.25L170.654 234.004L169.322 226.732H168.206L169.886 235H171.314L172.85 228.076L174.374 235H175.838L177.518 226.732ZM183.493 231.652C183.493 229.72 182.593 228.532 180.889 228.532C179.257 228.532 178.261 229.936 178.261 231.904C178.261 233.908 179.293 235.144 181.057 235.144C181.933 235.144 182.641 234.844 183.265 234.352L182.785 233.692C182.233 234.076 181.765 234.244 181.141 234.244C180.229 234.244 179.545 233.68 179.437 232.216H183.469C183.481 232.072 183.493 231.868 183.493 231.652ZM182.401 231.4H179.437C179.521 229.996 180.073 229.408 180.913 229.408C181.909 229.408 182.401 230.092 182.401 231.328V231.4ZM188.851 226V229.312C188.431 228.868 187.891 228.532 187.147 228.532C185.599 228.532 184.663 229.936 184.663 231.868C184.663 233.836 185.515 235.144 187.051 235.144C187.831 235.144 188.467 234.76 188.875 234.124L188.983 235H189.955V226.132L188.851 226ZM187.291 234.268C186.379 234.268 185.851 233.512 185.851 231.844C185.851 230.2 186.439 229.408 187.387 229.408C188.011 229.408 188.455 229.732 188.851 230.236V233.332C188.431 233.92 187.999 234.268 187.291 234.268Z" fill="#242728"/>
<path d="M224.609 226.732H218.705V227.704H221.057V235H222.197V227.704H224.489L224.609 226.732ZM228.679 228.532C227.887 228.532 227.263 228.928 226.807 229.552V226.024L225.703 226.144V235H226.807V230.5C227.227 229.84 227.719 229.396 228.403 229.396C229.003 229.396 229.411 229.672 229.411 230.62V235H230.515V230.464C230.515 229.276 229.831 228.532 228.679 228.532ZM237.218 228.676H236.114V233.188C235.73 233.824 235.214 234.28 234.53 234.28C233.846 234.28 233.558 233.956 233.558 233.092V228.676H232.454V233.212C232.454 234.448 233.114 235.144 234.218 235.144C235.118 235.144 235.706 234.784 236.186 234.016L236.27 235H237.218V228.676Z" fill="#8D9AA9"/>
<path d="M224.609 226.732H218.705V227.704H221.057V235H222.197V227.704H224.489L224.609 226.732ZM228.679 228.532C227.887 228.532 227.263 228.928 226.807 229.552V226.024L225.703 226.144V235H226.807V230.5C227.227 229.84 227.719 229.396 228.403 229.396C229.003 229.396 229.411 229.672 229.411 230.62V235H230.515V230.464C230.515 229.276 229.831 228.532 228.679 228.532ZM237.218 228.676H236.114V233.188C235.73 233.824 235.214 234.28 234.53 234.28C233.846 234.28 233.558 233.956 233.558 233.092V228.676H232.454V233.212C232.454 234.448 233.114 235.144 234.218 235.144C235.118 235.144 235.706 234.784 236.186 234.016L236.27 235H237.218V228.676Z" fill="#242728"/>
<path d="M274.048 235H275.188V231.364H277.888V230.464H275.188V227.644H278.308L278.44 226.732H274.048V235ZM282.047 228.532C281.279 228.532 280.691 229.012 280.355 229.96L280.247 228.676H279.299V235H280.403V231.388C280.667 230.176 281.123 229.612 281.915 229.612C282.143 229.612 282.275 229.636 282.467 229.684L282.671 228.604C282.479 228.556 282.251 228.532 282.047 228.532ZM284.307 225.64C283.851 225.64 283.539 225.964 283.539 226.396C283.539 226.816 283.851 227.14 284.307 227.14C284.775 227.14 285.087 226.816 285.087 226.396C285.087 225.964 284.775 225.64 284.307 225.64ZM284.871 228.676H283.767V235H284.871V228.676Z" fill="#242728"/>
<path d="M321.768 226.588C320.244 226.588 319.164 227.476 319.164 228.748C319.164 230.032 320.004 230.644 321.612 231.136C323.016 231.568 323.4 231.928 323.4 232.732C323.4 233.728 322.596 234.208 321.624 234.208C320.724 234.208 320.076 233.884 319.452 233.38L318.828 234.076C319.512 234.748 320.448 235.144 321.636 235.144C323.496 235.144 324.588 234.136 324.588 232.696C324.588 231.112 323.46 230.596 322.14 230.188C320.652 229.732 320.328 229.396 320.328 228.7C320.328 227.908 320.988 227.524 321.816 227.524C322.5 227.524 323.076 227.74 323.7 228.244L324.324 227.548C323.628 226.924 322.908 226.588 321.768 226.588ZM330.281 233.524V230.632C330.281 229.312 329.585 228.532 328.061 228.532C327.353 228.532 326.657 228.676 325.877 228.964L326.153 229.768C326.801 229.552 327.389 229.432 327.857 229.432C328.733 229.432 329.177 229.768 329.177 230.68V231.148H328.205C326.441 231.148 325.421 231.88 325.421 233.236C325.421 234.364 326.177 235.144 327.437 235.144C328.205 235.144 328.877 234.856 329.321 234.196C329.513 234.82 329.921 235.072 330.557 235.144L330.809 234.376C330.485 234.256 330.281 234.076 330.281 233.524ZM327.689 234.316C326.969 234.316 326.597 233.92 326.597 233.176C326.597 232.312 327.185 231.88 328.349 231.88H329.177V233.332C328.817 233.992 328.337 234.316 327.689 234.316ZM335.196 233.98C334.884 234.148 334.632 234.232 334.356 234.232C333.804 234.232 333.6 233.932 333.6 233.296V229.528H334.98L335.1 228.676H333.6V227.116L332.496 227.248V228.676H331.392V229.528H332.496V233.344C332.496 234.52 333.132 235.144 334.2 235.144C334.74 235.144 335.196 235 335.616 234.712L335.196 233.98Z" fill="#242728"/>
<path d="M368.683 226.588C367.159 226.588 366.079 227.476 366.079 228.748C366.079 230.032 366.919 230.644 368.527 231.136C369.931 231.568 370.315 231.928 370.315 232.732C370.315 233.728 369.511 234.208 368.539 234.208C367.639 234.208 366.991 233.884 366.367 233.38L365.743 234.076C366.427 234.748 367.363 235.144 368.551 235.144C370.411 235.144 371.503 234.136 371.503 232.696C371.503 231.112 370.375 230.596 369.055 230.188C367.567 229.732 367.243 229.396 367.243 228.7C367.243 227.908 367.903 227.524 368.731 227.524C369.415 227.524 369.991 227.74 370.615 228.244L371.239 227.548C370.543 226.924 369.823 226.588 368.683 226.588ZM377.767 228.676H376.663V233.188C376.279 233.824 375.763 234.28 375.079 234.28C374.395 234.28 374.107 233.956 374.107 233.092V228.676H373.003V233.212C373.003 234.448 373.663 235.144 374.767 235.144C375.667 235.144 376.255 234.784 376.735 234.016L376.819 235H377.767V228.676ZM382.943 228.532C382.115 228.532 381.443 228.964 381.011 229.612L380.915 228.676H379.967V235H381.071V230.512C381.491 229.84 381.971 229.396 382.679 229.396C383.291 229.396 383.675 229.672 383.675 230.62V235H384.779V230.464C384.779 229.264 384.107 228.532 382.943 228.532Z" fill="#242728"/>
<path d="M35.6546 67.144H34.6106V64.984H33.6506L33.5546 67.144H31.2746L33.4466 62.236L32.5226 61.852L30.1106 67.228V68.02H33.5426V70H34.6106V68.02H35.6546V67.144ZM39.2396 61.852C37.4396 61.852 36.5516 63.328 36.5516 65.992C36.5516 68.656 37.4396 70.144 39.2396 70.144C41.0396 70.144 41.9276 68.656 41.9276 65.992C41.9276 63.34 41.0396 61.852 39.2396 61.852ZM39.2396 62.728C40.2356 62.728 40.7756 63.64 40.7756 65.992C40.7756 68.356 40.2356 69.268 39.2396 69.268C38.2316 69.268 37.7036 68.356 37.7036 65.992C37.7036 63.64 38.2316 62.728 39.2396 62.728ZM45.8053 61.852C44.0053 61.852 43.1173 63.328 43.1173 65.992C43.1173 68.656 44.0053 70.144 45.8053 70.144C47.6053 70.144 48.4933 68.656 48.4933 65.992C48.4933 63.34 47.6053 61.852 45.8053 61.852ZM45.8053 62.728C46.8013 62.728 47.3413 63.64 47.3413 65.992C47.3413 68.356 46.8013 69.268 45.8053 69.268C44.7973 69.268 44.2693 68.356 44.2693 65.992C44.2693 63.64 44.7973 62.728 45.8053 62.728Z" fill="#242728"/>
<path d="M34.8266 26.972H30.4826V31.016H31.3466C31.7306 30.836 32.0546 30.74 32.4866 30.74C33.3146 30.74 33.9506 31.172 33.9506 32.408C33.9506 33.584 33.3146 34.244 32.3066 34.244C31.6106 34.244 31.0946 33.992 30.5906 33.488L29.9426 34.124C30.5666 34.76 31.2986 35.144 32.3186 35.144C33.9866 35.144 35.1026 34.028 35.1026 32.432C35.1026 30.836 34.1786 29.888 32.8226 29.888C32.3906 29.888 31.9586 29.984 31.5386 30.2V27.836H34.6706L34.8266 26.972ZM38.8646 26.852C37.0646 26.852 36.1766 28.328 36.1766 30.992C36.1766 33.656 37.0646 35.144 38.8646 35.144C40.6646 35.144 41.5526 33.656 41.5526 30.992C41.5526 28.34 40.6646 26.852 38.8646 26.852ZM38.8646 27.728C39.8606 27.728 40.4006 28.64 40.4006 30.992C40.4006 33.356 39.8606 34.268 38.8646 34.268C37.8566 34.268 37.3286 33.356 37.3286 30.992C37.3286 28.64 37.8566 27.728 38.8646 27.728ZM45.4303 26.852C43.6303 26.852 42.7423 28.328 42.7423 30.992C42.7423 33.656 43.6303 35.144 45.4303 35.144C47.2303 35.144 48.1183 33.656 48.1183 30.992C48.1183 28.34 47.2303 26.852 45.4303 26.852ZM45.4303 27.728C46.4263 27.728 46.9663 28.64 46.9663 30.992C46.9663 33.356 46.4263 34.268 45.4303 34.268C44.4223 34.268 43.8943 33.356 43.8943 30.992C43.8943 28.64 44.4223 27.728 45.4303 27.728Z" fill="#242728"/>
</g>
<path d="M72.0002 66.7517L123.061 103L169.015 80.6552L225.819 53.8414L277.518 31L320.919 70.2276L379 93.5655" stroke="#1069C7" stroke-width="2"/>
<circle cx="70.5002" cy="66.5" r="6.5" fill="#1069C7"/>
<circle cx="123.5" cy="102.5" r="6.5" fill="#1069C7"/>
<circle cx="176.5" cy="77.5" r="6.5" fill="#1069C7"/>
<circle cx="226.5" cy="52.5" r="6.5" fill="#1069C7"/>
<circle cx="278.5" cy="30.5" r="6.5" fill="#1069C7"/>
<circle cx="324.5" cy="71.5" r="6.5" fill="#1069C7"/>
<circle cx="372.5" cy="92.5" r="6.5" fill="#1069C7"/>
<defs>
<clipPath id="clip0">
<rect width="361.739" height="214" fill="white" transform="translate(29.6306 24)"/>
</clipPath>
</defs>
</svg>
