<svg width="420" height="200" viewBox="0 0 420 200" fill="none" xmlns="http://www.w3.org/2000/svg">
<path d="M289.456 142H287.984L287.6 137.024C287.44 135.072 287.349 133.573 287.328 132.528L284.944 140.752H283.52L281.008 132.512C281.008 133.845 280.939 135.387 280.8 137.136L280.432 142H278.992L279.904 130.976H281.952L284.272 138.992L286.48 130.976H288.544L289.456 142ZM297.653 140.032C297.653 140.373 297.712 140.629 297.829 140.8C297.946 140.96 298.122 141.083 298.357 141.168L298.021 142.192C297.584 142.139 297.232 142.016 296.965 141.824C296.698 141.632 296.501 141.333 296.373 140.928C295.808 141.771 294.97 142.192 293.861 142.192C293.029 142.192 292.373 141.957 291.893 141.488C291.413 141.019 291.173 140.405 291.173 139.648C291.173 138.752 291.493 138.064 292.133 137.584C292.784 137.104 293.701 136.864 294.885 136.864H296.181V136.24C296.181 135.643 296.037 135.216 295.749 134.96C295.461 134.704 295.018 134.576 294.421 134.576C293.802 134.576 293.045 134.725 292.149 135.024L291.781 133.952C292.826 133.568 293.797 133.376 294.693 133.376C295.685 133.376 296.426 133.621 296.917 134.112C297.408 134.592 297.653 135.28 297.653 136.176V140.032ZM294.197 141.088C295.04 141.088 295.701 140.651 296.181 139.776V137.84H295.077C293.52 137.84 292.741 138.416 292.741 139.568C292.741 140.069 292.864 140.448 293.109 140.704C293.354 140.96 293.717 141.088 294.197 141.088ZM302.2 142.192C301.656 142.192 301.224 142.032 300.904 141.712C300.595 141.381 300.44 140.923 300.44 140.336V130.176L301.912 130V140.304C301.912 140.539 301.949 140.709 302.024 140.816C302.109 140.923 302.248 140.976 302.44 140.976C302.643 140.976 302.824 140.944 302.984 140.88L303.368 141.904C303.016 142.096 302.627 142.192 302.2 142.192ZM311.497 137.536C311.497 137.781 311.487 138.032 311.465 138.288H306.089C306.153 139.216 306.388 139.899 306.793 140.336C307.199 140.773 307.721 140.992 308.361 140.992C308.767 140.992 309.14 140.933 309.481 140.816C309.823 140.699 310.18 140.512 310.553 140.256L311.193 141.136C310.297 141.84 309.316 142.192 308.249 142.192C307.076 142.192 306.159 141.808 305.497 141.04C304.847 140.272 304.521 139.216 304.521 137.872C304.521 136.997 304.66 136.224 304.937 135.552C305.225 134.869 305.631 134.336 306.153 133.952C306.687 133.568 307.311 133.376 308.025 133.376C309.145 133.376 310.004 133.744 310.601 134.48C311.199 135.216 311.497 136.235 311.497 137.536ZM310.041 137.104C310.041 136.272 309.876 135.637 309.545 135.2C309.215 134.763 308.719 134.544 308.057 134.544C306.852 134.544 306.196 135.429 306.089 137.2H310.041V137.104Z" fill="#6D7679"/>
<path d="M280.304 154.896V163.2C281.24 162.984 282.224 162.864 283.208 162.864C285.848 162.864 287.408 164.208 287.408 166.344C287.408 168.336 285.896 169.824 283.952 169.824C283.568 169.824 283.208 169.8 282.824 169.704L282.008 166.992C281.672 166.896 281.384 166.824 281.12 166.824C280.04 166.824 279.32 167.52 279.32 168.336C279.32 169.92 281.024 171.216 283.784 171.216C287.888 171.216 290.6 168.84 290.6 165.624C290.6 162.816 288.488 160.92 285.152 160.92C284.24 160.92 283.304 161.088 282.248 161.448V157.392H289.736V154.896H280.304ZM299.961 162.528C302.553 161.928 303.897 160.584 303.897 158.688C303.897 156.36 301.881 154.632 298.689 154.632C295.425 154.632 293.337 156.216 293.337 157.944C293.337 158.904 294.033 159.6 295.065 159.6C295.569 159.6 295.953 159.504 296.337 159.264V156.456C296.817 156.264 297.273 156.168 297.681 156.168C299.433 156.168 300.657 157.344 300.657 159.024C300.657 160.872 299.385 161.976 297.129 161.976C296.913 161.976 296.673 161.976 296.433 161.952V163.68C297.081 163.584 297.585 163.56 297.921 163.56C299.961 163.56 301.233 164.76 301.233 166.512C301.233 168.384 299.841 169.848 298.017 169.848C297.537 169.848 296.985 169.728 296.361 169.488L295.593 166.896C295.233 166.776 294.945 166.704 294.657 166.704C293.625 166.704 292.953 167.328 292.953 168.264C292.953 169.848 294.849 171.264 297.801 171.264C301.929 171.264 304.497 169.08 304.497 166.368C304.497 164.184 302.889 162.744 299.961 162.528ZM310.763 154.608C308.339 154.608 306.779 156.456 306.779 159.624C306.779 162.816 308.315 164.688 310.763 164.688C313.211 164.688 314.771 162.792 314.771 159.624C314.771 156.48 313.187 154.608 310.763 154.608ZM320.795 154.896L310.763 171H312.443L322.475 154.896H320.795ZM310.691 155.688C311.771 155.688 312.371 157.008 312.371 159.624C312.371 162.264 311.771 163.584 310.691 163.584C309.611 163.584 309.059 162.264 309.059 159.624C309.059 157.008 309.635 155.688 310.691 155.688ZM322.595 161.232C320.171 161.232 318.587 163.08 318.587 166.248C318.587 169.44 320.147 171.288 322.595 171.288C325.043 171.288 326.603 169.416 326.603 166.248C326.603 163.128 325.019 161.232 322.595 161.232ZM322.547 162.288C323.627 162.288 324.203 163.632 324.203 166.248C324.203 168.888 323.651 170.208 322.547 170.208C321.467 170.208 320.891 168.864 320.891 166.248C320.891 163.632 321.491 162.288 322.547 162.288Z" fill="#1069C7"/>
<path d="M249 149V155" stroke="#1069C7" stroke-width="2" stroke-linecap="round" stroke-linejoin="round"/>
<path d="M253 174L254 162H259V155C259 152.348 257.946 149.804 256.071 147.929C254.196 146.054 251.652 145 249 145C246.348 145 243.804 146.054 241.929 147.929C240.054 149.804 239 152.348 239 155V162H244L245 174H253Z" stroke="#1069C7" stroke-width="2" stroke-linecap="round" stroke-linejoin="round"/>
<path d="M242.968 131.446C244.052 132.57 245.352 133.464 246.789 134.075C248.226 134.686 249.772 135 251.334 135C252.916 135 254.481 134.678 255.934 134.054" stroke="#1069C7" stroke-width="2" stroke-linecap="round" stroke-linejoin="round"/>
<path d="M242 135C242 135.919 242.181 136.83 242.533 137.679C242.885 138.528 243.4 139.3 244.05 139.95C244.7 140.6 245.472 141.115 246.321 141.467C247.17 141.819 248.081 142 249 142C249.919 142 250.83 141.819 251.679 141.467C252.528 141.115 253.3 140.6 253.95 139.95C254.6 139.3 255.115 138.528 255.467 137.679C255.819 136.83 256 135.919 256 135C256 134.081 255.819 133.17 255.467 132.321C255.115 131.472 254.6 130.7 253.95 130.05C253.3 129.4 252.528 128.885 251.679 128.533C250.83 128.181 249.919 128 249 128C248.081 128 247.17 128.181 246.321 128.533C245.472 128.885 244.7 129.4 244.05 130.05C243.4 130.7 242.885 131.472 242.533 132.321C242.181 133.17 242 134.081 242 135V135Z" stroke="#1069C7" stroke-width="2" stroke-linecap="round" stroke-linejoin="round"/>
<path d="M279.6 47V35.976H285.456L285.28 37.192H281.12V40.952H284.72V42.152H281.12V47H279.6ZM293.185 42.536C293.185 42.7813 293.174 43.032 293.153 43.288H287.777C287.841 44.216 288.076 44.8987 288.481 45.336C288.886 45.7733 289.409 45.992 290.049 45.992C290.454 45.992 290.828 45.9333 291.169 45.816C291.51 45.6987 291.868 45.512 292.241 45.256L292.881 46.136C291.985 46.84 291.004 47.192 289.937 47.192C288.764 47.192 287.846 46.808 287.185 46.04C286.534 45.272 286.209 44.216 286.209 42.872C286.209 41.9973 286.348 41.224 286.625 40.552C286.913 39.8693 287.318 39.336 287.841 38.952C288.374 38.568 288.998 38.376 289.713 38.376C290.833 38.376 291.692 38.744 292.289 39.48C292.886 40.216 293.185 41.2347 293.185 42.536ZM291.729 42.104C291.729 41.272 291.564 40.6373 291.233 40.2C290.902 39.7627 290.406 39.544 289.745 39.544C288.54 39.544 287.884 40.4293 287.777 42.2H291.729V42.104ZM304 38.376C304.693 38.376 305.248 38.6107 305.664 39.08C306.08 39.5387 306.288 40.1627 306.288 40.952V47H304.816V41.16C304.816 40.072 304.421 39.528 303.632 39.528C303.216 39.528 302.864 39.6507 302.576 39.896C302.288 40.1307 301.978 40.504 301.648 41.016V47H300.176V41.16C300.176 40.072 299.781 39.528 298.992 39.528C298.565 39.528 298.208 39.6507 297.92 39.896C297.632 40.1413 297.328 40.5147 297.008 41.016V47H295.536V38.568H296.8L296.928 39.8C297.557 38.8507 298.368 38.376 299.36 38.376C299.882 38.376 300.325 38.5093 300.688 38.776C301.061 39.0427 301.328 39.416 301.488 39.896C301.818 39.4053 302.181 39.032 302.576 38.776C302.981 38.5093 303.456 38.376 304 38.376ZM314.934 45.032C314.934 45.3733 314.993 45.6293 315.11 45.8C315.228 45.96 315.404 46.0827 315.638 46.168L315.302 47.192C314.865 47.1387 314.513 47.016 314.246 46.824C313.98 46.632 313.782 46.3333 313.654 45.928C313.089 46.7707 312.252 47.192 311.142 47.192C310.31 47.192 309.654 46.9573 309.174 46.488C308.694 46.0187 308.454 45.4053 308.454 44.648C308.454 43.752 308.774 43.064 309.414 42.584C310.065 42.104 310.982 41.864 312.166 41.864H313.462V41.24C313.462 40.6427 313.318 40.216 313.03 39.96C312.742 39.704 312.3 39.576 311.702 39.576C311.084 39.576 310.326 39.7253 309.43 40.024L309.062 38.952C310.108 38.568 311.078 38.376 311.974 38.376C312.966 38.376 313.708 38.6213 314.198 39.112C314.689 39.592 314.934 40.28 314.934 41.176V45.032ZM311.478 46.088C312.321 46.088 312.982 45.6507 313.462 44.776V42.84H312.358C310.801 42.84 310.022 43.416 310.022 44.568C310.022 45.0693 310.145 45.448 310.39 45.704C310.636 45.96 310.998 46.088 311.478 46.088ZM319.481 47.192C318.937 47.192 318.505 47.032 318.185 46.712C317.876 46.3813 317.721 45.9227 317.721 45.336V35.176L319.193 35V45.304C319.193 45.5387 319.231 45.7093 319.305 45.816C319.391 45.9227 319.529 45.976 319.721 45.976C319.924 45.976 320.105 45.944 320.265 45.88L320.649 46.904C320.297 47.096 319.908 47.192 319.481 47.192ZM328.779 42.536C328.779 42.7813 328.768 43.032 328.747 43.288H323.371C323.435 44.216 323.669 44.8987 324.075 45.336C324.48 45.7733 325.003 45.992 325.643 45.992C326.048 45.992 326.421 45.9333 326.763 45.816C327.104 45.6987 327.461 45.512 327.835 45.256L328.475 46.136C327.579 46.84 326.597 47.192 325.531 47.192C324.357 47.192 323.44 46.808 322.779 46.04C322.128 45.272 321.803 44.216 321.803 42.872C321.803 41.9973 321.941 41.224 322.219 40.552C322.507 39.8693 322.912 39.336 323.435 38.952C323.968 38.568 324.592 38.376 325.307 38.376C326.427 38.376 327.285 38.744 327.883 39.48C328.48 40.216 328.779 41.2347 328.779 42.536ZM327.323 42.104C327.323 41.272 327.157 40.6373 326.827 40.2C326.496 39.7627 326 39.544 325.339 39.544C324.133 39.544 323.477 40.4293 323.371 42.2H327.323V42.104Z" fill="#6D7679"/>
<path d="M286.52 60.752L278.6 70.712V72.656H286.064V77.744H288.872V72.656H291.584V70.76H288.872V60.752H286.52ZM286.064 64.064V70.76H280.784L286.064 64.064ZM293.769 60.896V65.792H295.353L295.713 63.56H302.649L294.921 77.816H297.489V77.144L305.265 62.456V60.896H293.769ZM310.763 60.608C308.339 60.608 306.779 62.456 306.779 65.624C306.779 68.816 308.315 70.688 310.763 70.688C313.211 70.688 314.771 68.792 314.771 65.624C314.771 62.48 313.187 60.608 310.763 60.608ZM320.795 60.896L310.763 77H312.443L322.475 60.896H320.795ZM310.691 61.688C311.771 61.688 312.371 63.008 312.371 65.624C312.371 68.264 311.771 69.584 310.691 69.584C309.611 69.584 309.059 68.264 309.059 65.624C309.059 63.008 309.635 61.688 310.691 61.688ZM322.595 67.232C320.171 67.232 318.587 69.08 318.587 72.248C318.587 75.44 320.147 77.288 322.595 77.288C325.043 77.288 326.603 75.416 326.603 72.248C326.603 69.128 325.019 67.232 322.595 67.232ZM322.547 68.288C323.627 68.288 324.203 69.632 324.203 72.248C324.203 74.888 323.651 76.208 322.547 76.208C321.467 76.208 320.891 74.864 320.891 72.248C320.891 69.632 321.491 68.288 322.547 68.288Z" fill="#EB9D87"/>
<path d="M242 41C242 41.9193 242.181 42.8295 242.533 43.6788C242.885 44.5281 243.4 45.2997 244.05 45.9497C244.7 46.5998 245.472 47.1154 246.321 47.4672C247.17 47.8189 248.081 48 249 48C249.919 48 250.83 47.8189 251.679 47.4672C252.528 47.1154 253.3 46.5998 253.95 45.9497C254.6 45.2997 255.115 44.5281 255.467 43.6788C255.819 42.8295 256 41.9193 256 41C256 40.0807 255.819 39.1705 255.467 38.3212C255.115 37.4719 254.6 36.7003 253.95 36.0503C253.3 35.4002 252.528 34.8846 251.679 34.5328C250.83 34.1811 249.919 34 249 34C248.081 34 247.17 34.1811 246.321 34.5328C245.472 34.8846 244.7 35.4002 244.05 36.0503C243.4 36.7003 242.885 37.4719 242.533 38.3212C242.181 39.1705 242 40.0807 242 41V41Z" stroke="#EB9D87" stroke-width="2" stroke-linecap="round" stroke-linejoin="round"/>
<path d="M242.094 42.1542C243.407 42.1395 244.701 41.846 245.892 41.2933C247.082 40.7406 248.142 39.9413 249 38.9482C249.859 39.94 250.918 40.7382 252.108 41.2898C253.298 41.8415 254.592 42.1341 255.904 42.1482" stroke="#EB9D87" stroke-width="2" stroke-linecap="round" stroke-linejoin="round"/>
<path d="M253.434 52.4299L249 59.4119L244.604 52.4019" stroke="#EB9D87" stroke-width="2" stroke-linecap="round" stroke-linejoin="round"/>
<path d="M249 51C250.71 50.9983 252.371 51.5735 253.714 52.6325C255.057 53.6915 256.003 55.1725 256.4 56.836L260 70H254.086L251.978 80H245.978L243.87 70H238L241.6 56.836C241.997 55.1725 242.943 53.6915 244.286 52.6325C245.629 51.5735 247.29 50.9983 249 51V51Z" stroke="#EB9D87" stroke-width="2" stroke-linecap="round" stroke-linejoin="round"/>
<path fill-rule="evenodd" clip-rule="evenodd" d="M100 200C155.228 200 200 155.228 200 100C200 44.7715 155.228 0 100 0C44.7715 0 0 44.7715 0 100C0 155.228 44.7715 200 100 200ZM100 154C129.823 154 154 129.823 154 100C154 70.1766 129.823 46 100 46C70.1766 46 46 70.1766 46 100C46 129.823 70.1766 154 100 154Z" fill="#1069C7"/>
<path fill-rule="evenodd" clip-rule="evenodd" d="M99.9999 0C155.228 0 200 44.7715 200 100H154C154 70.1766 129.823 46 100 46C76.2199 46 56.0299 61.3713 48.824 82.72L5.22949 68C18.5738 28.4654 55.9627 0 99.9999 0Z" fill="#EB9D87"/>
<path d="M81.9563 78.976L78.4363 90H76.8043L73.2523 78.976H74.8843L77.6523 88.352L80.4203 78.976H81.9563ZM85.0389 81.568V90H83.5669V81.568H85.0389ZM84.2869 77.52C84.5962 77.52 84.8469 77.616 85.0389 77.808C85.2309 78 85.3269 78.24 85.3269 78.528C85.3269 78.816 85.2309 79.056 85.0389 79.248C84.8469 79.4293 84.5962 79.52 84.2869 79.52C83.9882 79.52 83.7429 79.4293 83.5509 79.248C83.3589 79.056 83.2629 78.816 83.2629 78.528C83.2629 78.24 83.3589 78 83.5509 77.808C83.7429 77.616 83.9882 77.52 84.2869 77.52ZM90.3705 81.376C90.9465 81.376 91.4638 81.456 91.9225 81.616C92.3812 81.776 92.8185 82.016 93.2345 82.336L92.6105 83.264C92.2265 83.0187 91.8585 82.8373 91.5065 82.72C91.1652 82.6027 90.8025 82.544 90.4185 82.544C89.9385 82.544 89.5598 82.6453 89.2825 82.848C89.0052 83.04 88.8665 83.3067 88.8665 83.648C88.8665 83.9893 88.9945 84.256 89.2505 84.448C89.5172 84.64 89.9918 84.8267 90.6745 85.008C91.6132 85.2427 92.3118 85.5627 92.7705 85.968C93.2398 86.3733 93.4745 86.928 93.4745 87.632C93.4745 88.464 93.1492 89.0987 92.4985 89.536C91.8585 89.9733 91.0745 90.192 90.1465 90.192C88.8665 90.192 87.8052 89.824 86.9625 89.088L87.7465 88.192C88.4612 88.736 89.2505 89.008 90.1145 89.008C90.6692 89.008 91.1065 88.896 91.4265 88.672C91.7572 88.4373 91.9225 88.1227 91.9225 87.728C91.9225 87.44 91.8638 87.2107 91.7465 87.04C91.6292 86.8587 91.4265 86.704 91.1385 86.576C90.8505 86.4373 90.4292 86.2933 89.8745 86.144C88.9785 85.9093 88.3278 85.5947 87.9225 85.2C87.5278 84.8053 87.3305 84.304 87.3305 83.696C87.3305 83.2587 87.4585 82.864 87.7145 82.512C87.9812 82.1493 88.3438 81.872 88.8025 81.68C89.2718 81.4773 89.7945 81.376 90.3705 81.376ZM97.0233 81.568V90H95.5513V81.568H97.0233ZM96.2713 77.52C96.5806 77.52 96.8313 77.616 97.0233 77.808C97.2153 78 97.3113 78.24 97.3113 78.528C97.3113 78.816 97.2153 79.056 97.0233 79.248C96.8313 79.4293 96.5806 79.52 96.2713 79.52C95.9726 79.52 95.7273 79.4293 95.5353 79.248C95.3433 79.056 95.2473 78.816 95.2473 78.528C95.2473 78.24 95.3433 78 95.5353 77.808C95.7273 77.616 95.9726 77.52 96.2713 77.52ZM104.323 89.616C103.768 90 103.139 90.192 102.435 90.192C101.72 90.192 101.16 89.9893 100.755 89.584C100.36 89.168 100.163 88.5707 100.163 87.792V82.704H98.6909V81.568H100.163V79.664L101.635 79.488V81.568H103.635L103.475 82.704H101.635V87.728C101.635 88.1653 101.71 88.4853 101.859 88.688C102.019 88.88 102.28 88.976 102.643 88.976C102.974 88.976 103.347 88.864 103.763 88.64L104.323 89.616ZM108.782 81.376C109.966 81.376 110.883 81.7707 111.534 82.56C112.195 83.3493 112.526 84.4213 112.526 85.776C112.526 86.6507 112.376 87.424 112.078 88.096C111.779 88.7573 111.347 89.2747 110.782 89.648C110.216 90.0107 109.544 90.192 108.766 90.192C107.582 90.192 106.659 89.7973 105.998 89.008C105.336 88.2187 105.006 87.1467 105.006 85.792C105.006 84.9173 105.155 84.1493 105.454 83.488C105.752 82.816 106.184 82.2987 106.75 81.936C107.315 81.5627 107.992 81.376 108.782 81.376ZM108.782 82.56C107.32 82.56 106.59 83.6373 106.59 85.792C106.59 87.936 107.315 89.008 108.766 89.008C110.216 89.008 110.942 87.9307 110.942 85.776C110.942 83.632 110.222 82.56 108.782 82.56ZM118.622 81.376C118.92 81.376 119.198 81.408 119.454 81.472L119.182 82.912C118.926 82.848 118.68 82.816 118.446 82.816C117.923 82.816 117.502 83.008 117.182 83.392C116.862 83.776 116.611 84.3733 116.43 85.184V90H114.958V81.568H116.222L116.366 83.28C116.59 82.6507 116.894 82.176 117.278 81.856C117.662 81.536 118.11 81.376 118.622 81.376ZM123.183 81.376C123.759 81.376 124.276 81.456 124.735 81.616C125.194 81.776 125.631 82.016 126.047 82.336L125.423 83.264C125.039 83.0187 124.671 82.8373 124.319 82.72C123.978 82.6027 123.615 82.544 123.231 82.544C122.751 82.544 122.372 82.6453 122.095 82.848C121.818 83.04 121.679 83.3067 121.679 83.648C121.679 83.9893 121.807 84.256 122.063 84.448C122.33 84.64 122.804 84.8267 123.487 85.008C124.426 85.2427 125.124 85.5627 125.583 85.968C126.052 86.3733 126.287 86.928 126.287 87.632C126.287 88.464 125.962 89.0987 125.311 89.536C124.671 89.9733 123.887 90.192 122.959 90.192C121.679 90.192 120.618 89.824 119.775 89.088L120.559 88.192C121.274 88.736 122.063 89.008 122.927 89.008C123.482 89.008 123.919 88.896 124.239 88.672C124.57 88.4373 124.735 88.1227 124.735 87.728C124.735 87.44 124.676 87.2107 124.559 87.04C124.442 86.8587 124.239 86.704 123.951 86.576C123.663 86.4373 123.242 86.2933 122.687 86.144C121.791 85.9093 121.14 85.5947 120.735 85.2C120.34 84.8053 120.143 84.304 120.143 83.696C120.143 83.2587 120.271 82.864 120.527 82.512C120.794 82.1493 121.156 81.872 121.615 81.68C122.084 81.4773 122.607 81.376 123.183 81.376Z" fill="#6D7679"/>
<path d="M69.6605 112.528C72.2525 111.928 73.5965 110.584 73.5965 108.688C73.5965 106.36 71.5805 104.632 68.3885 104.632C65.1245 104.632 63.0365 106.216 63.0365 107.944C63.0365 108.904 63.7325 109.6 64.7645 109.6C65.2685 109.6 65.6525 109.504 66.0365 109.264V106.456C66.5165 106.264 66.9725 106.168 67.3805 106.168C69.1325 106.168 70.3565 107.344 70.3565 109.024C70.3565 110.872 69.0845 111.976 66.8285 111.976C66.6125 111.976 66.3725 111.976 66.1325 111.952V113.68C66.7805 113.584 67.2845 113.56 67.6205 113.56C69.6605 113.56 70.9325 114.76 70.9325 116.512C70.9325 118.384 69.5405 119.848 67.7165 119.848C67.2365 119.848 66.6845 119.728 66.0605 119.488L65.2925 116.896C64.9325 116.776 64.6445 116.704 64.3565 116.704C63.3245 116.704 62.6525 117.328 62.6525 118.264C62.6525 119.848 64.5485 121.264 67.5005 121.264C71.6285 121.264 74.1965 119.08 74.1965 116.368C74.1965 114.184 72.5885 112.744 69.6605 112.528ZM77.8938 104.896V113.2C78.8298 112.984 79.8138 112.864 80.7978 112.864C83.4378 112.864 84.9978 114.208 84.9978 116.344C84.9978 118.336 83.4858 119.824 81.5418 119.824C81.1578 119.824 80.7978 119.8 80.4138 119.704L79.5978 116.992C79.2618 116.896 78.9738 116.824 78.7098 116.824C77.6298 116.824 76.9098 117.52 76.9098 118.336C76.9098 119.92 78.6138 121.216 81.3738 121.216C85.4778 121.216 88.1898 118.84 88.1898 115.624C88.1898 112.816 86.0778 110.92 82.7418 110.92C81.8298 110.92 80.8938 111.088 79.8378 111.448V107.392H87.3258V104.896H77.8938ZM103.552 104.608C99.8555 104.608 97.4795 107.656 97.4795 112.96C97.4795 118.264 99.8555 121.288 103.552 121.288C107.272 121.288 109.672 118.24 109.672 112.96C109.672 107.68 107.272 104.608 103.552 104.608ZM103.576 105.952C105.472 105.952 106.408 108.28 106.408 112.936C106.408 117.592 105.472 119.92 103.576 119.92C101.68 119.92 100.744 117.568 100.744 112.864C100.744 108.256 101.728 105.952 103.576 105.952ZM117.497 104.608C113.801 104.608 111.425 107.656 111.425 112.96C111.425 118.264 113.801 121.288 117.497 121.288C121.217 121.288 123.617 118.24 123.617 112.96C123.617 107.68 121.217 104.608 117.497 104.608ZM117.521 105.952C119.417 105.952 120.353 108.28 120.353 112.936C120.353 117.592 119.417 119.92 117.521 119.92C115.625 119.92 114.689 117.568 114.689 112.864C114.689 108.256 115.673 105.952 117.521 105.952ZM131.442 104.608C127.746 104.608 125.37 107.656 125.37 112.96C125.37 118.264 127.746 121.288 131.442 121.288C135.162 121.288 137.562 118.24 137.562 112.96C137.562 107.68 135.162 104.608 131.442 104.608ZM131.466 105.952C133.362 105.952 134.298 108.28 134.298 112.936C134.298 117.592 133.362 119.92 131.466 119.92C129.57 119.92 128.634 117.568 128.634 112.864C128.634 108.256 129.618 105.952 131.466 105.952Z" fill="#242728"/>
</svg>
