<svg width="311" height="124" viewBox="0 0 311 124" fill="none" xmlns="http://www.w3.org/2000/svg">
<path d="M100.671 14H105.981V13.118L104.703 13.028L104.433 12.74V9.5C104.973 9.536 105.387 9.554 105.657 9.554C108.681 9.554 110.373 8.042 110.373 5.558C110.373 2.966 108.789 1.922 105.459 1.922H100.599V2.804L101.787 2.894L102.057 3.146V12.74L101.733 13.028L100.671 13.118V14ZM104.433 8.474V2.966H105.369C107.007 2.966 107.889 3.92 107.889 5.63C107.889 7.538 106.953 8.51 105.081 8.51C104.883 8.51 104.667 8.492 104.433 8.474ZM111.236 14H116.204V13.19L114.926 13.118L114.656 12.848V7.682C115.214 7.34 115.646 7.178 115.934 7.178C116.456 7.178 116.834 7.376 117.104 7.826H118.04L118.274 5.342C117.878 5.144 117.482 5.036 117.086 5.036C116.96 5.036 116.816 5.054 116.69 5.072C115.952 5.594 115.232 6.206 114.584 6.908L114.656 5.072H113.792L111.146 5.918V6.638H112.442V12.848L112.19 13.118L111.236 13.19V14ZM123.618 5.018C120.792 5.018 118.956 6.854 118.956 9.626C118.956 12.344 120.774 14.144 123.474 14.144C126.318 14.144 128.136 12.326 128.136 9.662C128.136 6.8 126.372 5.018 123.618 5.018ZM123.546 5.972C124.824 5.972 125.652 7.25 125.652 9.608C125.652 11.948 124.86 13.19 123.528 13.19C122.268 13.19 121.458 11.912 121.458 9.554C121.458 7.232 122.268 5.972 123.546 5.972ZM131.631 5.018L129.093 5.882V6.584H130.263V11.084C130.263 13.154 131.055 14.162 132.729 14.162C133.683 14.162 134.619 13.748 135.753 13.01V14H139.155V13.19L138.219 13.118L137.967 12.848V5.018H137.139L134.583 5.882V6.584H135.753V12.326C135.159 12.506 134.655 12.614 134.205 12.614C132.963 12.614 132.495 12.002 132.495 10.598V5.018H131.631ZM146.474 2.264V5.18C145.826 5.054 145.268 5 144.782 5C142.046 5 140.138 6.926 140.138 9.824C140.138 12.416 141.614 14.162 143.63 14.162C144.548 14.162 145.448 13.748 146.474 12.992V14H149.84V13.208L148.922 13.136L148.67 12.848V0.698H147.842L145.16 1.544V2.264H146.474ZM146.474 12.29C145.898 12.506 145.394 12.632 144.962 12.632C143.468 12.632 142.55 11.462 142.55 9.446C142.55 7.304 143.612 6.008 145.142 6.008C145.52 6.008 145.952 6.098 146.474 6.278V12.29ZM155.847 17.942H160.653L160.671 17.114L159.537 17.042L159.267 16.79V13.91C159.861 13.982 160.347 14.018 160.743 14.018C163.659 14.018 165.513 12.146 165.513 9.266C165.513 6.746 164.019 5.018 162.111 5.018C161.229 5.018 160.329 5.414 159.267 6.152V5.072H158.457L155.829 5.918V6.638H157.071V16.754L156.819 17.024L155.847 17.114V17.942ZM159.267 12.92V6.908C159.807 6.692 160.275 6.566 160.689 6.566C162.147 6.566 163.065 7.646 163.065 9.572C163.065 11.732 162.003 13.046 160.419 13.046C160.059 13.046 159.681 13.01 159.267 12.92ZM172.241 12.974L172.475 14H175.679V13.208L174.725 13.118L174.491 12.866V8.204C174.491 5.9 173.645 5.018 171.125 5.018C168.749 5.018 167.201 6.08 167.201 7.106C167.201 7.592 167.489 7.772 168.029 7.772H169.685V6.08C170.009 6.008 170.279 5.972 170.549 5.972C171.737 5.972 172.259 6.548 172.259 7.844V8.384C168.497 9.23 166.787 9.752 166.787 11.822C166.787 13.19 167.759 14.162 169.145 14.162C170.117 14.162 171.089 13.748 172.241 12.974ZM172.241 12.236C171.539 12.596 170.963 12.776 170.495 12.776C169.667 12.776 169.163 12.254 169.163 11.426C169.163 10.238 170.117 9.77 172.241 9.302V12.236ZM176.38 14H181.348V13.19L180.07 13.118L179.8 12.848V7.682C180.358 7.34 180.79 7.178 181.078 7.178C181.6 7.178 181.978 7.376 182.248 7.826H183.184L183.418 5.342C183.022 5.144 182.626 5.036 182.23 5.036C182.104 5.036 181.96 5.054 181.834 5.072C181.096 5.594 180.376 6.206 179.728 6.908L179.8 5.072H178.936L176.29 5.918V6.638H177.586V12.848L177.334 13.118L176.38 13.19V14ZM184.947 6.548V11.786C184.947 12.704 184.965 13.28 185.595 13.694C186.009 13.982 186.495 14.09 187.089 14.09C187.827 14.09 188.763 13.91 189.843 13.514V12.65C189.483 12.74 189.105 12.776 188.673 12.776C187.485 12.776 187.179 12.308 187.179 11.03V6.548H189.843V5.468H187.179V3.236H186.045L185.109 5.108L183.777 5.864V6.548H184.947ZM190.444 14H194.89V13.19L194.098 13.118L193.846 12.848V6.908C194.53 6.71 195.106 6.602 195.556 6.602C196.69 6.602 197.176 7.214 197.176 8.546V12.848L196.924 13.118L196.15 13.19V14H200.56V13.19L199.606 13.118L199.372 12.848V8.024C199.372 6.026 198.58 5.036 196.924 5.036C196.132 5.036 195.124 5.432 193.846 6.134V5.072H192.982L190.39 5.918V6.638H191.614V12.848L191.362 13.118L190.444 13.19V14ZM209.622 11.768C208.578 12.434 207.606 12.758 206.652 12.758C204.87 12.758 203.754 11.534 203.754 9.464C203.754 9.446 203.754 9.428 203.754 9.41H209.64C209.64 9.302 209.64 9.176 209.64 9.068C209.64 6.476 208.254 5 205.896 5C203.304 5 201.45 6.89 201.45 9.644C201.45 12.362 203.214 14.162 205.896 14.162C207.156 14.162 208.416 13.802 209.622 13.1V11.768ZM207.282 8.456H203.844C203.898 6.89 204.636 5.99 205.716 5.99C206.706 5.99 207.282 6.764 207.282 8.258C207.282 8.33 207.282 8.384 207.282 8.456ZM210.746 14H215.714V13.19L214.436 13.118L214.166 12.848V7.682C214.724 7.34 215.156 7.178 215.444 7.178C215.966 7.178 216.344 7.376 216.614 7.826H217.55L217.784 5.342C217.388 5.144 216.992 5.036 216.596 5.036C216.47 5.036 216.326 5.054 216.2 5.072C215.462 5.594 214.742 6.206 214.094 6.908L214.166 5.072H213.302L210.656 5.918V6.638H211.952V12.848L211.7 13.118L210.746 13.19V14ZM224.91 5.45C223.992 5.144 223.092 5 222.192 5C219.978 5 218.664 6.134 218.664 7.682C218.664 8.762 219.348 9.392 220.68 10.058C222.084 10.76 223.056 10.94 223.056 11.912C223.056 12.704 222.498 13.208 221.526 13.208C220.986 13.208 220.482 13.082 220.014 12.83L219.834 12.632L219.636 11.084H218.538V13.748C219.654 14.054 220.644 14.198 221.508 14.198C223.83 14.198 225.18 13.046 225.18 11.228C225.18 9.932 224.154 9.446 222.552 8.672C221.49 8.15 220.878 7.844 220.878 7.088C220.878 6.422 221.364 6.008 222.246 6.008C222.66 6.008 223.056 6.116 223.434 6.296L223.65 6.494L223.83 7.844H224.91V5.45Z" fill="#6C6966"/>
<g clip-path="url(#clip0)">
<path d="M74.7386 62.5396C76.2148 62.1276 77.2447 61.0977 77.2447 59.4155V59.3812C77.2447 58.4886 76.9357 57.7333 76.3865 57.1496C75.6998 56.4974 74.6699 56.1197 73.3653 56.1197H68.662V66.419H70.5158V62.8486H72.816L75.3909 66.419H77.5537C77.588 66.419 74.7386 62.5396 74.7386 62.5396ZM70.5158 61.235V57.7676H73.1937C74.5669 57.7676 75.3565 58.3512 75.3565 59.4842V59.5185C75.3565 60.5484 74.4982 61.235 73.1937 61.235H70.5158ZM56.9894 57.7333V66.419H64.8856V64.8055H58.6717V62.0246H63.4437V60.4111H58.6717V57.7333H64.8856V56.1197H56.9894V57.7333ZM48.1664 56.1197H46.3468V66.419H53.5563V64.7711H48.1664V56.1197ZM34.331 57.8019H37.6954V66.419H39.5836V57.8019H42.9481V56.1197H34.3653V57.8019H34.331ZM29.1127 56.1197H30.8979V66.419H29.3873L23.757 59.1065V66.419H21.9718V56.1197H23.6541L29.147 63.2606L29.1127 56.1197ZM12.7711 66.4877L9.23504 58.2139L5.69894 66.4877H3.81074L8.37676 56.0511H10.0933L14.6593 66.4877H12.7711ZM0 70.5387H18.5387V52H0V70.5387Z" fill="#686058"/>
</g>
<g clip-path="url(#clip1)">
<path d="M277.451 68.2995H281.064V54.835H277.451V68.2995Z" fill="#686058"/>
<path d="M287.235 68.2992H283.622V54.8346H287.134V56.5065C287.942 55.1039 289.558 54.4756 290.994 54.4756C294.315 54.4756 295.841 56.8655 295.841 59.8165V68.2992H292.217V60.4449C292.217 58.9413 291.488 57.7632 289.748 57.7632C288.166 57.7632 287.235 58.9974 287.235 60.5571V68.2992Z" fill="#686058"/>
<path d="M275.24 58.0645V54.833H272.547V52.6338L268.979 54.171L268.957 64.3255C268.957 66.9287 270.584 68.4883 273.198 68.4883C274.264 68.4883 274.915 68.2976 275.24 68.1629V65.1558C275.05 65.2007 274.567 65.2568 274.129 65.2568C273.097 65.2568 272.547 64.8753 272.547 63.6972V58.0645H275.24Z" fill="#686058"/>
<path d="M277.451 50.5484V52.5569H281.097V49L277.451 50.5484Z" fill="#686058"/>
<path d="M304.335 64.5741C302.45 64.5741 301.115 63.2613 301.115 61.1519C301.115 59.0761 302.54 57.7633 304.335 57.7633C306.074 57.7633 307.488 59.0761 307.488 61.1519C307.488 63.2389 306.186 64.5741 304.335 64.5741ZM307.522 54.8347V56.428C307.05 55.5192 305.827 54.5879 303.707 54.5879C300.026 54.5879 297.468 57.595 297.468 61.1519C297.468 64.9332 300.139 67.6934 303.707 67.6934C305.637 67.6934 306.893 66.8519 307.432 65.9767V66.9641C307.432 69.556 306.153 70.7117 303.864 70.7117C302.517 70.7117 301.508 70.0497 301.014 69.0399L297.962 70.3414C298.904 72.2377 301.059 73.9095 303.976 73.9095C309.014 73.9095 311 70.5434 311 66.8519V54.8347H307.522Z" fill="#686058"/>
<path d="M262.079 58.0883L259.666 57.5721C258.567 57.3702 257.938 56.7306 257.938 55.833C257.938 54.7558 258.993 53.9143 260.328 53.9143C261.955 53.9143 263.324 54.8344 263.627 56.4164L266.904 55.0363C265.568 51.4682 262.269 50.8623 260.295 50.8623C256.861 50.8623 254.18 53.2074 254.18 56.2145C254.18 57.6619 254.741 58.8625 255.795 59.7377L255.806 59.7265L255.818 59.7489C256.558 60.3548 257.546 60.8149 258.757 61.0842L261.002 61.6003C262.651 61.9481 262.999 62.8121 262.999 63.4853C262.999 64.4391 262.236 65.404 260.53 65.404C258.455 65.404 257.49 64.1473 257.265 62.9468L254 64.3381C254.651 66.1446 256.513 68.4897 260.575 68.4897C264.94 68.4897 266.926 65.6958 266.926 63.1038C266.926 60.5568 265.153 58.7279 262.079 58.0883Z" fill="#686058"/>
</g>
<path d="M79.091 107.637C80.0001 107.637 80.7728 106.864 80.7728 105.909C80.7728 105 80.0001 104.228 79.091 104.228C78.1819 104.228 77.4092 105 77.4092 105.909C77.4546 106.864 78.1819 107.637 79.091 107.637Z" fill="#686058"/>
<path d="M75.7727 113.727V118.818H73.2273V113.727C73.2273 113 72.9545 112.318 72.4545 111.818C72 111.318 71.3182 111.045 70.5909 111.045C69.8636 111.045 69.2273 111.364 68.7273 111.818C68.2727 112.318 67.9545 112.955 67.9545 113.727V118.818H65.4545V113.727C65.4545 113 65.1818 112.318 64.6818 111.818C64.1818 111.318 63.5454 111.045 62.8182 111.045C62.0909 111.045 61.4545 111.364 60.9545 111.818C60.5 112.318 60.1818 112.955 60.1818 113.727V118.818H57.6364V108.682H60.1818V109.227C60.9545 108.727 61.8182 108.5 62.8182 108.5C64.2273 108.5 65.4545 109 66.4545 110.045C66.5454 110.136 66.6364 110.227 66.6818 110.318C66.7727 110.227 66.8636 110.136 66.9091 110.045C67.9091 109 69.1364 108.5 70.5454 108.5C71.9545 108.5 73.1818 109 74.1818 110.045C75.1818 111.091 75.7727 112.318 75.7727 113.727Z" fill="#686058"/>
<path d="M77.7273 118.818H80.5V108.682H77.7273V118.818Z" fill="#686058"/>
<mask id="mask0" mask-type="alpha" maskUnits="userSpaceOnUse" x="40" y="104" width="95" height="15">
<path fill-rule="evenodd" clip-rule="evenodd" d="M40 104.228H134.045V118.955H40V104.228Z" fill="white"/>
</mask>
<g mask="url(#mask0)">
<path d="M52.6364 118.82H55.3636V104.638H52.6364V118.82Z" fill="#686058"/>
</g>
<mask id="mask1" mask-type="alpha" maskUnits="userSpaceOnUse" x="40" y="104" width="95" height="15">
<path fill-rule="evenodd" clip-rule="evenodd" d="M40 104.228H134.045V118.955H40V104.228Z" fill="white"/>
</mask>
<g mask="url(#mask1)">
<path d="M47.0455 115.636C46.591 116.136 45.9092 116.409 45.1819 116.409C44.4546 116.409 43.8183 116.091 43.3183 115.636C42.8637 115.136 42.5455 114.5 42.5455 113.727C42.5455 113 42.8183 112.318 43.3183 111.818C43.8183 111.318 44.4546 111.045 45.1819 111.045C45.9092 111.045 46.591 111.364 47.0455 111.818C47.5455 112.318 47.8183 112.955 47.8183 113.727C47.8183 114.5 47.5001 115.136 47.0455 115.636ZM47.8183 108.682V109.227C47.0455 108.727 46.1819 108.5 45.1819 108.5C43.7728 108.5 42.5455 109 41.5455 110.045C40.5455 111.091 40.0455 112.318 40.0455 113.773C40.0455 115.227 40.5455 116.455 41.5455 117.5C42.5455 118.545 43.7728 119.045 45.1819 119.045C46.1819 119.045 47.0455 118.818 47.8183 118.318V118.864H50.3637V108.682H47.8183Z" fill="#686058"/>
</g>
<mask id="mask2" mask-type="alpha" maskUnits="userSpaceOnUse" x="40" y="104" width="95" height="15">
<path fill-rule="evenodd" clip-rule="evenodd" d="M40 104.228H134.045V118.955H40V104.228Z" fill="white"/>
</mask>
<g mask="url(#mask2)">
<path d="M90.0909 107.637C91 107.637 91.7727 106.864 91.7727 105.909C91.7727 105 91 104.228 90.0909 104.228C89.1818 104.228 88.4091 105 88.4091 105.909C88.4091 106.864 89.1818 107.637 90.0909 107.637Z" fill="#686058"/>
</g>
<mask id="mask3" mask-type="alpha" maskUnits="userSpaceOnUse" x="40" y="104" width="95" height="15">
<path fill-rule="evenodd" clip-rule="evenodd" d="M40 104.228H134.045V118.955H40V104.228Z" fill="white"/>
</mask>
<g mask="url(#mask3)">
<path d="M130.773 112.501L129.5 112.182C128.591 112.001 128.455 111.728 128.455 111.501C128.455 110.864 129.409 110.773 129.682 110.773C130.818 110.773 131.409 111.364 131.636 111.728L131.818 112.001L133.818 110.637L133.636 110.364C133.273 109.773 132.182 108.455 129.636 108.455C127.227 108.455 125.727 109.682 125.727 111.591C125.727 113.228 126.727 114.228 128.682 114.682L129.955 114.955C130.864 115.182 131.273 115.364 131.273 115.864C131.273 116.591 130.318 116.637 129.909 116.637C128.5 116.637 127.727 115.591 127.545 115.364L127.364 115.091L125.5 116.637L125.636 116.864C125.955 117.364 127.182 118.955 129.909 118.955C131.091 118.955 132.136 118.637 132.864 118.001C133.591 117.41 134 116.591 134 115.682C134.045 113.501 132.182 112.819 130.773 112.501Z" fill="#686058"/>
</g>
<path d="M135.545 105.409V118.818H138.273V111.455H139.909V108.682H138.273L138.227 105.409H135.545Z" fill="#686058"/>
<path d="M88.7273 118.818H91.4546V108.682H88.7273V118.818Z" fill="#686058"/>
<mask id="mask4" mask-type="alpha" maskUnits="userSpaceOnUse" x="88" y="104" width="47" height="15">
<path fill-rule="evenodd" clip-rule="evenodd" d="M88.4287 104.228H134.065V118.955H88.4287V104.228Z" fill="white"/>
</mask>
<g mask="url(#mask4)">
<path d="M111.656 108.683L109.156 116.046L106.656 108.683H104.111L107.565 118.819H110.792L114.202 108.683H111.656Z" fill="#686058"/>
</g>
<mask id="mask5" mask-type="alpha" maskUnits="userSpaceOnUse" x="88" y="104" width="47" height="15">
<path fill-rule="evenodd" clip-rule="evenodd" d="M88.4287 104.228H134.065V118.955H88.4287V104.228Z" fill="white"/>
</mask>
<g mask="url(#mask5)">
<path d="M119.52 111.046C120.247 111.046 120.929 111.364 121.383 111.819C121.611 112.046 121.838 112.364 121.974 112.682H117.065C117.201 112.364 117.383 112.046 117.656 111.819C118.111 111.364 118.792 111.046 119.52 111.046ZM124.656 113.728C124.656 112.273 124.156 111.046 123.156 110.001C122.156 108.955 120.929 108.455 119.52 108.455C118.111 108.455 116.883 108.955 115.883 110.001C114.883 111.046 114.383 112.273 114.383 113.728C114.383 115.182 114.883 116.41 115.883 117.455C116.883 118.501 118.111 119.001 119.52 119.001C120.929 119.001 122.156 118.501 123.156 117.455L121.383 115.637C120.929 116.137 120.247 116.41 119.52 116.41C118.792 116.41 118.111 116.091 117.656 115.637C117.429 115.41 117.201 115.091 117.065 114.773H124.656V113.728Z" fill="#686058"/>
</g>
<mask id="mask6" mask-type="alpha" maskUnits="userSpaceOnUse" x="88" y="104" width="47" height="15">
<path fill-rule="evenodd" clip-rule="evenodd" d="M88.4287 104.228H134.065V118.955H88.4287V104.228Z" fill="white"/>
</mask>
<g mask="url(#mask6)">
<path d="M90.1105 107.637C91.0196 107.637 91.7923 106.864 91.7923 105.909C91.7923 105 91.0196 104.228 90.1105 104.228C89.2014 104.228 88.4287 105 88.4287 105.955C88.4287 106.864 89.2014 107.637 90.1105 107.637Z" fill="#686058"/>
</g>
<mask id="mask7" mask-type="alpha" maskUnits="userSpaceOnUse" x="88" y="104" width="47" height="15">
<path fill-rule="evenodd" clip-rule="evenodd" d="M88.4287 104.228H134.065V118.955H88.4287V104.228Z" fill="white"/>
</mask>
<g mask="url(#mask7)">
<path d="M130.747 112.501L129.52 112.182C128.611 112.001 128.474 111.728 128.474 111.501C128.474 110.864 129.429 110.773 129.701 110.773C130.838 110.773 131.429 111.364 131.656 111.728L131.838 112.001L133.838 110.637L133.656 110.364C133.292 109.773 132.201 108.455 129.656 108.455C127.247 108.455 125.747 109.682 125.747 111.591C125.747 113.228 126.747 114.228 128.701 114.682L129.974 114.955C130.883 115.182 131.292 115.364 131.292 115.864C131.292 116.591 130.338 116.637 129.929 116.637C128.52 116.637 127.747 115.591 127.565 115.364L127.383 115.091L125.52 116.637L125.656 116.864C125.974 117.364 127.201 118.955 129.929 118.955C131.111 118.955 132.156 118.637 132.883 118.001C133.611 117.41 134.02 116.591 134.02 115.682C134.065 113.501 132.156 112.819 130.747 112.501Z" fill="#686058"/>
</g>
<path d="M135.545 105.409V118.818H138.273V111.455H139.909V108.682H138.273L138.227 105.409H135.545Z" fill="#686058"/>
<path d="M103.864 113.727V118.818H101.318V113.727C101.318 113 101.045 112.318 100.545 111.818C100.045 111.318 99.4091 111.045 98.6818 111.045C97.9546 111.045 97.3182 111.364 96.8182 111.818C96.3636 112.318 96.0455 112.955 96.0455 113.727V118.818H93.5V108.682H96.0455V109.227C96.8182 108.727 97.6818 108.5 98.6818 108.5C100.091 108.5 101.318 109 102.318 110.045C103.364 111.045 103.864 112.318 103.864 113.727Z" fill="#686058"/>
<mask id="mask8" mask-type="alpha" maskUnits="userSpaceOnUse" x="104" y="108" width="21" height="11">
<path fill-rule="evenodd" clip-rule="evenodd" d="M104.12 108.479H124.665V118.979H104.12V108.479Z" fill="white"/>
</mask>
<g mask="url(#mask8)">
<path d="M111.665 108.663L109.165 116.027L106.665 108.663H104.12L107.529 118.799H110.756L114.211 108.663H111.665Z" fill="#686058"/>
</g>
<mask id="mask9" mask-type="alpha" maskUnits="userSpaceOnUse" x="104" y="108" width="21" height="11">
<path fill-rule="evenodd" clip-rule="evenodd" d="M104.12 108.479H124.665V118.979H104.12V108.479Z" fill="white"/>
</mask>
<g mask="url(#mask9)">
<path d="M119.529 111.071C120.256 111.071 120.938 111.39 121.392 111.844C121.62 112.071 121.847 112.39 121.983 112.708H117.074C117.211 112.39 117.392 112.117 117.665 111.844C118.12 111.344 118.801 111.071 119.529 111.071ZM124.665 113.753C124.665 112.299 124.165 111.071 123.165 110.026C122.165 108.98 120.938 108.48 119.529 108.48C118.12 108.48 116.892 108.98 115.892 110.026C114.892 111.071 114.392 112.299 114.392 113.753C114.392 115.208 114.892 116.435 115.892 117.48C116.892 118.526 118.12 119.026 119.529 119.026C120.938 119.026 122.165 118.526 123.165 117.48L121.392 115.662C120.938 116.162 120.256 116.435 119.529 116.435C118.801 116.435 118.12 116.117 117.665 115.662C117.438 115.435 117.211 115.117 117.074 114.799H124.665V113.753Z" fill="#686058"/>
</g>
<g clip-path="url(#clip2)">
<path d="M132.165 55.2354H129.34V66.9002H132.165V55.2354Z" fill="#686058"/>
<path d="M194.539 66.9002L200.171 55.2354H197.271L193.164 63.7402L189.075 55.2354H186.175L191.807 66.9002H194.539Z" fill="#686058"/>
<path d="M120.698 66.9002L126.701 55.2354H123.653L119.174 63.7402L110.884 55.2354H107L118.059 66.9002H120.698Z" fill="#686058"/>
<path d="M205.282 55.2354L199.279 66.9002H202.345L206.806 58.3953L215.114 66.9002H218.979L207.921 55.2354H205.282Z" fill="#686058"/>
<path d="M139.618 59.2982V66.9002H136.812V55.2354H139.618L146.737 62.8193V55.2354H149.543V66.9002H146.737L139.618 59.2982Z" fill="#686058"/>
<path d="M156.717 59.2982V66.9002H153.892V55.2354H156.717L163.817 62.8193V55.2354H166.642V66.9002H163.817L156.717 59.2982Z" fill="#686058"/>
<path d="M177.515 64.823C180.005 64.823 181.622 63.5048 181.622 61.1213C181.622 58.8281 180.079 57.546 177.515 57.546C174.949 57.546 173.407 58.8281 173.407 61.1213C173.407 63.5229 175.005 64.823 177.515 64.823ZM170.526 61.0852C170.526 57.1849 173.147 55 177.515 55C181.882 55 184.503 57.1849 184.503 61.0852C184.503 65.148 181.771 67.3871 177.515 67.3871C173.258 67.3871 170.526 65.148 170.526 61.0852Z" fill="#686058"/>
</g>
<path d="M203.92 115.184C204.076 115.496 204.31 115.756 204.57 115.964C204.856 116.172 205.168 116.302 205.532 116.406C205.896 116.51 206.286 116.562 206.676 116.562C206.936 116.562 207.222 116.536 207.534 116.484C207.846 116.432 208.132 116.354 208.392 116.224C208.652 116.094 208.886 115.912 209.068 115.704C209.25 115.47 209.328 115.184 209.328 114.846C209.328 114.482 209.198 114.17 208.964 113.936C208.73 113.702 208.418 113.52 208.028 113.364C207.638 113.208 207.222 113.078 206.728 112.974C206.234 112.87 205.74 112.74 205.246 112.584C204.726 112.454 204.232 112.298 203.764 112.116C203.27 111.934 202.854 111.7 202.464 111.388C202.074 111.076 201.762 110.738 201.528 110.296C201.294 109.854 201.164 109.334 201.164 108.684C201.164 107.982 201.32 107.384 201.606 106.864C201.918 106.344 202.308 105.928 202.776 105.564C203.27 105.226 203.816 104.966 204.414 104.81C205.038 104.654 205.636 104.55 206.26 104.55C206.988 104.55 207.664 104.628 208.314 104.784C208.964 104.94 209.562 105.2 210.056 105.564C210.576 105.928 210.966 106.37 211.278 106.942C211.59 107.488 211.72 108.164 211.72 108.97H208.808C208.782 108.554 208.704 108.216 208.548 107.956C208.392 107.696 208.21 107.488 207.976 107.332C207.742 107.176 207.456 107.072 207.144 106.994C206.832 106.942 206.494 106.89 206.13 106.89C205.896 106.89 205.636 106.916 205.402 106.968C205.168 107.02 204.934 107.098 204.752 107.228C204.544 107.358 204.388 107.514 204.258 107.696C204.128 107.878 204.076 108.138 204.076 108.424C204.076 108.684 204.128 108.918 204.232 109.074C204.336 109.23 204.544 109.386 204.83 109.542C205.142 109.672 205.558 109.828 206.078 109.958C206.598 110.088 207.3 110.27 208.158 110.504C208.418 110.556 208.756 110.66 209.224 110.79C209.666 110.92 210.134 111.128 210.576 111.44C211.018 111.726 211.408 112.116 211.746 112.61C212.084 113.104 212.24 113.728 212.24 114.508C212.24 115.132 212.11 115.704 211.876 116.25C211.642 116.796 211.278 117.238 210.784 117.628C210.316 118.018 209.718 118.33 208.99 118.538C208.288 118.746 207.456 118.876 206.52 118.876C205.766 118.876 205.038 118.772 204.336 118.59C203.634 118.408 203.01 118.122 202.464 117.706C201.918 117.316 201.502 116.796 201.164 116.198C200.852 115.574 200.696 114.846 200.696 114.014H203.608C203.686 114.482 203.764 114.872 203.92 115.184Z" fill="#686058"/>
<path d="M216.582 104.887V118.563H213.852V104.887H216.582Z" fill="#686058"/>
<path d="M218.61 111.698C218.636 111.048 218.818 110.528 219.078 110.112C219.364 109.696 219.728 109.358 220.144 109.098C220.586 108.838 221.054 108.656 221.6 108.552C222.146 108.448 222.692 108.396 223.238 108.396C223.732 108.396 224.252 108.422 224.746 108.5C225.266 108.578 225.734 108.708 226.15 108.916C226.566 109.124 226.904 109.41 227.19 109.774C227.476 110.138 227.58 110.632 227.58 111.23V116.378C227.58 116.82 227.606 117.262 227.658 117.652C227.71 118.068 227.788 118.38 227.918 118.562H225.162C225.11 118.406 225.058 118.25 225.032 118.094C225.006 117.938 224.98 117.782 224.954 117.6C224.512 118.042 224.018 118.354 223.42 118.536C222.822 118.718 222.224 118.796 221.626 118.796C221.158 118.796 220.716 118.744 220.3 118.614C219.884 118.51 219.546 118.328 219.234 118.068C218.922 117.834 218.688 117.522 218.506 117.158C218.324 116.794 218.246 116.352 218.246 115.832C218.246 115.26 218.35 114.818 218.532 114.454C218.74 114.09 218.974 113.804 219.286 113.57C219.598 113.362 219.962 113.18 220.352 113.076C220.742 112.972 221.158 112.894 221.574 112.816C221.99 112.764 222.38 112.712 222.77 112.66C223.16 112.634 223.524 112.556 223.836 112.478C224.148 112.4 224.382 112.296 224.564 112.14C224.746 111.984 224.824 111.776 224.824 111.49C224.824 111.204 224.772 110.97 224.668 110.788C224.564 110.606 224.434 110.476 224.278 110.398C224.122 110.294 223.94 110.242 223.732 110.216C223.524 110.19 223.29 110.164 223.056 110.164C222.51 110.164 222.094 110.268 221.782 110.502C221.47 110.736 221.288 111.126 221.236 111.646H218.61V111.698ZM224.902 113.726C224.798 113.83 224.642 113.908 224.46 113.96C224.278 114.012 224.096 114.064 223.914 114.116C223.706 114.142 223.498 114.194 223.29 114.22C223.082 114.246 222.848 114.272 222.64 114.324C222.432 114.35 222.224 114.402 222.042 114.48C221.834 114.532 221.678 114.636 221.522 114.74C221.366 114.844 221.262 114.974 221.158 115.156C221.08 115.312 221.028 115.546 221.028 115.78C221.028 116.014 221.08 116.222 221.158 116.404C221.236 116.56 221.366 116.69 221.522 116.794C221.678 116.898 221.86 116.95 222.068 117.002C222.276 117.028 222.484 117.054 222.692 117.054C223.238 117.054 223.654 116.976 223.94 116.794C224.226 116.612 224.46 116.404 224.59 116.144C224.72 115.884 224.824 115.65 224.85 115.39C224.876 115.13 224.902 114.922 224.902 114.766V113.726Z" fill="#686058"/>
<path d="M232 116.092C232.13 116.3 232.286 116.482 232.468 116.612C232.65 116.742 232.884 116.846 233.118 116.898C233.378 116.95 233.638 117.002 233.898 117.002C234.08 117.002 234.288 116.976 234.496 116.924C234.704 116.872 234.886 116.82 235.068 116.716C235.25 116.612 235.38 116.482 235.51 116.326C235.614 116.17 235.692 115.962 235.692 115.728C235.692 115.312 235.432 115 234.886 114.818C234.34 114.61 233.586 114.402 232.624 114.194C232.234 114.116 231.844 114.012 231.454 113.882C231.064 113.752 230.752 113.596 230.44 113.414C230.154 113.206 229.92 112.972 229.738 112.66C229.556 112.348 229.478 111.984 229.478 111.568C229.478 110.918 229.608 110.398 229.842 110.008C230.102 109.592 230.414 109.28 230.83 109.046C231.246 108.812 231.688 108.656 232.208 108.552C232.728 108.448 233.248 108.396 233.768 108.396C234.314 108.396 234.834 108.448 235.328 108.552C235.822 108.656 236.29 108.838 236.68 109.072C237.07 109.306 237.408 109.644 237.668 110.034C237.928 110.424 238.084 110.944 238.136 111.568H235.562C235.536 111.048 235.328 110.684 234.964 110.502C234.6 110.32 234.184 110.216 233.69 110.216C233.534 110.216 233.378 110.216 233.196 110.242C233.014 110.268 232.858 110.294 232.702 110.372C232.546 110.424 232.442 110.528 232.338 110.658C232.234 110.788 232.182 110.944 232.182 111.152C232.182 111.386 232.26 111.594 232.442 111.75C232.624 111.906 232.858 112.036 233.144 112.114C233.43 112.218 233.768 112.296 234.132 112.374C234.496 112.452 234.886 112.53 235.25 112.634C235.64 112.712 236.03 112.842 236.42 112.972C236.784 113.102 237.122 113.258 237.434 113.492C237.72 113.7 237.954 113.96 238.136 114.272C238.318 114.584 238.396 114.974 238.396 115.442C238.396 116.092 238.266 116.638 238.006 117.08C237.746 117.522 237.408 117.886 236.992 118.146C236.576 118.406 236.082 118.614 235.536 118.718C234.99 118.822 234.444 118.874 233.872 118.874C233.3 118.874 232.728 118.822 232.182 118.692C231.636 118.588 231.142 118.38 230.726 118.12C230.31 117.86 229.946 117.496 229.66 117.054C229.374 116.612 229.244 116.066 229.218 115.39H231.792C231.818 115.65 231.896 115.884 232 116.092Z" fill="#686058"/>
<path d="M242.738 104.887V110.035H242.79C243.128 109.463 243.57 109.047 244.116 108.787C244.662 108.527 245.182 108.397 245.676 108.397C246.404 108.397 247.002 108.501 247.47 108.683C247.938 108.891 248.302 109.151 248.562 109.515C248.822 109.879 249.03 110.295 249.134 110.789C249.238 111.283 249.29 111.855 249.29 112.453V118.537H246.56V112.973C246.56 112.167 246.43 111.543 246.17 111.153C245.91 110.763 245.468 110.555 244.818 110.555C244.064 110.555 243.544 110.763 243.206 111.205C242.868 111.647 242.712 112.375 242.712 113.389V118.589H239.982V104.887H242.738Z" fill="#686058"/>
<path d="M254.49 115.625V118.563H251.5V115.625H254.49Z" fill="#686058"/>
<path d="M262.134 108.657V110.477H260.132V115.391C260.132 115.859 260.21 116.145 260.366 116.301C260.522 116.457 260.834 116.535 261.276 116.535C261.432 116.535 261.588 116.535 261.718 116.509C261.848 116.509 262.004 116.483 262.108 116.457V118.563C261.874 118.589 261.614 118.615 261.354 118.641C261.068 118.641 260.808 118.667 260.522 118.667C260.106 118.667 259.69 118.641 259.326 118.589C258.962 118.537 258.624 118.407 258.338 118.251C258.052 118.095 257.818 117.861 257.662 117.549C257.506 117.237 257.402 116.847 257.402 116.353V110.477H255.764V108.657H257.402V105.693H260.132V108.657H262.134Z" fill="#686058"/>
<path d="M266.346 116.196C266.762 116.586 267.334 116.794 268.114 116.794C268.66 116.794 269.128 116.664 269.544 116.378C269.934 116.092 270.194 115.806 270.272 115.494H272.664C272.274 116.69 271.702 117.522 270.896 118.042C270.116 118.562 269.154 118.796 268.01 118.796C267.23 118.796 266.528 118.666 265.904 118.432C265.28 118.172 264.76 117.834 264.318 117.366C263.876 116.898 263.538 116.352 263.304 115.728C263.07 115.078 262.94 114.376 262.94 113.622C262.94 112.894 263.07 112.192 263.304 111.542C263.538 110.892 263.902 110.346 264.344 109.878C264.786 109.41 265.332 109.046 265.956 108.786C266.58 108.526 267.256 108.396 268.01 108.396C268.842 108.396 269.596 108.552 270.22 108.89C270.844 109.228 271.364 109.644 271.754 110.19C272.144 110.736 272.456 111.36 272.638 112.062C272.82 112.764 272.872 113.492 272.82 114.272H265.67C265.722 115.156 265.956 115.78 266.346 116.196ZM269.44 110.97C269.102 110.606 268.608 110.424 267.958 110.424C267.516 110.424 267.152 110.502 266.866 110.632C266.58 110.788 266.346 110.97 266.164 111.178C265.982 111.386 265.878 111.62 265.8 111.88C265.722 112.114 265.696 112.348 265.67 112.53H270.09C269.986 111.854 269.752 111.334 269.44 110.97Z" fill="#686058"/>
<path d="M277.032 108.656V110.034H277.084C277.422 109.462 277.864 109.046 278.436 108.786C278.982 108.526 279.554 108.396 280.126 108.396C280.854 108.396 281.452 108.5 281.92 108.682C282.388 108.89 282.752 109.15 283.012 109.514C283.272 109.878 283.48 110.294 283.584 110.788C283.688 111.282 283.74 111.854 283.74 112.452V118.536H281.01V112.972C281.01 112.166 280.88 111.542 280.62 111.152C280.36 110.762 279.918 110.554 279.268 110.554C278.514 110.554 277.994 110.762 277.656 111.204C277.318 111.646 277.162 112.374 277.162 113.388V118.588H274.432V108.656H277.032Z" fill="#686058"/>
<path d="M185.304 112.505L186.63 111.153L191.258 106.551L188.32 103.613L180.208 111.725L183.146 114.663L185.304 112.505Z" fill="#686058"/>
<path d="M192.585 107.873L187.971 112.487L191.813 116.33L196.428 111.715L192.585 107.873Z" fill="#686058"/>
<path d="M186.633 113.841L184.482 115.992L188.324 119.835L190.475 117.684L186.633 113.841Z" fill="#686058"/>
<defs>
<clipPath id="clip0">
<rect width="78" height="18.5387" fill="white" transform="translate(0 52)"/>
</clipPath>
<clipPath id="clip1">
<rect width="57" height="24.9095" fill="white" transform="translate(254 49)"/>
</clipPath>
<clipPath id="clip2">
<rect width="112" height="12.3871" fill="white" transform="translate(107 55)"/>
</clipPath>
</defs>
</svg>
