<svg width="375" height="276" viewBox="0 0 375 276" fill="none" xmlns="http://www.w3.org/2000/svg">
<rect width="375" height="276" fill="#D7D2CB"/>
<path d="M140.288 37.922V41.108H141.53L141.818 39.182L142.106 38.948H144.266V48.74L143.96 49.028L142.79 49.118V50H148.172V49.118L147.002 49.028L146.696 48.74V38.948H148.856L149.126 39.182L149.432 41.108H150.674V37.922H140.288ZM151.368 50H156.336V49.19L155.058 49.118L154.788 48.848V43.682C155.346 43.34 155.778 43.178 156.066 43.178C156.588 43.178 156.966 43.376 157.236 43.826H158.172L158.406 41.342C158.01 41.144 157.614 41.036 157.218 41.036C157.092 41.036 156.948 41.054 156.822 41.072C156.084 41.594 155.364 42.206 154.716 42.908L154.788 41.072H153.924L151.278 41.918V42.638H152.574V48.848L152.322 49.118L151.368 49.19V50ZM161.374 41.018L158.836 41.882V42.584H160.006V47.084C160.006 49.154 160.798 50.162 162.472 50.162C163.426 50.162 164.362 49.748 165.496 49.01V50H168.898V49.19L167.962 49.118L167.71 48.848V41.018H166.882L164.326 41.882V42.584H165.496V48.326C164.902 48.506 164.398 48.614 163.948 48.614C162.706 48.614 162.238 48.002 162.238 46.598V41.018H161.374ZM176.325 41.45C175.407 41.144 174.507 41 173.607 41C171.393 41 170.079 42.134 170.079 43.682C170.079 44.762 170.763 45.392 172.095 46.058C173.499 46.76 174.471 46.94 174.471 47.912C174.471 48.704 173.913 49.208 172.941 49.208C172.401 49.208 171.897 49.082 171.429 48.83L171.249 48.632L171.051 47.084H169.953V49.748C171.069 50.054 172.059 50.198 172.923 50.198C175.245 50.198 176.595 49.046 176.595 47.228C176.595 45.932 175.569 45.446 173.967 44.672C172.905 44.15 172.293 43.844 172.293 43.088C172.293 42.422 172.779 42.008 173.661 42.008C174.075 42.008 174.471 42.116 174.849 42.296L175.065 42.494L175.245 43.844H176.325V41.45ZM178.778 42.548V47.786C178.778 48.704 178.796 49.28 179.426 49.694C179.84 49.982 180.326 50.09 180.92 50.09C181.658 50.09 182.594 49.91 183.674 49.514V48.65C183.314 48.74 182.936 48.776 182.504 48.776C181.316 48.776 181.01 48.308 181.01 47.03V42.548H183.674V41.468H181.01V39.236H179.876L178.94 41.108L177.608 41.864V42.548H178.778ZM192.555 47.768C191.511 48.434 190.539 48.758 189.585 48.758C187.803 48.758 186.687 47.534 186.687 45.464C186.687 45.446 186.687 45.428 186.687 45.41H192.573C192.573 45.302 192.573 45.176 192.573 45.068C192.573 42.476 191.187 41 188.829 41C186.237 41 184.383 42.89 184.383 45.644C184.383 48.362 186.147 50.162 188.829 50.162C190.089 50.162 191.349 49.802 192.555 49.1V47.768ZM190.215 44.456H186.777C186.831 42.89 187.569 41.99 188.649 41.99C189.639 41.99 190.215 42.764 190.215 44.258C190.215 44.33 190.215 44.384 190.215 44.456ZM200.158 38.264V41.18C199.51 41.054 198.952 41 198.466 41C195.73 41 193.822 42.926 193.822 45.824C193.822 48.416 195.298 50.162 197.314 50.162C198.232 50.162 199.132 49.748 200.158 48.992V50H203.524V49.208L202.606 49.136L202.354 48.848V36.698H201.526L198.844 37.544V38.264H200.158ZM200.158 48.29C199.582 48.506 199.078 48.632 198.646 48.632C197.152 48.632 196.234 47.462 196.234 45.446C196.234 43.304 197.296 42.008 198.826 42.008C199.204 42.008 199.636 42.098 200.158 42.278V48.29ZM211.943 36.698L209.279 37.544V38.246H210.575V49.982L212.573 50.018C212.735 50.018 212.897 50.018 213.059 50.018C214.445 50.018 215.453 49.874 216.119 49.586C217.973 48.758 218.963 47.21 218.963 45.122C218.963 42.692 217.469 41.036 215.417 41.036C214.625 41.036 213.779 41.306 212.807 41.846V36.698H211.943ZM212.807 49.028V42.584C213.239 42.494 213.617 42.44 213.941 42.44C215.597 42.44 216.551 43.538 216.551 45.59C216.551 47.948 215.561 49.046 213.383 49.046C213.203 49.046 213.005 49.046 212.807 49.028ZM219.434 41.252V42.026L220.514 42.188L223.718 50.216C223.268 51.296 222.782 52.034 222.314 52.412L220.748 51.332C220.154 51.638 219.812 52.088 219.812 52.61C219.812 53.294 220.478 53.942 221.36 53.942C222.548 53.942 223.826 52.754 224.708 50.63L228.182 42.188L229.154 42.026V41.252H225.698V42.026L226.652 42.134L226.814 42.404L224.852 47.48L222.908 42.386L223.088 42.134L224.006 42.026V41.252H219.434ZM231.884 41.216C231.11 41.216 230.48 41.846 230.48 42.638C230.48 43.43 231.11 44.06 231.884 44.06C232.658 44.06 233.288 43.43 233.288 42.638C233.288 41.846 232.658 41.216 231.884 41.216ZM231.884 47.282C231.11 47.282 230.48 47.912 230.48 48.722C230.48 49.514 231.128 50.144 231.884 50.144C232.658 50.144 233.288 49.514 233.288 48.722C233.288 47.912 232.658 47.282 231.884 47.282Z" fill="#6C6966"/>
<g clip-path="url(#clip0)">
<path d="M121.759 99.4822C121.628 99.1569 121.427 98.8642 121.171 98.6242C120.919 98.383 120.621 98.1938 120.296 98.0677C119.613 97.8205 118.865 97.8205 118.181 98.0677C117.856 98.1939 117.558 98.383 117.306 98.6242C117.05 98.8642 116.849 99.157 116.718 99.4822C116.456 100.181 116.456 100.951 116.718 101.649C116.992 102.314 117.518 102.842 118.181 103.12C118.518 103.253 118.877 103.32 119.238 103.316C119.6 103.32 119.959 103.253 120.296 103.12C120.959 102.842 121.485 102.314 121.759 101.649C122.021 100.951 122.021 100.181 121.759 99.4822Z" fill="#686058"/>
<path d="M107.755 103.092H112.124L112.124 103.092V88.0236H107.755V103.092Z" fill="#686058"/>
<path d="M111.9 81.7217C111.647 81.4974 111.352 81.3259 111.032 81.2173C110.679 81.1015 110.31 81.0447 109.939 81.0492C109.568 81.0445 109.198 81.1037 108.847 81.2242C108.525 81.3384 108.229 81.5171 107.979 81.7492C107.737 81.9685 107.544 82.2356 107.411 82.5336C107.283 82.8346 107.219 83.1589 107.222 83.486C107.219 83.8131 107.283 84.1373 107.411 84.4383C107.544 84.7364 107.737 85.0035 107.979 85.2227C108.229 85.4548 108.525 85.6335 108.847 85.7477C109.198 85.8682 109.568 85.9275 109.939 85.9228C110.311 85.9276 110.681 85.8673 111.032 85.7446C111.355 85.6275 111.65 85.4451 111.9 85.2089C112.144 84.9821 112.337 84.7064 112.467 84.3999C112.596 84.0832 112.66 83.7441 112.656 83.4022C112.66 83.0841 112.595 82.769 112.467 82.4778C112.334 82.1884 112.141 81.9306 111.9 81.7217Z" fill="#686058"/>
<path d="M102.376 91.5526C102.028 90.973 101.602 90.4439 101.109 89.9805C100.606 89.5123 100.044 89.1131 99.4354 88.7935C98.8028 88.4599 98.1298 88.2093 97.433 88.0479C95.9469 87.7163 94.406 87.7163 92.92 88.0479C92.2199 88.2096 91.5435 88.4602 90.907 88.7935C90.2954 89.1126 89.7291 89.5119 89.2232 89.9808C88.2237 90.9164 87.5069 92.1137 87.1541 93.4366C86.7991 94.8286 86.7991 96.2876 87.1541 97.6796C87.5067 99.0025 88.2236 100.2 89.2232 101.135C89.7293 101.604 90.2957 102.003 90.9074 102.322C91.5437 102.656 92.2202 102.906 92.9203 103.068C93.6611 103.236 94.4187 103.32 95.1785 103.316C95.937 103.32 96.6934 103.236 97.433 103.068C98.1298 102.906 98.8028 102.656 99.4354 102.322C100.044 102.002 100.606 101.603 101.109 101.135C101.602 100.672 102.028 100.143 102.376 99.5631C102.73 98.9761 102.999 98.3418 103.174 97.6793C103.529 96.2872 103.529 94.8283 103.174 93.4362C102.999 92.7738 102.73 92.1396 102.376 91.5526ZM98.7468 97.2698C98.5737 97.7641 98.2981 98.2162 97.938 98.5965C97.5931 98.9639 97.1741 99.2539 96.7088 99.4474C95.7225 99.8256 94.6312 99.8256 93.6449 99.4474C93.1768 99.2536 92.7546 98.9637 92.4056 98.5965C92.0414 98.2174 91.7621 97.7651 91.5863 97.2698C91.2222 96.1574 91.2222 94.958 91.5863 93.8457C91.7621 93.3503 92.0414 92.898 92.4056 92.5189C92.7545 92.1517 93.1767 91.8618 93.6449 91.6681C94.1328 91.4745 94.6536 91.3782 95.1785 91.3844C95.7023 91.3779 96.2222 91.4743 96.7088 91.6681C97.1742 91.8615 97.5931 92.1515 97.938 92.5189C98.2981 92.8992 98.5738 93.3513 98.7468 93.8457C99.1063 94.9587 99.1063 96.1567 98.7468 97.2698Z" fill="#686058"/>
<path d="M77.9452 95.3637H77.945L76.7204 98.2748L75.5776 95.4674H75.5777L72.547 88.0233H68.0422V88.0337L71.1648 95.4674L74.3677 103.092H78.8776L78.8773 103.092L82.094 95.4674H82.0943L85.2352 88.0233H81.0338L77.9452 95.3637Z" fill="#686058"/>
</g>
<g clip-path="url(#clip1)">
<path d="M36.9261 158.047H32.6061C32.4835 158.046 32.3613 158.034 32.2409 158.011C32.1689 158.001 32.1035 157.964 32.0585 157.907C32.0136 157.85 31.9926 157.778 32 157.706C32 157.619 32.0458 157.508 32.2618 157.473L32.7527 157.394C32.9234 157.367 33.0903 157.321 33.2502 157.255C33.3162 157.234 33.375 157.194 33.4201 157.141C33.4651 157.089 33.4947 157.024 33.5055 156.956V156.939C33.5055 156.929 33.5172 156.852 33.5277 156.507C33.5369 156.234 33.5447 155.874 33.55 155.403C33.5552 154.932 33.5709 154.443 33.5709 153.878C33.5709 153.312 33.5879 152.735 33.5919 152.146C33.5958 151.557 33.5984 150.982 33.5984 150.422V148.939C33.6032 148.798 33.5856 148.658 33.546 148.522C33.5191 148.435 33.4661 148.357 33.3942 148.3C33.316 148.244 33.2266 148.206 33.1324 148.189C33.0159 148.165 32.8705 148.144 32.7187 148.126C32.6748 148.123 32.631 148.118 32.5878 148.11C32.5214 148.102 32.456 148.087 32.3927 148.066C32.3346 148.047 32.2788 148.021 32.2265 147.99C32.1987 147.976 32.1752 147.955 32.1584 147.929C32.1416 147.903 32.1321 147.873 32.1309 147.842C32.1315 147.782 32.1526 147.724 32.1907 147.678C32.2289 147.631 32.2817 147.6 32.3404 147.588C32.4809 147.544 32.6266 147.52 32.7737 147.514C32.9481 147.505 33.1229 147.505 33.2973 147.514C33.4688 147.524 33.6128 147.528 33.7267 147.528C34.1495 147.528 34.5763 147.509 34.9926 147.471C35.4089 147.433 35.8474 147.414 36.2833 147.414C36.6916 147.417 37.0985 147.46 37.4982 147.543C37.9101 147.626 38.3072 147.77 38.6764 147.97C39.0311 148.162 39.3367 148.434 39.5692 148.763C39.8102 149.122 39.9329 149.547 39.92 149.979C39.9377 150.486 39.7536 150.98 39.4081 151.351C39.0938 151.678 38.7093 151.929 38.2836 152.086C38.3366 152.108 38.3908 152.126 38.446 152.142C38.5939 152.187 38.7078 152.222 38.7759 152.251C39.3251 152.453 39.8101 152.798 40.1805 153.251C40.5435 153.716 40.7336 154.293 40.7185 154.883C40.73 155.367 40.6282 155.847 40.4214 156.284C40.2324 156.665 39.9599 156.998 39.6241 157.259C39.2765 157.522 38.882 157.717 38.4617 157.833C38.0034 157.959 37.531 158.026 37.0557 158.033C37.0132 158.042 36.9697 158.047 36.9261 158.047ZM35.4036 152.636C35.3123 152.636 35.2224 152.658 35.1418 152.701C35.1037 152.726 35.0736 152.761 35.055 152.803C35.0364 152.844 35.0302 152.89 35.0371 152.935V155.839C35.0375 156.065 35.0537 156.291 35.0855 156.514C35.1123 156.736 35.2206 156.94 35.3892 157.087C35.549 157.219 35.7463 157.299 35.9535 157.314C36.168 157.341 36.3839 157.356 36.6001 157.357C37.4511 157.357 38.0899 157.14 38.4983 156.711C38.9068 156.281 39.1149 155.717 39.1149 155.033C39.1213 154.62 39.0149 154.214 38.8073 153.857C38.6593 153.591 38.4541 153.361 38.2064 153.184C37.9696 153.022 37.7091 152.897 37.434 152.814C37.1495 152.729 36.856 152.677 36.5596 152.659C36.2532 152.641 35.9469 152.63 35.6432 152.63L35.4036 152.636ZM36.2127 148.054C36.1097 148.054 35.9971 148.056 35.8749 148.062C35.7566 148.066 35.6392 148.084 35.5254 148.117C35.4221 148.145 35.3252 148.192 35.24 148.257C35.1652 148.319 35.1181 148.408 35.1091 148.505C35.0904 148.61 35.0791 148.715 35.0751 148.821C35.0751 148.93 35.0672 149.034 35.0672 149.138V151.861C35.0672 151.874 35.0764 151.91 35.1588 151.973C35.2556 152.03 35.3675 152.056 35.4796 152.048H35.9626C36.2859 152.049 36.6082 152.011 36.9222 151.934C37.205 151.866 37.4719 151.744 37.7076 151.574C37.9362 151.402 38.1202 151.177 38.2444 150.919C38.3848 150.615 38.4529 150.282 38.4433 149.947C38.4433 149.331 38.2522 148.856 37.8752 148.536C37.4626 148.204 36.9443 148.033 36.4156 148.054H36.2127Z" fill="#686058"/>
<path d="M44.5804 158.047C44.4783 158.047 44.3709 158.047 44.2636 158.033C44.1863 158.033 44.0554 157.981 44.0554 157.749C44.0554 157.678 44.0934 157.581 44.2727 157.524C44.3958 157.484 44.5345 157.446 44.7034 157.408C44.8673 157.371 45.0284 157.322 45.1852 157.262C45.3237 157.212 45.4434 157.12 45.5281 157C45.6154 156.836 45.6654 156.655 45.6748 156.47C45.7048 156.192 45.7192 155.914 45.718 155.635C45.718 155.33 45.718 155.01 45.7036 154.688C45.6892 154.366 45.6892 154.098 45.6892 153.853C45.6892 153.133 45.6892 152.383 45.6748 151.558C45.6656 150.795 45.6604 150.023 45.6604 149.263V148.881C45.6599 148.842 45.6555 148.803 45.6473 148.765C45.6289 148.529 45.553 148.384 45.4143 148.312C45.2603 148.233 45.0937 148.182 44.922 148.161C44.727 148.136 44.5633 148.113 44.422 148.089C44.202 148.054 44.1601 147.919 44.1601 147.813C44.1573 147.764 44.1698 147.716 44.1959 147.674C44.2219 147.633 44.2602 147.601 44.3055 147.582C44.4013 147.545 44.5016 147.52 44.6039 147.508C44.7224 147.492 44.842 147.487 44.9613 147.492C45.0835 147.497 45.1869 147.5 45.2716 147.5C45.5884 147.5 45.9143 147.506 46.239 147.521C46.5636 147.535 46.8935 147.542 47.2169 147.542C47.8557 147.542 48.5024 147.542 49.1399 147.521C49.7775 147.5 50.4215 147.5 51.0643 147.5H51.2214C51.3294 147.5 51.4372 147.509 51.5434 147.529C51.5959 147.533 51.646 147.553 51.6871 147.585C51.7282 147.618 51.7584 147.663 51.7738 147.713C51.81 147.891 51.8293 148.072 51.8314 148.254C51.8314 148.34 51.8314 148.442 51.8249 148.563C51.8183 148.683 51.817 148.81 51.817 148.996C51.8175 149.177 51.8057 149.359 51.7817 149.538C51.7712 149.61 51.7398 149.831 51.5827 149.85C51.5207 149.847 51.461 149.825 51.4115 149.788C51.362 149.751 51.3249 149.699 51.3052 149.64C51.2396 149.501 51.1819 149.359 51.1324 149.214C51.0761 149.054 51.0119 148.895 50.9412 148.741C50.8852 148.605 50.7863 148.492 50.6598 148.418C50.5487 148.362 50.43 148.323 50.3076 148.302C50.1316 148.267 49.9537 148.241 49.7748 148.225C49.5759 148.207 49.369 148.195 49.1609 148.19C48.9527 148.185 48.7472 148.19 48.5587 148.19H47.9343C47.7704 148.178 47.6072 148.221 47.4708 148.313C47.3658 148.397 47.2861 148.509 47.2404 148.636C47.188 148.785 47.1584 148.941 47.1527 149.098C47.1423 149.274 47.1383 149.444 47.1383 149.601C47.1383 149.924 47.1383 150.246 47.1449 150.57C47.1514 150.893 47.1527 151.216 47.1527 151.54V151.867C47.1507 151.959 47.1586 152.051 47.1763 152.141C47.212 152.177 47.2575 152.202 47.3072 152.213C47.3849 152.232 47.4642 152.243 47.5441 152.247C47.6332 152.247 47.7169 152.247 47.806 152.247C47.895 152.247 47.9644 152.239 48.0233 152.239C48.2851 152.239 48.5377 152.239 48.8087 152.232C49.0677 152.228 49.3262 152.206 49.5824 152.168C49.6961 152.158 49.8062 152.123 49.905 152.066C50.0038 152.008 50.0889 151.93 50.1545 151.837C50.2786 151.634 50.3489 151.403 50.3587 151.165V151.144C50.3875 151.086 50.4194 151.029 50.4543 150.974C50.4771 150.94 50.5086 150.912 50.5457 150.894C50.5827 150.876 50.6239 150.868 50.665 150.871C50.6923 150.868 50.7199 150.871 50.746 150.88C50.7721 150.888 50.7961 150.902 50.8167 150.92C50.8373 150.938 50.854 150.961 50.8657 150.985C50.8775 151.01 50.884 151.037 50.8849 151.065C50.8949 151.166 50.8997 151.267 50.8993 151.368C50.8993 151.558 50.8993 151.761 50.8849 151.969C50.8705 152.177 50.8719 152.372 50.8719 152.566C50.8719 152.76 50.8719 152.959 50.8849 153.155C50.898 153.352 50.8993 153.56 50.8993 153.75C50.8993 153.797 50.8993 153.854 50.9072 153.924C50.9112 153.997 50.9086 154.07 50.8993 154.142C50.8916 154.211 50.8659 154.276 50.8247 154.332C50.8016 154.361 50.772 154.384 50.7383 154.399C50.7046 154.414 50.6678 154.421 50.631 154.418C50.5836 154.417 50.5379 154.4 50.5004 154.371C50.463 154.342 50.4359 154.302 50.4228 154.256C50.3795 154.156 50.3474 154.052 50.3273 153.945C50.3024 153.835 50.2815 153.725 50.2618 153.615C50.2527 153.54 50.2315 153.467 50.199 153.399L50.1911 153.382C50.1779 153.304 50.1475 153.231 50.1022 153.167C50.0569 153.103 49.9978 153.051 49.9293 153.013C49.7639 152.92 49.5828 152.859 49.3952 152.833C49.1786 152.801 48.9596 152.786 48.7407 152.791C48.5076 152.791 48.3021 152.799 48.1215 152.799C48.0756 152.799 48.0154 152.799 47.9408 152.799L47.6986 152.814C47.6148 152.814 47.5337 152.825 47.4538 152.834C47.3966 152.84 47.3398 152.85 47.2836 152.862C47.2666 152.862 47.2313 152.871 47.2103 152.95C47.1912 153.031 47.1776 153.114 47.1697 153.197C47.1626 153.289 47.1626 153.382 47.1697 153.475C47.1697 153.57 47.1697 153.638 47.1697 153.676V155.938C47.1697 156.043 47.1697 156.158 47.1776 156.285C47.1819 156.412 47.1959 156.538 47.2195 156.662C47.2402 156.781 47.2768 156.895 47.3281 157.004C47.3718 157.1 47.4459 157.179 47.5389 157.229C47.6597 157.276 47.7867 157.305 47.9159 157.316C48.1044 157.339 48.3087 157.355 48.5155 157.365C48.7223 157.376 48.9331 157.381 49.1321 157.386C49.3311 157.391 49.4711 157.386 49.5562 157.386H49.9961C50.127 157.386 50.2579 157.386 50.4045 157.372C50.5511 157.357 50.6991 157.351 50.8352 157.336C50.9621 157.324 51.088 157.304 51.2122 157.275C51.3085 157.254 51.4008 157.217 51.4858 157.168C51.6293 157.067 51.749 156.937 51.8367 156.785C51.9505 156.605 52.0579 156.423 52.1548 156.246C52.2516 156.069 52.3498 155.908 52.4362 155.777C52.5383 155.622 52.6352 155.546 52.7321 155.546C52.9114 155.546 52.9651 155.632 52.9795 155.705C52.9953 155.792 52.9824 155.881 52.9428 155.959C52.9428 155.976 52.9337 156.012 52.9153 156.098C52.9057 156.156 52.8894 156.214 52.8669 156.268C52.8669 156.287 52.8381 156.383 52.8015 156.547C52.7648 156.711 52.7229 156.89 52.6797 157.071C52.6365 157.251 52.5841 157.5 52.5174 157.804L52.5095 157.823C52.4652 157.888 52.4049 157.94 52.3344 157.975C52.264 158.009 52.1859 158.025 52.1076 158.02H45.4051C45.2742 158.02 45.1433 158.02 45.0045 158.033C44.8657 158.046 44.7217 158.047 44.5804 158.047Z" fill="#686058"/>
<path d="M66.0364 158.703C65.9397 158.704 65.8432 158.699 65.7471 158.689C65.6502 158.68 65.569 158.669 65.5023 158.66C64.7338 158.538 64.0189 158.19 63.4483 157.661C62.891 157.13 62.4614 156.48 62.1916 155.759C62.0345 155.464 61.8839 155.146 61.7452 154.82C61.6178 154.517 61.4627 154.227 61.2817 153.952C61.1207 153.708 60.9188 153.493 60.6848 153.318C60.4431 153.149 60.1533 153.063 59.8588 153.073C59.6964 153.073 59.5969 153.103 59.5603 153.158C59.5097 153.295 59.4905 153.441 59.504 153.586V156.522C59.4936 156.704 59.5231 156.885 59.5904 157.054C59.6386 157.158 59.7194 157.245 59.8208 157.3C59.9373 157.358 60.0632 157.395 60.1926 157.408C60.3418 157.427 60.5146 157.456 60.707 157.494H60.7228C60.7512 157.502 60.781 157.504 60.8105 157.501C60.8875 157.501 60.9642 157.512 61.0383 157.533C61.0836 157.543 61.1233 157.571 61.1495 157.609C61.1757 157.648 61.1864 157.695 61.1796 157.741C61.1796 157.941 61.0815 158.012 60.999 158.037C60.8543 158.072 60.7054 158.088 60.5565 158.083C60.2188 158.083 59.8732 158.066 59.5289 158.033C58.9073 157.967 58.2807 157.962 57.6582 158.018C57.3676 158.047 57.0717 158.062 56.7785 158.062C56.686 158.07 56.5928 158.055 56.5075 158.018C56.4499 157.982 56.4237 157.895 56.4237 157.734C56.4237 157.69 56.4391 157.647 56.4673 157.613C56.4955 157.578 56.5346 157.555 56.5782 157.546C56.6747 157.517 56.7731 157.494 56.8727 157.479C56.9905 157.461 57.1149 157.439 57.2484 157.415C57.374 157.392 57.4948 157.347 57.6058 157.284C57.7158 157.223 57.8092 157.136 57.8781 157.03C57.9551 156.897 57.9915 156.745 57.9828 156.592V153.658C57.9828 152.872 57.9894 152.056 58.0038 151.248C58.0169 150.462 58.0247 149.656 58.0247 148.839C58.0334 148.696 57.9973 148.553 57.9213 148.431C57.8571 148.338 57.7656 148.267 57.6595 148.229C57.5433 148.187 57.4216 148.162 57.2982 148.154L56.9971 148.131H56.9225C56.8176 148.125 56.714 148.104 56.6148 148.069C56.5688 148.054 56.5291 148.024 56.5021 147.984C56.4751 147.943 56.4623 147.895 56.4656 147.847C56.4656 147.644 56.5703 147.577 56.658 147.556C56.87 147.514 57.0874 147.505 57.3021 147.53C57.4065 147.54 57.5114 147.545 57.6163 147.544H58.8521C59.2134 147.544 59.5786 147.544 59.936 147.524C60.2934 147.503 60.6639 147.503 61.0252 147.503C61.3685 147.506 61.7105 147.547 62.0449 147.624C62.4129 147.708 62.7615 147.861 63.0726 148.075C63.4013 148.305 63.6742 148.606 63.8711 148.956C64.0989 149.39 64.209 149.877 64.1905 150.367C64.1928 150.669 64.1251 150.968 63.9929 151.24C63.8638 151.506 63.6927 151.749 63.4863 151.96C63.2782 152.174 63.0463 152.363 62.7951 152.524C62.5843 152.659 62.3657 152.782 62.1405 152.891C62.3282 153.013 62.4869 153.175 62.6052 153.365C62.8004 153.666 62.9753 153.98 63.1289 154.305C63.3034 154.668 63.4902 155.05 63.6892 155.453C63.8829 155.848 64.1047 156.229 64.3529 156.593C64.5845 156.938 64.858 157.253 65.1671 157.532C65.4566 157.793 65.8103 157.974 66.1921 158.055C66.2946 158.102 66.4017 158.138 66.5116 158.162C66.6922 158.202 66.7197 158.316 66.7197 158.381C66.7061 158.481 66.6546 158.572 66.5757 158.635L66.5548 158.648C66.3859 158.694 66.211 158.712 66.0364 158.703ZM60.2764 148.068C59.9635 148.068 59.7527 148.122 59.665 148.228C59.5602 148.365 59.5086 148.536 59.5197 148.708V149.193C59.5197 149.546 59.5197 149.954 59.5053 150.477C59.4948 150.942 59.4909 151.374 59.4909 151.758C59.4909 151.902 59.4909 152.02 59.4831 152.125C59.4771 152.202 59.4855 152.279 59.5079 152.353C59.5187 152.379 59.5354 152.403 59.5567 152.422C59.5781 152.44 59.6035 152.454 59.631 152.461C59.7474 152.493 59.8679 152.506 59.9884 152.501C60.3395 152.502 60.6901 152.472 61.0356 152.409C61.3352 152.358 61.6207 152.245 61.8735 152.077C62.1121 151.909 62.3015 151.68 62.422 151.414C62.5709 151.07 62.6428 150.697 62.6327 150.322C62.6399 149.988 62.5789 149.656 62.4534 149.346C62.3416 149.08 62.1743 148.841 61.9625 148.645C61.7487 148.452 61.4967 148.305 61.2228 148.215C60.9174 148.115 60.5977 148.065 60.2764 148.068Z" fill="#686058"/>
<path d="M73.62 158.003C72.9228 158.01 72.2289 157.906 71.5647 157.694C70.9638 157.502 70.4132 157.179 69.9532 156.747C69.489 156.298 69.1312 155.751 68.9059 155.145C68.6442 154.422 68.5177 153.656 68.5328 152.887C68.5204 152.088 68.6535 151.293 68.9256 150.542C69.1695 149.883 69.5485 149.281 70.0383 148.776C70.5264 148.286 71.1151 147.907 71.7637 147.666C72.479 147.404 73.2363 147.274 73.9983 147.284C74.4366 147.288 74.8728 147.346 75.2969 147.457C75.7186 147.558 76.1203 147.729 76.4856 147.963C76.4931 147.971 76.5024 147.977 76.5127 147.981C76.5229 147.985 76.5339 147.986 76.5447 147.985C76.5555 147.984 76.566 147.98 76.5752 147.974C76.5845 147.969 76.5923 147.961 76.5981 147.952C76.6628 147.882 76.7207 147.807 76.7709 147.726C76.8275 147.63 76.8905 147.538 76.9594 147.45C76.9893 147.405 77.0295 147.368 77.0766 147.342C77.1238 147.316 77.1765 147.301 77.2304 147.3C77.2972 147.3 77.3823 147.332 77.4137 147.488C77.4349 147.605 77.445 147.723 77.4438 147.842C77.4438 147.972 77.436 148.111 77.4216 148.26C77.4072 148.41 77.4006 148.522 77.4006 148.626C77.4006 148.864 77.4006 149.114 77.3862 149.369C77.3718 149.625 77.3626 149.859 77.3443 150.112C77.3347 150.187 77.3043 150.259 77.2566 150.318C77.2208 150.348 77.1776 150.368 77.1316 150.376C77.0855 150.383 77.0383 150.378 76.9948 150.362C76.9701 150.354 76.9446 150.35 76.9189 150.35C76.8758 150.347 76.8344 150.332 76.7993 150.307C76.7641 150.281 76.7367 150.247 76.7199 150.207C76.6693 150.113 76.6293 150.013 76.6008 149.91C76.5693 149.799 76.5392 149.678 76.5078 149.542C76.4832 149.426 76.4509 149.312 76.4109 149.2C76.3234 149 76.1929 148.821 76.0287 148.677C75.8455 148.513 75.6396 148.377 75.4173 148.272C75.1807 148.158 74.9323 148.07 74.6764 148.01C74.4231 147.952 74.164 147.923 73.904 147.923C73.2168 147.923 72.6408 148.054 72.193 148.322C71.7508 148.58 71.3793 148.943 71.1117 149.38C70.832 149.846 70.6374 150.359 70.537 150.893C70.424 151.469 70.3674 152.055 70.3682 152.642C70.3661 153.244 70.4275 153.845 70.5514 154.434C70.6595 154.968 70.8592 155.479 71.1418 155.945C71.4011 156.368 71.7574 156.723 72.1813 156.98C72.6491 157.248 73.1819 157.381 73.7208 157.365C74.2061 157.381 74.6912 157.327 75.1608 157.203C75.4445 157.129 75.6994 156.972 75.8925 156.751C76.0522 156.541 76.1469 156.289 76.1648 156.026C76.1936 155.731 76.208 155.386 76.208 154.997C76.208 154.484 76.1976 154.073 76.1792 153.776C76.1775 153.555 76.1331 153.338 76.0483 153.134C76.0192 153.073 75.9758 153.019 75.9219 152.978C75.8679 152.937 75.8049 152.909 75.7381 152.897C75.5361 152.859 75.3308 152.843 75.1254 152.848C75.01 152.849 74.8947 152.839 74.7811 152.819C74.6921 152.802 74.5861 152.731 74.5861 152.493C74.5845 152.454 74.5932 152.415 74.6114 152.38C74.6295 152.345 74.6565 152.316 74.6895 152.295C74.7523 152.257 74.8215 152.23 74.8937 152.217C74.9662 152.201 75.0397 152.191 75.1136 152.186C75.1869 152.186 75.2445 152.179 75.2956 152.179C75.5797 152.179 75.8192 152.189 76.0182 152.209C76.2172 152.228 76.4489 152.236 76.7304 152.236C77.0009 152.238 77.2713 152.226 77.5407 152.201C77.7724 152.177 78.0499 152.166 78.3628 152.166C78.4777 152.166 78.5924 152.176 78.7058 152.194C78.7727 152.203 78.8335 152.238 78.8755 152.291C78.9174 152.344 78.9373 152.411 78.9309 152.478C78.9355 152.53 78.9217 152.581 78.892 152.624C78.8623 152.666 78.8186 152.697 78.7686 152.71C78.6649 152.739 78.558 152.754 78.4505 152.756C78.3243 152.76 78.1984 152.772 78.0735 152.79C77.953 152.807 77.8397 152.857 77.7462 152.935C77.7213 152.948 77.6938 152.972 77.6637 153.054C77.6332 153.139 77.6125 153.227 77.6022 153.316C77.5878 153.425 77.576 153.54 77.5669 153.663C77.5577 153.786 77.5525 153.903 77.5525 154.001V154.285C77.5525 154.408 77.5525 154.574 77.5603 154.782L77.5747 155.43C77.5747 155.654 77.5839 155.87 77.5891 156.085C77.5944 156.3 77.5957 156.462 77.5957 156.585C77.5957 156.652 77.5957 156.734 77.5891 156.83C77.5901 156.923 77.556 157.012 77.4936 157.081C77.288 157.328 77.0151 157.51 76.7081 157.605C76.3554 157.726 75.9927 157.815 75.6242 157.872C75.2507 157.932 74.8738 157.97 74.4957 157.986C74.137 158.003 73.8412 158.003 73.62 158.003Z" fill="#686058"/>
<path d="M92.4918 158.047H92.336C92.1058 158.047 91.8758 158.033 91.6474 158.004C91.0975 157.945 90.5428 157.944 89.9927 158.003C89.6681 158.03 89.3382 158.045 89.0018 158.045C88.9052 158.045 88.812 158.009 88.7399 157.945C88.7013 157.914 88.6705 157.874 88.6498 157.828C88.6291 157.783 88.6192 157.733 88.6208 157.683C88.6208 157.607 88.6535 157.474 88.8682 157.442C88.9991 157.423 89.1562 157.408 89.3199 157.399C89.4674 157.393 89.6137 157.37 89.7558 157.33C89.8631 157.3 89.9129 157.221 89.9129 157.085C89.9125 157.059 89.9086 157.033 89.9011 157.008C89.8919 156.975 89.8828 156.945 89.8736 156.919C89.8448 156.821 89.7925 156.675 89.7178 156.486L89.4482 155.794C89.3443 155.532 89.2261 155.238 89.0934 154.912C88.9607 154.586 88.8242 154.255 88.6837 153.921C88.6378 153.829 88.5973 153.743 88.5632 153.659C88.548 153.614 88.5255 153.572 88.4965 153.535C88.412 153.46 88.3041 153.418 88.1914 153.414C88.0396 153.401 87.8825 153.393 87.728 153.393H87.457C87.3431 153.393 87.1952 153.393 87.0093 153.387C86.6559 153.378 86.2736 153.374 85.877 153.393C85.7345 153.399 85.5927 153.416 85.4528 153.443C85.2918 153.82 85.136 154.212 84.9894 154.604C84.8428 154.997 84.7158 155.364 84.615 155.678C84.5142 155.992 84.4291 156.266 84.3663 156.489C84.3248 156.614 84.2945 156.743 84.2759 156.873C84.2623 156.943 84.2733 157.015 84.3069 157.078C84.3405 157.141 84.3948 157.19 84.4605 157.217C84.6181 157.276 84.7828 157.313 84.9501 157.329C85.1216 157.346 85.2921 157.373 85.4607 157.408C85.5202 157.418 85.5758 157.444 85.6213 157.483C85.6667 157.523 85.7001 157.574 85.7176 157.632C85.7351 157.69 85.736 157.751 85.7202 157.809C85.7044 157.867 85.6725 157.92 85.6282 157.961C85.5646 158.021 85.4802 158.054 85.3926 158.054C85.0821 158.053 84.7719 158.037 84.4631 158.004C84.1588 157.971 83.8529 157.955 83.5468 157.954C83.352 157.953 83.1574 157.965 82.9642 157.99C82.7663 158.015 82.5669 158.027 82.3673 158.026C82.3294 158.028 82.2918 158.02 82.2577 158.003C82.2237 157.986 82.1943 157.962 82.1722 157.931C82.1329 157.875 82.1119 157.809 82.112 157.741C82.105 157.683 82.1151 157.625 82.1409 157.573C82.1667 157.521 82.2072 157.477 82.2573 157.448C82.3502 157.405 82.4484 157.374 82.5493 157.357C82.6625 157.338 82.7741 157.31 82.8831 157.274C82.9994 157.231 83.0968 157.148 83.158 157.041C83.2066 156.964 83.2478 156.883 83.281 156.798C83.3386 156.667 83.3975 156.537 83.4578 156.393C83.518 156.249 83.5782 156.108 83.6279 155.975C83.6777 155.841 83.7209 155.734 83.7497 155.666C83.9539 155.142 84.1568 154.628 84.3532 154.149C84.5495 153.67 84.7629 153.143 84.9711 152.63C85.3202 151.766 85.6693 150.906 86.0183 150.05C86.3674 149.194 86.7165 148.334 87.0656 147.47C87.0821 147.418 87.1055 147.369 87.135 147.323C87.1593 147.296 87.1898 147.275 87.2241 147.262C87.2583 147.249 87.2951 147.245 87.3314 147.25C87.3706 147.249 87.4095 147.258 87.4446 147.275C87.4797 147.293 87.51 147.319 87.533 147.351C87.57 147.401 87.6008 147.455 87.6246 147.513C87.8419 148.055 88.0645 148.606 88.2922 149.166C88.52 149.728 88.7413 150.278 88.9599 150.82C89.3526 151.853 89.7767 152.888 90.2087 153.899C90.6407 154.909 91.1068 155.937 91.5846 156.932C91.6145 157.006 91.6593 157.074 91.7163 157.13C91.7732 157.187 91.8411 157.231 91.9158 157.26C92.063 157.316 92.2145 157.36 92.3687 157.391C92.518 157.42 92.6541 157.452 92.7719 157.486C92.8355 157.501 92.8914 157.539 92.9297 157.592C92.9681 157.645 92.9864 157.71 92.9814 157.775C92.9817 157.829 92.9632 157.882 92.9291 157.924C92.895 157.966 92.8473 157.996 92.7942 158.007C92.6962 158.036 92.5941 158.05 92.4918 158.047ZM85.7605 152.689H86.0655C86.2269 152.689 86.4704 152.687 86.7959 152.681C87.1193 152.681 87.5722 152.675 88.1574 152.675C88.1775 152.663 88.1998 152.656 88.2229 152.654H88.2359C88.1142 152.325 87.9925 151.986 87.8733 151.647C87.7398 151.273 87.6167 150.921 87.5042 150.592C87.3903 150.265 87.2934 149.986 87.2122 149.758C87.1638 149.621 87.1298 149.532 87.1062 149.474C86.9936 149.736 86.8963 149.962 86.8143 150.153C86.7187 150.377 86.6245 150.606 86.5302 150.845C86.4359 151.083 86.326 151.349 86.2029 151.643C86.0799 151.938 85.9346 152.268 85.7605 152.689Z" fill="#686058"/>
<path d="M109.39 158.062H109.248C108.968 158.061 108.688 158.045 108.41 158.012C107.835 157.946 107.253 157.946 106.677 158.012C106.373 158.045 106.067 158.061 105.761 158.062C105.665 158.059 105.57 158.05 105.475 158.033C105.279 158 105.249 157.877 105.249 157.805C105.247 157.756 105.26 157.707 105.285 157.664C105.311 157.621 105.347 157.587 105.392 157.564C105.466 157.522 105.532 157.483 105.587 157.445L105.601 157.436H105.618C105.821 157.442 106.023 157.418 106.219 157.367C106.345 157.335 106.458 157.262 106.538 157.16C106.614 157.046 106.662 156.915 106.677 156.779C106.703 156.576 106.715 156.371 106.712 156.166L106.528 151.422C106.517 151.175 106.511 150.951 106.507 150.751C106.503 150.55 106.499 150.384 106.499 150.25C106.512 150.108 106.491 149.965 106.439 149.832C106.413 149.863 106.39 149.895 106.369 149.93C106.326 150.004 106.287 150.08 106.252 150.159C106.215 150.244 106.178 150.326 106.147 150.406C106.116 150.486 106.085 150.55 106.067 150.588C105.629 151.582 105.197 152.552 104.783 153.452C104.369 154.353 103.946 155.334 103.541 156.332C103.493 156.445 103.438 156.594 103.37 156.78C103.302 156.966 103.232 157.141 103.149 157.32C103.067 157.498 102.988 157.645 102.912 157.774C102.823 157.923 102.745 157.994 102.665 157.994C102.597 157.991 102.533 157.966 102.48 157.924C102.427 157.882 102.389 157.824 102.372 157.759C102.324 157.655 102.285 157.548 102.255 157.437C101.945 156.551 101.614 155.665 101.271 154.807C100.928 153.95 100.551 153.078 100.157 152.23C100.119 152.143 100.044 151.968 99.9353 151.7C99.8267 151.431 99.7088 151.154 99.5805 150.86C99.4523 150.567 99.3331 150.305 99.2205 150.075C99.1766 149.979 99.1231 149.887 99.0608 149.801C99.0543 149.854 99.0451 149.952 99.036 150.131C99.0216 150.413 99.0072 150.786 98.9928 151.22C98.9784 151.655 98.9679 152.172 98.9574 152.709C98.9469 153.246 98.9417 153.79 98.9365 154.313C98.9312 154.835 98.9273 155.319 98.9221 155.767C98.9168 156.215 98.9155 156.552 98.9155 156.792C98.9058 156.912 98.9434 157.031 99.0203 157.124C99.0985 157.206 99.1937 157.27 99.2991 157.31C99.4202 157.358 99.5469 157.391 99.6761 157.407C99.8188 157.426 99.9497 157.445 100.069 157.464C100.179 157.478 100.286 157.512 100.384 157.563C100.432 157.586 100.471 157.623 100.498 157.668C100.524 157.714 100.537 157.766 100.535 157.818C100.535 157.897 100.506 158.029 100.306 158.046C100.183 158.055 100.091 158.06 100.024 158.06C99.7808 158.06 99.5334 158.051 99.2886 158.032C98.7478 157.994 98.2049 157.994 97.664 158.032C97.3643 158.051 97.0592 158.06 96.7595 158.06C96.6712 158.057 96.5834 158.045 96.4976 158.024C96.3248 157.986 96.2895 157.893 96.2895 157.818C96.2817 157.743 96.3019 157.667 96.3463 157.606C96.3908 157.545 96.4563 157.502 96.5304 157.486C96.6613 157.453 96.8184 157.424 96.9912 157.399C97.1613 157.375 97.3293 157.338 97.4939 157.288C97.5706 157.262 97.6403 157.218 97.6973 157.161C97.7543 157.103 97.7972 157.033 97.8224 156.956C97.8801 156.808 97.9213 156.654 97.9455 156.497C97.9743 156.326 97.9979 156.16 98.0162 156C98.1209 154.879 98.2165 153.738 98.3003 152.609C98.384 151.481 98.4312 150.334 98.4312 149.221C98.4312 148.905 98.3592 148.669 98.2191 148.519C98.079 148.368 97.8342 148.257 97.4965 148.193L97.2831 148.151C97.1875 148.131 97.0907 148.11 96.9899 148.087C96.8948 148.064 96.8025 148.031 96.7149 147.988C96.6671 147.971 96.6266 147.938 96.6004 147.895C96.5742 147.851 96.5638 147.8 96.5711 147.75C96.5783 147.7 96.6027 147.653 96.6402 147.619C96.6776 147.585 96.7258 147.564 96.7765 147.562C96.8679 147.548 96.9602 147.54 97.0527 147.539C97.2094 147.539 97.366 147.549 97.5213 147.569C97.9096 147.608 98.3008 147.608 98.6891 147.569C98.9208 147.551 99.1629 147.541 99.4104 147.541C99.4737 147.54 99.5371 147.543 99.6002 147.548C99.6383 147.555 99.6744 147.571 99.7059 147.593C99.7374 147.616 99.7634 147.645 99.7822 147.679C99.9695 147.938 100.116 148.224 100.217 148.528C100.319 148.831 100.433 149.13 100.556 149.414C100.857 150.12 101.138 150.768 101.415 151.396C101.705 152.05 101.995 152.732 102.273 153.407C102.34 153.569 102.416 153.759 102.501 153.977C102.588 154.196 102.671 154.407 102.763 154.611C102.855 154.815 102.923 154.983 102.995 155.128C103.08 155.3 103.126 155.31 103.126 155.31C103.126 155.31 103.175 155.281 103.201 155.228C103.239 155.153 103.272 155.082 103.3 155.017C103.838 153.898 104.347 152.755 104.818 151.613C105.289 150.472 105.804 149.322 106.339 148.21C106.41 148.034 106.504 147.868 106.62 147.717C106.656 147.675 106.702 147.642 106.753 147.619C106.804 147.597 106.86 147.585 106.915 147.586H107.214C107.342 147.585 107.47 147.59 107.597 147.601C107.706 147.612 107.815 147.616 107.923 147.615C108.132 147.615 108.336 147.615 108.532 147.601C108.728 147.586 108.939 147.586 109.145 147.586C109.238 147.59 109.33 147.608 109.418 147.639C109.477 147.656 109.527 147.695 109.558 147.748C109.59 147.8 109.601 147.863 109.589 147.923C109.588 147.97 109.575 148.016 109.55 148.056C109.524 148.096 109.488 148.128 109.446 148.148C109.357 148.197 109.26 148.231 109.159 148.248C109.053 148.268 108.946 148.28 108.838 148.284C108.734 148.284 108.653 148.284 108.595 148.284C108.452 148.275 108.31 148.31 108.187 148.382C108.094 148.444 108.022 148.532 107.98 148.635C107.932 148.757 107.905 148.885 107.899 149.016C107.889 149.161 107.885 149.313 107.885 149.469V149.825C107.902 150.885 107.936 151.95 107.984 152.988C108.031 154.026 108.083 155.082 108.141 156.209C108.149 156.373 108.167 156.559 108.197 156.775C108.202 156.863 108.228 156.949 108.272 157.026C108.316 157.103 108.377 157.168 108.451 157.217C108.523 157.254 108.599 157.282 108.677 157.303C108.791 157.337 108.913 157.369 109.045 157.402C109.177 157.435 109.307 157.469 109.429 157.501C109.535 157.528 109.639 157.565 109.738 157.613C109.775 157.632 109.807 157.662 109.827 157.699C109.848 157.735 109.857 157.777 109.854 157.82C109.857 157.846 109.854 157.873 109.846 157.898C109.839 157.923 109.826 157.947 109.809 157.967C109.792 157.988 109.771 158.005 109.748 158.017C109.724 158.029 109.699 158.037 109.672 158.04C109.579 158.054 109.484 158.062 109.39 158.062Z" fill="#686058"/>
<path d="M118.52 158.347C117.785 158.354 117.056 158.214 116.376 157.936C115.74 157.676 115.165 157.285 114.689 156.789C114.213 156.288 113.839 155.699 113.59 155.054C113.322 154.354 113.189 153.609 113.198 152.86C113.191 152.102 113.327 151.35 113.6 150.643C113.854 149.984 114.236 149.381 114.725 148.871C115.213 148.368 115.797 147.967 116.442 147.693C117.127 147.406 117.864 147.262 118.607 147.268C119.339 147.264 120.066 147.397 120.75 147.661C121.405 147.915 122.006 148.291 122.521 148.77C123.032 149.251 123.442 149.83 123.727 150.472C124.029 151.167 124.181 151.918 124.172 152.676C124.175 153.426 124.026 154.168 123.735 154.859C123.451 155.53 123.043 156.141 122.53 156.659C122.012 157.175 121.402 157.59 120.73 157.881C120.034 158.189 119.281 158.348 118.52 158.347ZM118.417 147.91C118.165 147.911 117.913 147.935 117.666 147.982C116.969 148.113 116.415 148.367 116.017 148.737C115.626 149.101 115.326 149.553 115.144 150.055C114.961 150.579 114.867 151.129 114.865 151.684C114.859 152.246 114.908 152.808 115.013 153.361C115.113 153.935 115.276 154.495 115.5 155.033C115.718 155.569 116.025 156.065 116.406 156.5C116.778 156.919 117.242 157.246 117.762 157.454C118.286 157.668 118.914 157.716 119.619 157.585C120.323 157.454 120.856 157.208 121.252 156.823C121.649 156.44 121.95 155.969 122.132 155.449C122.321 154.906 122.421 154.337 122.428 153.763C122.438 153.193 122.394 152.623 122.297 152.061C122.187 151.465 122.002 150.886 121.747 150.336C121.511 149.816 121.186 149.341 120.786 148.932C120.402 148.548 119.936 148.255 119.422 148.076C119.099 147.964 118.759 147.908 118.417 147.91Z" fill="#686058"/>
<path d="M135.025 158.062C134.646 158.062 134.265 158.05 133.893 158.026C133.182 157.979 132.468 157.979 131.757 158.026C131.422 158.05 131.079 158.062 130.737 158.062C130.656 158.061 130.576 158.056 130.496 158.047C130.432 158.039 130.326 158 130.326 157.82C130.319 157.762 130.332 157.705 130.362 157.656C130.391 157.607 130.436 157.568 130.489 157.547C130.582 157.511 130.681 157.492 130.78 157.494C130.837 157.495 130.894 157.491 130.95 157.48C131.174 157.463 131.394 157.416 131.605 157.34C131.745 157.289 131.867 157.198 131.957 157.079C132.042 156.951 132.097 156.805 132.117 156.653C132.147 156.436 132.161 156.217 132.159 155.999V149.101C132.159 149.054 132.159 148.97 132.159 148.839C132.157 148.752 132.15 148.664 132.138 148.577C132.126 148.522 132.025 148.474 131.857 148.446C131.649 148.413 131.439 148.397 131.228 148.398H130.347C130.138 148.398 129.931 148.428 129.731 148.488C129.514 148.558 129.315 148.678 129.153 148.839C129.083 148.925 129.024 149.021 128.98 149.123C128.904 149.276 128.824 149.435 128.738 149.601C128.651 149.767 128.568 149.922 128.488 150.054C128.391 150.215 128.326 150.28 128.263 150.28C128.174 150.287 128.086 150.262 128.014 150.211C127.979 150.178 127.953 150.137 127.937 150.091C127.921 150.046 127.916 149.997 127.922 149.949C127.932 149.724 127.97 149.501 128.038 149.286C128.13 148.912 128.191 148.532 128.221 148.148C128.23 148.044 128.24 147.933 128.248 147.814C128.256 147.7 128.279 147.587 128.316 147.479C128.348 147.379 128.404 147.289 128.48 147.217C128.569 147.141 128.685 147.102 128.802 147.11C128.835 147.11 128.868 147.119 128.897 147.135C128.927 147.152 128.951 147.175 128.968 147.204C129.002 147.253 129.042 147.306 129.087 147.366C129.138 147.432 129.198 147.49 129.265 147.538C129.357 147.595 129.462 147.626 129.569 147.628C130.12 147.656 130.708 147.678 131.314 147.692C132.361 147.717 133.409 147.72 134.372 147.692C134.802 147.683 135.244 147.678 135.681 147.678C135.823 147.678 135.967 147.678 136.112 147.678C136.257 147.678 136.401 147.661 136.54 147.643C136.636 147.632 136.728 147.592 136.802 147.53C136.871 147.468 136.934 147.398 136.989 147.323C137.044 147.25 137.09 147.181 137.128 147.12C137.145 147.087 137.17 147.058 137.202 147.038C137.234 147.018 137.271 147.007 137.308 147.006C137.385 146.997 137.462 147.014 137.527 147.055C137.592 147.096 137.641 147.158 137.666 147.23C137.713 147.352 137.716 147.486 137.674 147.61C137.599 147.838 137.555 148.076 137.543 148.316C137.521 148.607 137.492 148.903 137.458 149.194C137.43 149.448 137.382 149.699 137.314 149.945C137.244 150.18 137.124 150.299 136.954 150.299C136.897 150.307 136.839 150.292 136.791 150.259C136.744 150.226 136.712 150.176 136.7 150.119C136.679 150 136.677 149.879 136.692 149.759C136.706 149.629 136.717 149.481 136.727 149.313C136.737 149.166 136.715 149.018 136.66 148.881C136.609 148.771 136.521 148.683 136.41 148.632C136.263 148.556 136.105 148.503 135.942 148.474C135.751 148.441 135.549 148.418 135.344 148.403C135.017 148.381 134.69 148.377 134.363 148.389C134.204 148.4 134.045 148.4 133.887 148.389C133.867 148.388 133.848 148.391 133.83 148.398C133.812 148.405 133.796 148.415 133.783 148.429C133.737 148.487 133.708 148.556 133.699 148.63C133.671 148.788 133.66 148.949 133.664 149.11L133.636 150.85C133.617 151.673 133.619 152.516 133.636 153.357C133.654 154.197 133.663 155.032 133.643 155.869C133.643 156.02 133.643 156.17 133.651 156.322C133.656 156.472 133.672 156.622 133.699 156.77C133.708 156.873 133.742 156.972 133.798 157.058C133.855 157.144 133.933 157.215 134.024 157.263C134.206 157.35 134.401 157.406 134.601 157.429L135.163 157.494C135.41 157.522 135.461 157.648 135.461 157.755C135.461 157.939 135.412 158.039 135.313 158.054C135.218 158.062 135.122 158.065 135.025 158.062Z" fill="#686058"/>
<path d="M147.887 158.062C147.508 158.062 147.127 158.05 146.755 158.026C146.043 157.979 145.33 157.979 144.618 158.026C144.283 158.05 143.94 158.062 143.599 158.062C143.518 158.061 143.438 158.057 143.358 158.047C143.294 158.04 143.188 158 143.188 157.82C143.181 157.763 143.194 157.705 143.223 157.656C143.252 157.607 143.297 157.569 143.35 157.547C143.443 157.511 143.541 157.493 143.641 157.494C143.698 157.495 143.755 157.491 143.812 157.481C144.035 157.463 144.256 157.416 144.467 157.34C144.606 157.289 144.728 157.198 144.817 157.079C144.901 156.952 144.955 156.808 144.974 156.657C145.005 156.44 145.019 156.222 145.016 156.003V149.101C145.016 149.054 145.016 148.97 145.01 148.839C145.009 148.752 145.002 148.664 144.989 148.577C144.976 148.52 144.876 148.473 144.709 148.447C144.501 148.413 144.29 148.397 144.079 148.398H143.198C142.99 148.398 142.782 148.428 142.583 148.488C142.37 148.56 142.177 148.68 142.019 148.839C141.948 148.926 141.89 149.021 141.846 149.123C141.77 149.276 141.689 149.435 141.604 149.601C141.518 149.767 141.432 149.923 141.354 150.054C141.255 150.215 141.19 150.281 141.127 150.281C141.039 150.287 140.952 150.262 140.88 150.211C140.845 150.178 140.819 150.137 140.802 150.091C140.786 150.046 140.781 149.997 140.787 149.949C140.797 149.724 140.836 149.501 140.903 149.286C140.995 148.912 141.056 148.532 141.085 148.148C141.094 148.045 141.105 147.933 141.114 147.814C141.121 147.701 141.143 147.589 141.178 147.48C141.21 147.381 141.267 147.291 141.342 147.219C141.432 147.142 141.548 147.104 141.665 147.111C141.699 147.112 141.731 147.12 141.76 147.137C141.789 147.153 141.814 147.177 141.831 147.205C141.864 147.254 141.905 147.308 141.95 147.368C142.002 147.432 142.062 147.488 142.13 147.534C142.221 147.591 142.327 147.622 142.435 147.624C142.986 147.652 143.572 147.674 144.18 147.689C145.227 147.713 146.274 147.716 147.237 147.689C147.667 147.679 148.11 147.674 148.552 147.674C148.692 147.674 148.836 147.674 148.983 147.674C149.13 147.674 149.272 147.657 149.411 147.639C149.505 147.627 149.594 147.59 149.668 147.53C149.738 147.469 149.802 147.4 149.859 147.326C149.916 147.246 149.962 147.181 149.997 147.123C150.014 147.09 150.039 147.061 150.069 147.041C150.1 147.02 150.136 147.009 150.173 147.007C150.249 146.997 150.326 147.015 150.392 147.055C150.457 147.096 150.506 147.158 150.532 147.23C150.576 147.353 150.576 147.487 150.532 147.61C150.457 147.838 150.413 148.076 150.401 148.316C150.377 148.605 150.348 148.901 150.316 149.194C150.288 149.448 150.239 149.699 150.17 149.945C150.102 150.18 149.98 150.299 149.812 150.299C149.754 150.307 149.696 150.293 149.649 150.259C149.602 150.226 149.569 150.176 149.558 150.12C149.538 149.999 149.537 149.876 149.556 149.756C149.569 149.625 149.581 149.479 149.592 149.309C149.601 149.162 149.578 149.014 149.524 148.877C149.473 148.767 149.384 148.679 149.274 148.628C149.124 148.554 148.964 148.503 148.8 148.477C148.602 148.443 148.403 148.42 148.203 148.406C147.876 148.384 147.549 148.379 147.222 148.392C147.064 148.403 146.904 148.403 146.746 148.392C146.726 148.391 146.707 148.394 146.689 148.401C146.671 148.408 146.655 148.418 146.641 148.432C146.596 148.49 146.567 148.559 146.557 148.632C146.53 148.791 146.519 148.952 146.523 149.113L146.494 150.853C146.476 151.676 146.479 152.519 146.502 153.36C146.526 154.2 146.528 155.033 146.509 155.872C146.509 156.022 146.509 156.173 146.517 156.325C146.521 156.475 146.537 156.625 146.565 156.772C146.574 156.875 146.608 156.974 146.664 157.06C146.721 157.146 146.798 157.217 146.888 157.266C147.069 157.351 147.263 157.406 147.462 157.429L148.022 157.494C148.269 157.522 148.322 157.648 148.322 157.755C148.322 157.939 148.272 158.04 148.174 158.054C148.079 158.062 147.983 158.065 147.887 158.062Z" fill="#686058"/>
<path d="M154.505 158.047C154.401 158.047 154.295 158.047 154.187 158.033C154.109 158.033 153.98 157.981 153.98 157.749C153.98 157.647 154.052 157.571 154.196 157.524C154.319 157.484 154.458 157.446 154.626 157.408C154.79 157.372 154.951 157.323 155.108 157.262C155.247 157.212 155.366 157.12 155.451 157C155.54 156.837 155.59 156.655 155.598 156.47C155.628 156.192 155.642 155.914 155.641 155.635C155.641 155.332 155.641 155.014 155.627 154.688C155.612 154.362 155.612 154.093 155.612 153.853C155.612 153.133 155.612 152.383 155.598 151.558C155.589 150.803 155.578 150.026 155.578 149.267V148.881C155.578 148.841 155.573 148.802 155.565 148.763C155.547 148.529 155.471 148.384 155.332 148.312C155.178 148.233 155.011 148.182 154.84 148.161C154.645 148.136 154.481 148.113 154.341 148.089C154.12 148.054 154.079 147.919 154.079 147.813C154.077 147.763 154.091 147.714 154.118 147.672C154.146 147.631 154.187 147.599 154.234 147.582C154.329 147.545 154.429 147.52 154.531 147.508C154.649 147.492 154.769 147.487 154.888 147.492C155.01 147.497 155.113 147.5 155.198 147.5C155.517 147.5 155.841 147.506 156.166 147.521C156.491 147.535 156.82 147.542 157.144 147.542C157.783 147.542 158.429 147.542 159.067 147.521C159.704 147.5 160.348 147.5 160.993 147.5H161.148C161.256 147.5 161.363 147.51 161.469 147.53C161.522 147.534 161.572 147.554 161.613 147.587C161.654 147.62 161.684 147.664 161.699 147.715C161.736 147.893 161.756 148.074 161.757 148.255C161.757 148.342 161.757 148.444 161.751 148.564C161.744 148.685 161.743 148.812 161.743 148.998C161.743 149.179 161.731 149.36 161.707 149.54C161.697 149.612 161.665 149.833 161.508 149.851H161.502C161.44 149.848 161.38 149.826 161.331 149.789C161.281 149.752 161.244 149.7 161.224 149.642C161.159 149.503 161.101 149.36 161.051 149.215C160.996 149.058 160.932 148.898 160.862 148.742C160.805 148.607 160.705 148.493 160.579 148.419C160.468 148.363 160.349 148.324 160.227 148.304C160.051 148.268 159.873 148.243 159.694 148.226C159.495 148.208 159.288 148.196 159.08 148.191C158.872 148.186 158.666 148.191 158.478 148.191H157.856C157.692 148.179 157.529 148.223 157.393 148.314C157.288 148.399 157.208 148.511 157.162 148.638C157.11 148.786 157.08 148.942 157.074 149.1C157.064 149.275 157.06 149.445 157.06 149.602C157.06 149.926 157.06 150.248 157.06 150.571C157.06 150.894 157.068 151.218 157.068 151.541V151.868C157.066 151.96 157.074 152.052 157.091 152.142C157.127 152.178 157.173 152.203 157.222 152.214C157.301 152.232 157.38 152.244 157.461 152.248C157.547 152.248 157.633 152.248 157.716 152.248C157.798 152.248 157.876 152.24 157.933 152.24C158.195 152.24 158.448 152.24 158.719 152.234C158.978 152.229 159.236 152.208 159.492 152.169C159.606 152.159 159.716 152.124 159.815 152.067C159.914 152.01 159.999 151.932 160.064 151.838C160.189 151.636 160.259 151.404 160.269 151.167V151.146C160.297 151.088 160.329 151.032 160.364 150.976C160.387 150.941 160.419 150.914 160.456 150.895C160.493 150.877 160.534 150.869 160.575 150.872C160.604 150.867 160.633 150.867 160.662 150.874C160.69 150.882 160.716 150.895 160.739 150.913C160.762 150.931 160.781 150.954 160.794 150.98C160.807 151.007 160.814 151.035 160.815 151.065C160.824 151.166 160.829 151.267 160.829 151.368C160.829 151.558 160.829 151.761 160.815 151.969C160.8 152.177 160.801 152.372 160.801 152.566C160.801 152.76 160.801 152.959 160.815 153.155C160.828 153.352 160.829 153.56 160.829 153.75C160.829 153.797 160.829 153.854 160.837 153.924C160.841 153.997 160.838 154.07 160.829 154.142C160.821 154.211 160.795 154.276 160.754 154.332C160.731 154.361 160.701 154.383 160.668 154.398C160.634 154.413 160.597 154.42 160.561 154.418C160.513 154.417 160.468 154.4 160.43 154.371C160.393 154.342 160.366 154.302 160.352 154.256C160.31 154.159 160.278 154.058 160.257 153.954C160.232 153.844 160.211 153.734 160.191 153.624C160.182 153.549 160.161 153.476 160.129 153.408L160.122 153.39C160.108 153.313 160.077 153.24 160.032 153.176C159.987 153.113 159.928 153.06 159.86 153.022C159.694 152.93 159.513 152.869 159.325 152.842C159.108 152.81 158.889 152.796 158.67 152.8C158.439 152.8 158.232 152.808 158.051 152.808C158.005 152.808 157.945 152.808 157.87 152.808L157.628 152.823C157.544 152.823 157.463 152.834 157.383 152.844C157.326 152.85 157.269 152.859 157.213 152.871C157.196 152.871 157.161 152.88 157.14 152.959C157.121 153.04 157.107 153.123 157.099 153.206C157.092 153.299 157.092 153.391 157.099 153.484C157.099 153.579 157.099 153.647 157.099 153.685V155.938C157.099 156.043 157.099 156.158 157.107 156.285C157.111 156.412 157.125 156.538 157.149 156.662C157.17 156.781 157.206 156.895 157.258 157.004C157.301 157.1 157.375 157.179 157.468 157.229C157.589 157.276 157.716 157.305 157.845 157.316C158.034 157.339 158.238 157.355 158.445 157.365C158.652 157.376 158.863 157.381 159.062 157.386H159.486H159.926C160.057 157.386 160.187 157.386 160.334 157.372C160.481 157.357 160.629 157.351 160.766 157.336C160.893 157.324 161.018 157.304 161.142 157.275C161.238 157.253 161.33 157.217 161.415 157.168C161.559 157.067 161.679 156.937 161.768 156.785C161.881 156.605 161.987 156.423 162.084 156.246C162.181 156.069 162.272 155.908 162.359 155.777C162.461 155.622 162.558 155.546 162.655 155.546C162.834 155.546 162.888 155.632 162.903 155.705C162.918 155.792 162.905 155.881 162.866 155.959C162.866 155.976 162.857 156.012 162.838 156.098C162.829 156.156 162.812 156.214 162.79 156.268C162.79 156.276 162.773 156.335 162.724 156.547C162.687 156.713 162.646 156.89 162.603 157.071C162.56 157.251 162.507 157.5 162.44 157.804L162.433 157.823C162.388 157.888 162.328 157.94 162.257 157.975C162.187 158.009 162.109 158.025 162.031 158.02H155.328C155.197 158.02 155.066 158.02 154.928 158.033C154.789 158.046 154.645 158.047 154.505 158.047Z" fill="#686058"/>
</g>
<g clip-path="url(#clip2)">
<path d="M158.356 210H144.367C144.183 210 144.091 210.092 144.091 210.276V224.264C144.091 224.449 144.183 224.541 144.367 224.541H145.38C145.564 224.541 145.656 224.449 145.656 224.264V218.191C145.656 218.099 145.748 218.007 145.84 218.007H151.822C152.006 218.007 152.098 217.914 152.098 217.73V216.81C152.098 216.626 152.006 216.534 151.822 216.534H145.84C145.748 216.534 145.656 216.442 145.656 216.35V211.749C145.656 211.657 145.748 211.564 145.84 211.564H158.356C158.54 211.564 158.632 211.472 158.632 211.288V210.368C158.632 210.092 158.54 210 158.356 210Z" fill="#686058"/>
<path d="M62.1855 224.448C62.1855 224.54 62.1855 224.54 62.1855 224.54C62.1855 224.633 62.0935 224.633 62.0014 224.633H60.8971C60.8051 224.633 60.621 224.633 60.621 224.54C60.621 224.54 60.529 224.448 60.529 224.356L60.4369 224.264L59.2406 221.872H50.6819L49.4855 224.264L49.3935 224.54C49.3935 224.633 49.2094 224.633 49.1174 224.633H48.013C47.921 224.633 47.829 224.54 47.829 224.54V224.448L47.921 224.264C48.013 224.172 48.013 223.988 48.1051 223.896L54.6391 210.92C54.6391 210.828 54.7312 210.736 54.7312 210.644L54.8232 210.46L54.9152 210.276C54.9152 210.184 55.0072 210.184 55.0072 210.184C55.0993 210.184 55.0993 210.184 55.0993 210.276L55.1913 210.46L55.3754 210.92L61.9094 223.896C61.9094 223.988 62.0014 224.08 62.0935 224.172L62.1855 224.448ZM55.0072 213.589C55.0072 213.497 54.9152 213.497 55.0072 213.589C54.9152 213.497 54.9152 213.589 54.8232 213.589L51.4181 220.399H58.3203L55.0072 213.589Z" fill="#686058"/>
<path d="M101.574 210.46C101.574 210.368 101.574 210.368 101.574 210.276C101.574 210.276 101.482 210.184 101.39 210.184H100.286C100.194 210.184 100.009 210.276 100.009 210.276L99.8254 210.552L94.4877 221.135L94.3957 221.227C94.3957 221.227 94.3037 221.227 94.3037 221.135L89.058 210.644C88.966 210.552 88.966 210.46 88.874 210.368C88.874 210.276 88.6899 210.276 88.5979 210.276H87.4935C87.4015 210.276 87.4015 210.276 87.4015 210.368V210.46V224.264C87.4015 224.448 87.4935 224.54 87.6776 224.54H88.5979C88.7819 224.54 88.874 224.448 88.874 224.264V213.405L94.1196 223.804C94.1196 223.896 94.2116 223.988 94.3037 224.08L94.3957 224.172L94.4877 224.356C94.4877 224.448 94.5797 224.448 94.5797 224.448C94.6718 224.448 94.6718 224.448 94.6718 224.356L94.7638 224.172L94.9479 223.712L100.101 213.405V224.264C100.101 224.448 100.194 224.54 100.378 224.54H101.298C101.482 224.54 101.574 224.448 101.574 224.264V210.46Z" fill="#686058"/>
<path d="M80.7754 210.092H79.8551C79.671 210.092 79.579 210.184 79.579 210.368V221.32C79.579 221.412 79.579 221.412 79.579 221.412H79.487L67.6152 210.368C67.5232 210.276 67.4312 210.184 67.4312 210.184C67.2471 210 67.0631 210 66.971 210C66.787 210 66.6949 210.092 66.6949 210.184V224.264C66.6949 224.357 66.787 224.449 66.971 224.449H67.8913C68.0754 224.449 68.1674 224.357 68.1674 224.264V213.221C68.1674 213.129 68.1674 213.129 68.1674 213.129H68.2594L80.1312 224.172L80.3152 224.264L80.4073 224.357C80.4073 224.357 80.5913 224.449 80.6834 224.449C80.8674 224.449 80.9594 224.357 80.9594 224.264V210.368C80.9594 210.184 80.8674 210.092 80.7754 210.092Z" fill="#686058"/>
<path d="M46.5406 210.092C46.4486 210 46.4486 210 46.3565 210H45.2522C45.1601 210 44.9761 210.092 44.9761 210.092C44.8841 210.184 44.8841 210.276 44.792 210.368L39.3623 221.228L39.2703 221.32C39.2703 221.32 39.1783 221.32 39.1783 221.228L33.7486 210.46C33.7486 210.368 33.6565 210.184 33.6565 210.092C33.5645 210.092 33.3804 210 33.2884 210H32.1841C32.092 210 32.092 210 32 210.092C32 210.184 32 210.184 32 210.276V210.368C32 210.46 32.092 210.552 32.092 210.644C32.092 210.736 32.1841 210.736 32.1841 210.828L38.8101 223.804L38.9942 224.264L39.0862 224.449C39.0862 224.541 39.1783 224.541 39.1783 224.541C39.2703 224.541 39.2703 224.541 39.2703 224.449L39.3623 224.264L39.4543 224.08L39.7304 223.804L46.2645 210.828C46.3565 210.736 46.4486 210.552 46.4486 210.368L46.5406 210.276C46.5406 210.184 46.5406 210.092 46.5406 210.092Z" fill="#686058"/>
<path d="M132.312 210C136.361 210 139.582 213.221 139.582 217.27C139.582 219.111 138.846 220.951 137.557 222.24C136.269 223.62 134.52 224.357 132.68 224.449H131.851C130.011 224.357 128.262 223.528 126.974 222.24C125.685 220.859 124.949 219.111 124.949 217.27C124.949 215.338 125.685 213.497 127.066 212.117C128.538 210.736 130.379 210 132.312 210ZM132.312 224.449C132.496 224.449 132.588 224.449 132.68 224.449H131.851C132.035 224.449 132.22 224.449 132.312 224.449ZM136.361 221.228C137.465 220.123 138.017 218.743 138.017 217.178C138.017 215.706 137.465 214.233 136.361 213.129C135.256 212.025 133.876 211.472 132.312 211.472C130.747 211.472 129.367 212.025 128.262 213.129C127.158 214.233 126.606 215.614 126.606 217.178C126.606 218.651 127.158 220.123 128.262 221.228C129.367 222.332 130.747 222.884 132.312 222.884C133.876 222.884 135.256 222.332 136.361 221.228Z" fill="#686058"/>
<path d="M113.538 210C117.587 210 120.808 213.221 120.808 217.27C120.808 219.111 120.072 220.951 118.783 222.24C117.495 223.62 115.746 224.357 113.906 224.449H113.077C111.237 224.357 109.488 223.528 108.2 222.24C106.912 220.859 106.175 219.111 106.175 217.27C106.175 215.338 106.912 213.497 108.292 212.117C109.764 210.736 111.605 210 113.538 210ZM113.538 224.449C113.722 224.449 113.814 224.449 113.906 224.449H113.077C113.262 224.449 113.446 224.449 113.538 224.449ZM117.587 221.32C118.691 220.215 119.243 218.835 119.243 217.27C119.243 215.706 118.691 214.325 117.587 213.221C116.483 212.117 115.102 211.564 113.538 211.564C112.065 211.564 110.593 212.117 109.488 213.221C108.384 214.325 107.832 215.706 107.832 217.27C107.832 218.835 108.384 220.215 109.488 221.32C110.593 222.424 111.973 222.976 113.538 222.976C115.102 222.976 116.575 222.332 117.587 221.32Z" fill="#686058"/>
<path d="M113.538 211.564C115.102 211.564 116.483 212.117 117.587 213.221C118.691 214.325 119.244 215.706 119.244 217.27C119.244 218.743 118.691 220.215 117.587 221.319C116.483 222.424 115.102 222.976 113.538 222.976C110.409 222.976 107.832 220.399 107.832 217.27C107.832 215.706 108.384 214.325 109.488 213.221C110.593 212.117 112.065 211.564 113.538 211.564ZM117.587 221.227C118.691 220.215 119.244 218.743 119.244 217.27C119.244 215.798 118.691 214.325 117.587 213.313C116.483 212.209 115.102 211.656 113.538 211.656C111.973 211.656 110.593 212.209 109.488 213.313C108.384 214.325 107.832 215.798 107.832 217.27C107.832 218.743 108.384 220.215 109.488 221.227C110.593 222.332 111.973 222.884 113.538 222.884C115.102 222.884 116.483 222.332 117.587 221.227Z" fill="#686058"/>
</g>
<g clip-path="url(#clip3)">
<path d="M310.832 95.3687H311.601C313.898 95.3687 318.353 92.6678 318.353 87.4434C318.353 84.703 316.569 79.518 309.827 79.518H308.555V80.5826V102.013C306.653 95.8813 301.714 79.9912 301.596 79.5969H300.482C300.354 79.9912 295.169 96.0883 293.217 102.121V79.6363H291.945C291.758 79.8532 285.617 86.7731 284.118 88.4488C282.63 86.7731 276.479 79.8433 276.292 79.6363H275.02V103.55C274.419 103.659 273.778 103.728 273.108 103.728C266.405 103.728 261.348 98.6808 261.348 91.9975C261.348 83.9341 268.485 80.4643 272.605 80.277V79.6264C266.848 79.8532 260.776 84.496 260.648 91.8693C258.775 85.8366 256.912 79.8334 256.833 79.5969H255.729C255.65 79.8334 253.718 85.8366 251.766 91.8792C251.678 87.4039 249.499 84.5354 247.666 82.909C245.359 80.8685 242.264 79.6462 239.386 79.6462H238.686H237.444V104.457H239.395C242.717 104.457 246.887 102.525 249.44 99.1343C248.513 102.022 247.833 104.122 247.754 104.378H248.444C248.592 103.925 251.136 96.108 251.136 96.108H261.22C261.318 96.4235 261.427 96.729 261.545 97.0346C262.186 99.1145 263.684 104.014 263.802 104.378H264.532C264.463 104.152 263.901 102.338 263.102 99.7848C265.449 102.86 269.155 104.467 272.733 104.467C281.24 104.467 284.148 97.2712 284.769 95.3884H275.75V80.0109C275.75 80.0109 283.586 89.0403 283.803 89.2867H284.454C284.67 89.0403 292.507 80.0109 292.507 80.0109V104.369H293.197H293.227V104.29C293.532 103.343 295.888 96.0982 295.888 96.0982H306.012C306.012 96.0982 308.407 103.905 308.555 104.369H309.284H309.314V94.8759C309.807 95.4476 317.121 104.093 317.328 104.329H318.363C317.486 103.314 310.832 95.3687 310.832 95.3687ZM239.326 103.728H238.104V103.373L238.094 97.8429C238.084 91.9778 238.074 83.9341 238.104 80.691V80.3362H239.474C243.112 80.3362 251.096 83.2934 251.096 92.0665C251.086 99.1835 244.117 103.728 239.326 103.728ZM251.402 95.3687L251.451 95.2702L256.192 80.001H256.419L261.013 95.3589H251.402V95.3687ZM283.665 96.0587L283.458 96.5516C283.428 96.6108 281.092 101.973 275.75 103.383V96.0587H283.665ZM296.154 95.3687L296.204 95.2702L300.945 80.001H301.172L305.765 95.3589H296.154V95.3687ZM310.024 94.7181H309.314L309.304 94.8759V80.5826V80.208H309.353H310.024H310.733C314.538 80.208 317.624 83.4511 317.624 87.4434C317.624 91.5342 314.479 94.7083 310.615 94.7083H310.024V94.7181Z" fill="#686058"/>
</g>
<path d="M245.512 153.05L241.206 152.644C238.444 152.4 237.956 151.75 237.956 150.613C237.956 148.744 240.8 148.5 242.506 148.5C245.675 148.5 247.462 149.394 248.194 151.506L248.275 151.669L250.712 151.019L250.631 150.775C249.575 147.85 246.894 146.388 242.587 146.388C238.037 146.388 235.437 148.013 235.437 150.775C235.437 153.213 236.981 154.431 240.312 154.756L244.862 155.163C247.706 155.406 248.275 156.219 248.275 157.275C248.275 158.819 246.812 159.55 243.562 159.55C239.987 159.55 237.956 158.494 237.225 156.138L237.144 155.975L234.625 156.544L234.706 156.788C235.762 160.2 238.525 161.744 243.481 161.744C246.812 161.744 250.794 160.931 250.794 157.194C250.712 154.675 249.169 153.456 245.512 153.05Z" fill="#686058"/>
<path d="M269.563 158.087L269.156 157.681C269.075 157.6 268.994 157.519 268.913 157.438L265.825 154.188L258.756 146.956V146.875H255.994V161.175H258.188V149.8L258.675 150.287L258.756 150.369L269.238 161.094L269.319 161.175H271.838V146.875H269.563V158.087Z" fill="#686058"/>
<path d="M280.938 151.425H278.5V161.256H280.938V151.425Z" fill="#686058"/>
<path d="M296.7 146.875H287.438V161.175H289.875V156.137H296.131C299.706 156.137 301.9 154.269 301.9 151.425C302.063 148.663 299.95 146.875 296.7 146.875ZM296.294 154.106H289.875V148.988H296.213C298.244 148.988 299.381 149.881 299.381 151.506C299.462 153.05 298.244 154.106 296.294 154.106Z" fill="#686058"/>
<path d="M320.019 146.875V152.806H308.888V146.875H306.45V161.175H308.888V155H319.938V161.256H322.375V146.875H320.019Z" fill="#686058"/>
<path d="M279.719 142C277.769 142 276.225 143.544 276.225 145.494C276.225 147.444 277.769 148.988 279.719 148.988C281.669 148.988 283.212 147.444 283.212 145.494C283.212 143.544 281.587 142 279.719 142ZM279.719 147.119C278.825 147.119 278.094 146.388 278.094 145.494C278.094 144.6 278.825 143.869 279.719 143.869C280.612 143.869 281.344 144.6 281.344 145.494C281.344 146.388 280.612 147.119 279.719 147.119Z" fill="#686058"/>
<path d="M235.53 211.314H232.345V208.213H242.173V211.314H239.027V227.764H235.53V211.314Z" fill="#686058"/>
<path d="M258.593 211.314H255.408V208.213H265.236V211.314H262.082V227.764H258.593V211.314Z" fill="#686058"/>
<path d="M270.021 211.314H266.844V208.213H276.665V211.314H273.518V227.764H270.021V211.314Z" fill="#686058"/>
<path d="M286.791 208.213V211.261H281.617V216.091H285.922V219.223H281.617V224.632H286.951V227.764H278.196V208.213H286.791Z" fill="#686058"/>
<path d="M300.787 208.213H304.284V215.962H307.514V208.213H311.011V227.764H307.514V219.246H304.284V227.764H300.787V208.213Z" fill="#686058"/>
<path d="M321.716 208.213V211.261H316.543V216.091H320.855V219.223H316.543V224.632H321.876V227.764H313.13V208.213H321.716Z" fill="#686058"/>
<path d="M336.55 227.764H334.707L332.87 218.461C332.314 215.619 332.025 213.989 331.735 212.312C331.789 214.491 331.819 216.305 331.819 219.086V227.764H328.825V208.213H333.503L334.844 215.177C335.293 217.463 335.476 218.773 335.712 220.244C335.949 218.773 336.101 217.463 336.55 215.177L337.891 208.213H342.463V227.764H339.415V219.063C339.415 216.282 339.469 214.491 339.522 212.29C339.232 213.912 338.92 215.627 338.394 218.248L336.55 227.764Z" fill="#686058"/>
<path d="M326.951 208.206H323.453V227.756H326.951V208.206Z" fill="#686058"/>
<path d="M292.147 216.305H293.594C294.775 216.305 295.194 215.619 295.194 214.362V212.678C295.194 211.337 294.775 210.834 293.594 210.834H292.147V216.305ZM292.147 227.733H288.71V208.213H294.859C297.381 208.213 298.669 209.341 298.669 211.916V214.042C298.669 216.091 297.594 216.937 296.703 217.196C297.724 217.592 298.669 218.43 298.669 220.427V225.394C298.635 226.152 298.744 226.909 298.989 227.627V227.764H295.568C295.27 227.057 295.153 226.287 295.225 225.524V221.006C295.225 219.665 294.783 219.086 293.625 219.086H292.177L292.147 227.733Z" fill="#686058"/>
<path d="M248.528 228C245.031 228 243.773 226.027 243.773 223.185V208.213H247.301V223.131C247.301 224.267 247.751 224.945 248.825 224.945C249.899 224.945 250.349 224.29 250.349 223.131V208.213H253.869V223.185C253.869 225.973 252.581 228 249.084 228H248.528Z" fill="#686058"/>
<path d="M221 224.031V220.716H224.444V223.398C224.417 223.608 224.438 223.821 224.504 224.022C224.57 224.223 224.68 224.407 224.825 224.56C224.971 224.713 225.15 224.832 225.347 224.908C225.545 224.984 225.757 225.014 225.968 224.998C226.966 224.998 227.491 224.343 227.491 223.109V222.872C227.491 221.585 227.072 220.93 226.021 219.985L223.469 217.699C221.945 216.305 221.076 215.017 221.076 212.861V212.312C221.076 209.371 222.729 207.977 225.83 207.977H226.387C229.251 207.977 230.905 209.211 230.905 211.787V214.362H227.598V212.465C227.598 211.284 227.126 210.811 226.173 210.811C225.221 210.811 224.649 211.284 224.649 212.389V212.571C224.649 213.699 225.015 214.278 226.089 215.253L228.619 217.539C230.379 219.147 231.141 220.328 231.141 222.636V223.192C231.141 225.874 229.747 227.947 226.249 227.947H225.67C222.623 227.947 220.969 226.499 220.969 224.008" fill="#686058"/>
<defs>
<clipPath id="clip0">
<rect width="54" height="22.3902" fill="white" transform="translate(68 81)"/>
</clipPath>
<clipPath id="clip1">
<rect width="130.909" height="12" fill="white" transform="translate(32 147)"/>
</clipPath>
<clipPath id="clip2">
<rect width="127" height="14.7246" fill="white" transform="translate(32 210)"/>
</clipPath>
<clipPath id="clip3">
<rect width="81.8658" height="27.7683" fill="white" transform="translate(237 78)"/>
</clipPath>
</defs>
</svg>
