<!-- <svg id="Lager_1" data-name="Lager 1" xmlns="http://www.w3.org/2000/svg" viewBox="0 0 381 75"><defs><style>.cls-1{stroke:#000;stroke-width:1.5px;}.cls-1,.cls-2{stroke-miterlimit:10;}.cls-2{stroke:#333;stroke-width:9px;}</style></defs><title>northboundRityta 2</title><path d="M145,9.31a31.36,31.36,0,0,0-14.76,26.93c0,15.07,9.86,23.82,14.53,27.08C134.92,61.05,124,49.54,124,36.22,124,22.24,135.86,11,145,9.31Z"/><path d="M163.44,58.39c5.08-3.42,8.82-11.47,8.85-22.71,0-10.85-3.29-19-8.74-22.75,7.89,2.33,15.76,10.8,15.73,22.76C179.25,47.42,171.34,55.93,163.44,58.39Z"/><line class="cls-1" x1="282.66" y1="11.86" x2="260" y2="62.78"/><polygon points="278.73 18.66 282.78 9.54 306.53 63.09 295.26 57.36 278.73 18.66"/><polygon points="328.09 15.22 334 9.64 333.88 62.99 328 57.39 328.09 15.22"/><path d="M355.22,59.15c5.08-3.41,8.83-11.46,8.85-22.71,0-10.84-3.29-19-8.74-22.75,7.89,2.34,15.76,10.81,15.73,22.77C371,48.19,363.12,56.7,355.22,59.15Z"/><line class="cls-2" x1="13" y1="21" x2="43.83" y2="54"/><line class="cls-2" x1="43.83" y1="21" x2="13" y2="54"/><polygon points="104 9.82 104 62.82 99.51 62.82 61 15.35 61 62.82 59 62.82 59 9.82 64.32 9.82 102 56.48 102 9.82 104 9.82"/><polyline points="192 9.1 215.1 48.54 213.66 55.53 192.76 19.97"/><polygon points="242.06 9.53 242.06 63.23 237.06 59.2 237.06 20.27 236.84 9.53 242.06 9.53"/><polygon points="194.06 63.53 192.06 63.53 192.06 10.04 194.06 13.21 194.06 63.53"/></svg> -->
<svg id="Lager_1" data-name="Lager 1" xmlns="http://www.w3.org/2000/svg" viewBox="0 0 857.1763 133.1918"><defs><style>.cls-1,.cls-2,.cls-3,.cls-4,.cls-5{stroke:#000;}.cls-1{stroke-width:16.1175px;}.cls-2{fill:#252831;stroke-miterlimit:10;stroke-width:8.3734px;}.cls-3{fill:#4d4d4d;stroke-width:9.4719px;}.cls-4{stroke-width:9.472px;}.cls-5{stroke-width:9.1663px;}</style></defs><line class="cls-1" x1="27.0526" y1="31.7677" x2="96.2038" y2="100.9188"/><line class="cls-1" x1="96.2038" y1="31.7677" x2="27.0526" y2="100.9188"/><path d="M325.3969-.2386C313.2153,7.12,287.9279,27.59,287.836,66.1636c-.0884,37.1391,25.099,58.731,36.9853,66.7615-25.0908-5.6-52.9727-33.9818-52.8945-66.8117C272.0088,31.6434,302.095,4.0149,325.3969-.2386Z"/><path d="M372.3123,120.7652c12.9174-8.4247,22.455-28.2689,22.521-55.9961.0637-26.7434-8.3866-46.8148-22.2542-56.09,20.0768,5.7494,40.1176,26.6421,40.0474,56.1383C412.5577,93.7244,392.4172,114.7172,372.3123,120.7652Z"/><line class="cls-2" x1="656.8527" y1="10.7983" x2="603.1847" y2="131.376"/><polygon points="647.778 20.784 656.168 0.22 714.837 132.466 691.929 120.79 647.778 20.784"/><polygon points="747.811 13.692 762.841 -0.22 762.544 132.907 747.576 118.918 747.811 13.692"/><path d="M816.86,123.33c12.9177-8.526,22.4559-28.6083,22.5227-56.6679C839.4475,39.598,830.9979,19.2864,817.13,9.9c20.0767,5.8178,40.117,26.96,40.0459,56.81C857.1067,95.9639,836.9656,117.2088,816.86,123.33Z"/><path id="Path_85" data-name="Path 85" class="cls-3" d="M234.8,0V119"/><path id="Path_84" data-name="Path 84" class="cls-4" d="M124.8614,1.4447V132.5741"/><path id="Path_1" data-name="Path 1" d="M116.2171.04h19.1077L239.3,111.1068v21.58Z"/><polyline points="439.197 -0.505 498.002 95.563 494.326 112.593 439.131 25.964"/><polygon points="567.3 1.192 567.3 131.983 554.3 122.149 554.3 27.351 553.724 1.192 567.3 1.192"/><path id="Path_84-2" data-name="Path 84" class="cls-5" d="M443.7347,16.7809V133.1918"/></svg>