<svg width="16" height="14" viewBox="0 0 16 14" fill="none" xmlns="http://www.w3.org/2000/svg">
<path fill-rule="evenodd" clip-rule="evenodd" d="M16 1.91106C15.4117 2.17918 14.7779 2.35982 14.1154 2.44048C14.7934 2.02467 15.3142 1.36573 15.5579 0.579543C14.9231 0.964682 14.2217 1.2453 13.4728 1.39527C12.8756 0.74087 12.0213 0.333008 11.0773 0.333008C9.26473 0.333008 7.79558 1.84062 7.79558 3.69815C7.79558 3.96286 7.82328 4.21849 7.87979 4.46502C5.152 4.32415 2.73333 2.98581 1.1135 0.947641C0.830967 1.44639 0.669206 2.02467 0.669206 2.64157C0.669206 3.80835 1.24867 4.8388 2.12949 5.44321C1.59213 5.42617 1.0858 5.27279 0.642615 5.02285V5.06375C0.642615 6.6952 1.77384 8.05625 3.27623 8.36414C3.00035 8.44366 2.71117 8.48343 2.41091 8.48343C2.19929 8.48343 1.99321 8.46298 1.79378 8.42321C2.21148 9.76041 3.42248 10.7341 4.8595 10.7602C3.73603 11.6634 2.32006 12.2008 0.783325 12.2008C0.517416 12.2008 0.255938 12.186 0 12.1542C1.45253 13.1085 3.17762 13.6663 5.03123 13.6663C11.0707 13.6663 14.3713 8.53796 14.3713 4.08897C14.3713 3.94355 14.3691 3.79699 14.3624 3.65384C15.0039 3.17895 15.5612 2.5859 16 1.91106Z" fill="#333333"/>
</svg>
