<svg width="45" height="45" viewBox="0 0 45 45" fill="none" xmlns="http://www.w3.org/2000/svg">
<path d="M22.483 1.24002C26.6845 1.24003 30.7915 2.4859 34.2849 4.82009C37.7782 7.15428 40.501 10.4719 42.1088 14.3536C43.7166 18.2352 44.1373 22.5064 43.3176 26.6271C42.498 30.7478 40.4748 34.5329 37.5039 37.5037C34.5331 40.4746 30.748 42.4977 26.6273 43.3174C22.5066 44.1371 18.2354 43.7164 14.3538 42.1086C10.4722 40.5008 7.15449 37.778 4.8203 34.2847C2.48611 30.7913 1.24024 26.6843 1.24023 22.4828C1.24023 19.6932 1.78969 16.9309 2.85724 14.3536C3.92479 11.7763 5.48952 9.43447 7.4621 7.46189C9.43468 5.48931 11.7765 3.92457 14.3538 2.85702C16.9311 1.78947 19.6934 1.24002 22.483 1.24002V1.24002Z" stroke="black" stroke-width="2.2957"/>
<path d="M35.8887 9.32626V32.8235V9.32626Z" fill="#4D4D4D"/>
<path d="M35.8887 9.32626V32.8235" stroke="black" stroke-width="1.77345"/>
<path d="M24.6411 17.1817L8.26953 33.5533" stroke="black" stroke-width="3.51107"/>
<path d="M16.4551 9.56924V35.6083V9.56924Z" fill="black"/>
<path d="M16.4551 9.56924V35.6083" stroke="black" stroke-width="1.77345"/>
<path d="M15.0371 9.4613H18.4103L36.7657 31.0716V35.2703L15.0371 9.4613Z" fill="black"/>
<path d="M8.26953 17.1817L24.6411 33.5533" stroke="black" stroke-width="3.51107"/>
</svg>
