<svg width="421" height="262" viewBox="0 0 421 262" fill="none" xmlns="http://www.w3.org/2000/svg">
<g clip-path="url(#clip0)">
<path d="M58.0266 30.5H391.37" stroke="#212121" stroke-opacity="0.25" stroke-dasharray="6"/>
<path d="M56.792 66.5H390.135" stroke="#212121" stroke-opacity="0.25" stroke-dasharray="6"/>
<path d="M56.792 102.5H390.135" stroke="#212121" stroke-opacity="0.25" stroke-dasharray="6"/>
<path d="M56.792 136.5H390.135" stroke="#212121" stroke-opacity="0.25" stroke-dasharray="6"/>
<path d="M56.792 170.5H390.135" stroke="#212121" stroke-opacity="0.25" stroke-dasharray="6"/>
<path d="M56.792 204.5H390.135" stroke="#212121" stroke-opacity="0.25" stroke-dasharray="6"/>
<path d="M39.0284 197.852C37.2284 197.852 36.3404 199.328 36.3404 201.992C36.3404 204.656 37.2284 206.144 39.0284 206.144C40.8284 206.144 41.7164 204.656 41.7164 201.992C41.7164 199.34 40.8284 197.852 39.0284 197.852ZM39.0284 198.728C40.0244 198.728 40.5644 199.64 40.5644 201.992C40.5644 204.356 40.0244 205.268 39.0284 205.268C38.0204 205.268 37.4924 204.356 37.4924 201.992C37.4924 199.64 38.0204 198.728 39.0284 198.728Z" fill="#242728"/>
<path d="M33.5066 165.972H32.5346L30.0506 167.508L30.5306 168.288L32.4026 167.148V174H33.5066V165.972ZM38.0443 165.852C36.2443 165.852 35.3563 167.328 35.3563 169.992C35.3563 172.656 36.2443 174.144 38.0443 174.144C39.8443 174.144 40.7323 172.656 40.7323 169.992C40.7323 167.34 39.8443 165.852 38.0443 165.852ZM38.0443 166.728C39.0403 166.728 39.5803 167.64 39.5803 169.992C39.5803 172.356 39.0403 173.268 38.0443 173.268C37.0363 173.268 36.5083 172.356 36.5083 169.992C36.5083 167.64 37.0363 166.728 38.0443 166.728Z" fill="#242728"/>
<path d="M32.3306 96.852C31.4666 96.852 30.7226 97.164 30.0386 97.8L30.6146 98.46C31.1546 97.956 31.6346 97.74 32.2706 97.74C33.0746 97.74 33.6026 98.208 33.6026 98.964C33.6026 99.9 32.9426 100.38 32.1506 100.38H31.7426L31.6106 101.232H32.2106C33.1826 101.232 33.8066 101.568 33.8066 102.672C33.8066 103.62 33.1946 104.244 32.1866 104.244C31.5386 104.244 30.9986 104.004 30.4706 103.452L29.8106 104.064C30.4226 104.796 31.2626 105.144 32.2226 105.144C33.8906 105.144 34.9586 104.088 34.9586 102.684C34.9586 101.472 34.1546 100.836 33.1466 100.74C34.0466 100.524 34.7066 99.912 34.7066 98.892C34.7066 97.812 33.8666 96.852 32.3306 96.852ZM38.8412 96.852C37.0412 96.852 36.1532 98.328 36.1532 100.992C36.1532 103.656 37.0412 105.144 38.8412 105.144C40.6412 105.144 41.5292 103.656 41.5292 100.992C41.5292 98.34 40.6412 96.852 38.8412 96.852ZM38.8412 97.728C39.8372 97.728 40.3772 98.64 40.3772 100.992C40.3772 103.356 39.8372 104.268 38.8412 104.268C37.8332 104.268 37.3052 103.356 37.3052 100.992C37.3052 98.64 37.8332 97.728 38.8412 97.728Z" fill="#242728"/>
<path d="M32.3666 131.852C31.3586 131.852 30.5786 132.26 29.9306 133.064L30.6506 133.64C31.1906 133.028 31.6346 132.764 32.3066 132.764C33.0866 132.764 33.6266 133.256 33.6266 134.096C33.6266 135.404 32.9306 136.172 30.0986 139.124V140H34.8386L34.9706 139.076H31.3586C33.8186 136.616 34.7786 135.548 34.7786 134.048C34.7786 132.8 33.8426 131.852 32.3666 131.852ZM38.7943 131.852C36.9943 131.852 36.1063 133.328 36.1063 135.992C36.1063 138.656 36.9943 140.144 38.7943 140.144C40.5943 140.144 41.4823 138.656 41.4823 135.992C41.4823 133.34 40.5943 131.852 38.7943 131.852ZM38.7943 132.728C39.7903 132.728 40.3303 133.64 40.3303 135.992C40.3303 138.356 39.7903 139.268 38.7943 139.268C37.7863 139.268 37.2583 138.356 37.2583 135.992C37.2583 133.64 37.7863 132.728 38.7943 132.728Z" fill="#242728"/>
<path d="M71.7793 226.972H70.8073L68.3233 228.508L68.8033 229.288L70.6753 228.148V235H71.7793V226.972ZM76.317 226.852C74.517 226.852 73.629 228.328 73.629 230.992C73.629 233.656 74.517 235.144 76.317 235.144C78.117 235.144 79.005 233.656 79.005 230.992C79.005 228.34 78.117 226.852 76.317 226.852ZM76.317 227.728C77.313 227.728 77.853 228.64 77.853 230.992C77.853 233.356 77.313 234.268 76.317 234.268C75.309 234.268 74.781 233.356 74.781 230.992C74.781 228.64 75.309 227.728 76.317 227.728Z" fill="#242728"/>
<path d="M108.876 226.972H107.904L105.42 228.508L105.9 229.288L107.772 228.148V235H108.876V226.972ZM113.778 226.972H112.806L110.322 228.508L110.802 229.288L112.674 228.148V235H113.778V226.972Z" fill="#242728"/>
<path d="M145.876 226.972H144.904L142.42 228.508L142.9 229.288L144.772 228.148V235H145.876V226.972ZM149.802 226.852C148.794 226.852 148.014 227.26 147.366 228.064L148.086 228.64C148.626 228.028 149.07 227.764 149.742 227.764C150.522 227.764 151.062 228.256 151.062 229.096C151.062 230.404 150.366 231.172 147.534 234.124V235H152.274L152.406 234.076H148.794C151.254 231.616 152.214 230.548 152.214 229.048C152.214 227.8 151.278 226.852 149.802 226.852Z" fill="#242728"/>
<path d="M182.876 226.972H181.904L179.42 228.508L179.9 229.288L181.772 228.148V235H182.876V226.972ZM186.766 226.852C185.902 226.852 185.158 227.164 184.474 227.8L185.05 228.46C185.59 227.956 186.07 227.74 186.706 227.74C187.51 227.74 188.038 228.208 188.038 228.964C188.038 229.9 187.378 230.38 186.586 230.38H186.178L186.046 231.232H186.646C187.618 231.232 188.242 231.568 188.242 232.672C188.242 233.62 187.63 234.244 186.622 234.244C185.974 234.244 185.434 234.004 184.906 233.452L184.246 234.064C184.858 234.796 185.698 235.144 186.658 235.144C188.326 235.144 189.394 234.088 189.394 232.684C189.394 231.472 188.59 230.836 187.582 230.74C188.482 230.524 189.142 229.912 189.142 228.892C189.142 227.812 188.302 226.852 186.766 226.852Z" fill="#242728"/>
<path d="M219.876 226.972H218.904L216.42 228.508L216.9 229.288L218.772 228.148V235H219.876V226.972ZM227.09 232.144H226.046V229.984H225.086L224.99 232.144H222.71L224.882 227.236L223.958 226.852L221.546 232.228V233.02H224.978V235H226.046V233.02H227.09V232.144Z" fill="#242728"/>
<path d="M256.876 226.972H255.904L253.42 228.508L253.9 229.288L255.772 228.148V235H256.876V226.972ZM263.262 226.972H258.918V231.016H259.782C260.166 230.836 260.49 230.74 260.922 230.74C261.75 230.74 262.386 231.172 262.386 232.408C262.386 233.584 261.75 234.244 260.742 234.244C260.046 234.244 259.53 233.992 259.026 233.488L258.378 234.124C259.002 234.76 259.734 235.144 260.754 235.144C262.422 235.144 263.538 234.028 263.538 232.432C263.538 230.836 262.614 229.888 261.258 229.888C260.826 229.888 260.394 229.984 259.974 230.2V227.836H263.106L263.262 226.972Z" fill="#242728"/>
<path d="M293.876 226.972H292.904L290.42 228.508L290.9 229.288L292.772 228.148V235H293.876V226.972ZM298.877 229.72C298.121 229.72 297.473 230.032 296.945 230.776C297.005 228.94 297.701 227.728 298.865 227.728C299.309 227.728 299.729 227.848 300.101 228.076L300.533 227.344C300.065 227.032 299.525 226.852 298.877 226.852C296.981 226.852 295.841 228.604 295.841 231.232C295.841 233.536 296.585 235.144 298.541 235.144C299.957 235.144 301.097 234.028 301.097 232.276C301.097 230.56 300.053 229.72 298.877 229.72ZM298.541 234.268C297.473 234.268 297.005 233.452 296.957 231.7C297.365 231.04 297.965 230.596 298.685 230.596C299.441 230.596 299.981 231.04 299.981 232.312C299.981 233.488 299.489 234.268 298.541 234.268Z" fill="#242728"/>
<path d="M330.876 226.972H329.904L327.42 228.508L327.9 229.288L329.772 228.148V235H330.876V226.972ZM337.149 226.972H332.481V227.872H336.033L333.141 234.784L334.149 235.12L337.149 227.8V226.972Z" fill="#242728"/>
<path d="M367.876 226.972H366.904L364.42 228.508L364.9 229.288L366.772 228.148V235H367.876V226.972ZM373.561 230.692C374.473 230.236 374.929 229.696 374.929 228.88C374.929 227.512 373.693 226.852 372.493 226.852C371.269 226.852 370.057 227.56 370.057 228.916C370.057 229.744 370.441 230.356 371.305 230.788C370.321 231.22 369.721 231.844 369.721 232.876C369.721 234.196 370.813 235.144 372.469 235.144C374.101 235.144 375.253 234.196 375.253 232.852C375.253 231.844 374.665 231.136 373.561 230.692ZM372.493 227.68C373.369 227.68 373.849 228.172 373.849 228.916C373.849 229.6 373.549 230.02 372.829 230.428L372.625 230.356C371.701 230.056 371.137 229.756 371.137 228.928C371.137 228.124 371.665 227.68 372.493 227.68ZM372.481 234.268C371.485 234.268 370.873 233.752 370.873 232.876C370.873 232 371.257 231.448 372.049 231.064L372.349 231.172C373.645 231.616 374.101 232 374.101 232.864C374.101 233.704 373.489 234.268 372.481 234.268Z" fill="#242728"/>
<path d="M35.6546 67.144H34.6106V64.984H33.6506L33.5546 67.144H31.2746L33.4466 62.236L32.5226 61.852L30.1106 67.228V68.02H33.5426V70H34.6106V68.02H35.6546V67.144ZM39.2396 61.852C37.4396 61.852 36.5516 63.328 36.5516 65.992C36.5516 68.656 37.4396 70.144 39.2396 70.144C41.0396 70.144 41.9276 68.656 41.9276 65.992C41.9276 63.34 41.0396 61.852 39.2396 61.852ZM39.2396 62.728C40.2356 62.728 40.7756 63.64 40.7756 65.992C40.7756 68.356 40.2356 69.268 39.2396 69.268C38.2316 69.268 37.7036 68.356 37.7036 65.992C37.7036 63.64 38.2316 62.728 39.2396 62.728Z" fill="#242728"/>
<path d="M34.8266 26.972H30.4826V31.016H31.3466C31.7306 30.836 32.0546 30.74 32.4866 30.74C33.3146 30.74 33.9506 31.172 33.9506 32.408C33.9506 33.584 33.3146 34.244 32.3066 34.244C31.6106 34.244 31.0946 33.992 30.5906 33.488L29.9426 34.124C30.5666 34.76 31.2986 35.144 32.3186 35.144C33.9866 35.144 35.1026 34.028 35.1026 32.432C35.1026 30.836 34.1786 29.888 32.8226 29.888C32.3906 29.888 31.9586 29.984 31.5386 30.2V27.836H34.6706L34.8266 26.972ZM38.8646 26.852C37.0646 26.852 36.1766 28.328 36.1766 30.992C36.1766 33.656 37.0646 35.144 38.8646 35.144C40.6646 35.144 41.5526 33.656 41.5526 30.992C41.5526 28.34 40.6646 26.852 38.8646 26.852ZM38.8646 27.728C39.8606 27.728 40.4006 28.64 40.4006 30.992C40.4006 33.356 39.8606 34.268 38.8646 34.268C37.8566 34.268 37.3286 33.356 37.3286 30.992C37.3286 28.64 37.8566 27.728 38.8646 27.728Z" fill="#242728"/>
<rect x="70.0002" y="170" width="16" height="35" fill="#1069C7"/>
<rect x="104" y="136" width="16" height="69" fill="#1069C7"/>
<rect x="142" y="82" width="16" height="123" fill="#1069C7"/>
<rect x="178" y="82" width="16" height="123" fill="#1069C7"/>
<rect x="215" y="136" width="16" height="69" fill="#1069C7"/>
<rect x="253" y="154" width="16" height="51" fill="#1069C7"/>
<rect x="291" y="137" width="16" height="68" fill="#1069C7"/>
<rect x="326" y="59" width="16" height="146" fill="#1069C7"/>
<rect x="363" y="102" width="16" height="103" fill="#1069C7"/>
</g>
<defs>
<clipPath id="clip0">
<rect width="361.739" height="214" fill="white" transform="translate(29.6306 24)"/>
</clipPath>
</defs>
</svg>
