<svg width="1042" height="34" viewBox="0 0 1042 34" fill="none" xmlns="http://www.w3.org/2000/svg">
<path d="M0.522 24H5.832V23.118L4.554 23.028L4.284 22.74V19.5C4.824 19.536 5.238 19.554 5.508 19.554C8.532 19.554 10.224 18.042 10.224 15.558C10.224 12.966 8.64 11.922 5.31 11.922H0.45V12.804L1.638 12.894L1.908 13.146V22.74L1.584 23.028L0.522 23.118V24ZM4.284 18.474V12.966H5.22C6.858 12.966 7.74 13.92 7.74 15.63C7.74 17.538 6.804 18.51 4.932 18.51C4.734 18.51 4.518 18.492 4.284 18.474ZM11.0865 24H16.0545V23.19L14.7765 23.118L14.5065 22.848V17.682C15.0645 17.34 15.4965 17.178 15.7845 17.178C16.3065 17.178 16.6845 17.376 16.9545 17.826H17.8905L18.1245 15.342C17.7285 15.144 17.3325 15.036 16.9365 15.036C16.8105 15.036 16.6665 15.054 16.5405 15.072C15.8025 15.594 15.0825 16.206 14.4345 16.908L14.5065 15.072H13.6425L10.9965 15.918V16.638H12.2925V22.848L12.0405 23.118L11.0865 23.19V24ZM23.4686 15.018C20.6426 15.018 18.8066 16.854 18.8066 19.626C18.8066 22.344 20.6246 24.144 23.3246 24.144C26.1686 24.144 27.9866 22.326 27.9866 19.662C27.9866 16.8 26.2226 15.018 23.4686 15.018ZM23.3966 15.972C24.6746 15.972 25.5026 17.25 25.5026 19.608C25.5026 21.948 24.7106 23.19 23.3786 23.19C22.1186 23.19 21.3086 21.912 21.3086 19.554C21.3086 17.232 22.1186 15.972 23.3966 15.972ZM31.4813 15.018L28.9433 15.882V16.584H30.1133V21.084C30.1133 23.154 30.9053 24.162 32.5793 24.162C33.5333 24.162 34.4693 23.748 35.6033 23.01V24H39.0053V23.19L38.0693 23.118L37.8173 22.848V15.018H36.9893L34.4333 15.882V16.584H35.6033V22.326C35.0093 22.506 34.5053 22.614 34.0553 22.614C32.8133 22.614 32.3453 22.002 32.3453 20.598V15.018H31.4813ZM46.3243 12.264V15.18C45.6763 15.054 45.1183 15 44.6323 15C41.8963 15 39.9883 16.926 39.9883 19.824C39.9883 22.416 41.4643 24.162 43.4803 24.162C44.3983 24.162 45.2983 23.748 46.3243 22.992V24H49.6903V23.208L48.7723 23.136L48.5203 22.848V10.698H47.6923L45.0103 11.544V12.264H46.3243ZM46.3243 22.29C45.7483 22.506 45.2443 22.632 44.8123 22.632C43.3183 22.632 42.4003 21.462 42.4003 19.446C42.4003 17.304 43.4623 16.008 44.9923 16.008C45.3703 16.008 45.8023 16.098 46.3243 16.278V22.29ZM55.6972 27.942H60.5032L60.5212 27.114L59.3872 27.042L59.1172 26.79V23.91C59.7112 23.982 60.1972 24.018 60.5932 24.018C63.5092 24.018 65.3632 22.146 65.3632 19.266C65.3632 16.746 63.8692 15.018 61.9612 15.018C61.0792 15.018 60.1792 15.414 59.1172 16.152V15.072H58.3072L55.6792 15.918V16.638H56.9212V26.754L56.6692 27.024L55.6972 27.114V27.942ZM59.1172 22.92V16.908C59.6572 16.692 60.1252 16.566 60.5392 16.566C61.9972 16.566 62.9152 17.646 62.9152 19.572C62.9152 21.732 61.8532 23.046 60.2692 23.046C59.9092 23.046 59.5312 23.01 59.1172 22.92ZM72.092 22.974L72.326 24H75.53V23.208L74.576 23.118L74.342 22.866V18.204C74.342 15.9 73.496 15.018 70.976 15.018C68.6 15.018 67.052 16.08 67.052 17.106C67.052 17.592 67.34 17.772 67.88 17.772H69.536V16.08C69.86 16.008 70.13 15.972 70.4 15.972C71.588 15.972 72.11 16.548 72.11 17.844V18.384C68.348 19.23 66.638 19.752 66.638 21.822C66.638 23.19 67.61 24.162 68.996 24.162C69.968 24.162 70.94 23.748 72.092 22.974ZM72.092 22.236C71.39 22.596 70.814 22.776 70.346 22.776C69.518 22.776 69.014 22.254 69.014 21.426C69.014 20.238 69.968 19.77 72.092 19.302V22.236ZM76.231 24H81.199V23.19L79.921 23.118L79.651 22.848V17.682C80.209 17.34 80.641 17.178 80.929 17.178C81.451 17.178 81.829 17.376 82.099 17.826H83.035L83.269 15.342C82.873 15.144 82.477 15.036 82.081 15.036C81.955 15.036 81.811 15.054 81.685 15.072C80.947 15.594 80.227 16.206 79.579 16.908L79.651 15.072H78.787L76.141 15.918V16.638H77.437V22.848L77.185 23.118L76.231 23.19V24ZM84.7972 16.548V21.786C84.7972 22.704 84.8152 23.28 85.4452 23.694C85.8592 23.982 86.3452 24.09 86.9392 24.09C87.6772 24.09 88.6132 23.91 89.6932 23.514V22.65C89.3332 22.74 88.9552 22.776 88.5232 22.776C87.3352 22.776 87.0292 22.308 87.0292 21.03V16.548H89.6932V15.468H87.0292V13.236H85.8952L84.9592 15.108L83.6272 15.864V16.548H84.7972ZM90.2943 24H94.7403V23.19L93.9483 23.118L93.6963 22.848V16.908C94.3803 16.71 94.9563 16.602 95.4063 16.602C96.5403 16.602 97.0263 17.214 97.0263 18.546V22.848L96.7743 23.118L96.0003 23.19V24H100.41V23.19L99.4563 23.118L99.2223 22.848V18.024C99.2223 16.026 98.4303 15.036 96.7743 15.036C95.9823 15.036 94.9743 15.432 93.6963 16.134V15.072H92.8323L90.2403 15.918V16.638H91.4643V22.848L91.2123 23.118L90.2943 23.19V24ZM109.473 21.768C108.429 22.434 107.457 22.758 106.503 22.758C104.721 22.758 103.605 21.534 103.605 19.464C103.605 19.446 103.605 19.428 103.605 19.41H109.491C109.491 19.302 109.491 19.176 109.491 19.068C109.491 16.476 108.105 15 105.747 15C103.155 15 101.301 16.89 101.301 19.644C101.301 22.362 103.065 24.162 105.747 24.162C107.007 24.162 108.267 23.802 109.473 23.1V21.768ZM107.133 18.456H103.695C103.749 16.89 104.487 15.99 105.567 15.99C106.557 15.99 107.133 16.764 107.133 18.258C107.133 18.33 107.133 18.384 107.133 18.456ZM110.596 24H115.564V23.19L114.286 23.118L114.016 22.848V17.682C114.574 17.34 115.006 17.178 115.294 17.178C115.816 17.178 116.194 17.376 116.464 17.826H117.4L117.634 15.342C117.238 15.144 116.842 15.036 116.446 15.036C116.32 15.036 116.176 15.054 116.05 15.072C115.312 15.594 114.592 16.206 113.944 16.908L114.016 15.072H113.152L110.506 15.918V16.638H111.802V22.848L111.55 23.118L110.596 23.19V24ZM124.76 15.45C123.842 15.144 122.942 15 122.042 15C119.828 15 118.514 16.134 118.514 17.682C118.514 18.762 119.198 19.392 120.53 20.058C121.934 20.76 122.906 20.94 122.906 21.912C122.906 22.704 122.348 23.208 121.376 23.208C120.836 23.208 120.332 23.082 119.864 22.83L119.684 22.632L119.486 21.084H118.388V23.748C119.504 24.054 120.494 24.198 121.358 24.198C123.68 24.198 125.03 23.046 125.03 21.228C125.03 19.932 124.004 19.446 122.402 18.672C121.34 18.15 120.728 17.844 120.728 17.088C120.728 16.422 121.214 16.008 122.096 16.008C122.51 16.008 122.906 16.116 123.284 16.296L123.5 16.494L123.68 17.844H124.76V15.45ZM128.815 15.216C128.041 15.216 127.411 15.846 127.411 16.638C127.411 17.43 128.041 18.06 128.815 18.06C129.589 18.06 130.219 17.43 130.219 16.638C130.219 15.846 129.589 15.216 128.815 15.216ZM128.815 21.282C128.041 21.282 127.411 21.912 127.411 22.722C127.411 23.514 128.059 24.144 128.815 24.144C129.589 24.144 130.219 23.514 130.219 22.722C130.219 21.912 129.589 21.282 128.815 21.282Z" fill="#686058"/>
<path d="M938.82 20.5643C939.021 20.9663 939.323 21.3013 939.658 21.5693C940.026 21.8373 940.428 22.0048 940.897 22.1388C941.366 22.2728 941.869 22.3398 942.371 22.3398C942.706 22.3398 943.075 22.3063 943.477 22.2393C943.879 22.1723 944.247 22.0718 944.582 21.9043C944.917 21.7368 945.219 21.5023 945.453 21.2343C945.688 20.9328 945.788 20.5643 945.788 20.1288C945.788 19.6598 945.621 19.2578 945.319 18.9563C945.018 18.6548 944.616 18.4203 944.113 18.2193C943.611 18.0183 943.075 17.8508 942.438 17.7168C941.802 17.5828 941.165 17.4153 940.529 17.2143C939.859 17.0468 939.222 16.8458 938.619 16.6113C937.983 16.3768 937.447 16.0753 936.944 15.6733C936.442 15.2713 936.04 14.8358 935.738 14.2663C935.437 13.6968 935.269 13.0268 935.269 12.1893C935.269 11.2848 935.47 10.5143 935.839 9.84429C936.241 9.17429 936.743 8.63829 937.346 8.16929C937.983 7.73379 938.686 7.39879 939.457 7.19779C940.261 6.99679 941.031 6.86279 941.835 6.86279C942.773 6.86279 943.644 6.96329 944.482 7.16429C945.319 7.36529 946.09 7.70029 946.726 8.16929C947.396 8.63829 947.899 9.20779 948.301 9.94479C948.703 10.6483 948.87 11.5193 948.87 12.5578H945.118C945.085 12.0218 944.984 11.5863 944.783 11.2513C944.582 10.9163 944.348 10.6483 944.046 10.4473C943.745 10.2463 943.376 10.1123 942.974 10.0118C942.572 9.94479 942.137 9.87779 941.668 9.87779C941.366 9.87779 941.031 9.91129 940.73 9.97829C940.428 10.0453 940.127 10.1458 939.892 10.3133C939.624 10.4808 939.423 10.6818 939.256 10.9163C939.088 11.1508 939.021 11.4858 939.021 11.8543C939.021 12.1893 939.088 12.4908 939.222 12.6918C939.356 12.8928 939.624 13.0938 939.993 13.2948C940.395 13.4623 940.931 13.6633 941.601 13.8308C942.271 13.9983 943.175 14.2328 944.281 14.5343C944.616 14.6013 945.051 14.7353 945.654 14.9028C946.224 15.0703 946.827 15.3383 947.396 15.7403C947.966 16.1088 948.468 16.6113 948.904 17.2478C949.339 17.8843 949.54 18.6883 949.54 19.6933C949.54 20.4973 949.373 21.2343 949.071 21.9378C948.77 22.6413 948.301 23.2108 947.664 23.7133C947.061 24.2158 946.291 24.6178 945.353 24.8858C944.448 25.1538 943.376 25.3213 942.17 25.3213C941.199 25.3213 940.261 25.1873 939.356 24.9528C938.452 24.7183 937.648 24.3498 936.944 23.8138C936.241 23.3113 935.705 22.6413 935.269 21.8708C934.867 21.0668 934.666 20.1288 934.666 19.0568H938.418C938.519 19.6598 938.619 20.1623 938.82 20.5643Z" fill="#686058"/>
<path d="M955.135 7.29688V24.9179H951.617V7.29688H955.135Z" fill="#686058"/>
<path d="M957.748 16.0743C957.781 15.2368 958.016 14.5668 958.351 14.0308C958.719 13.4948 959.188 13.0593 959.724 12.7243C960.294 12.3893 960.897 12.1548 961.6 12.0208C962.304 11.8868 963.007 11.8198 963.711 11.8198C964.347 11.8198 965.017 11.8533 965.654 11.9538C966.324 12.0543 966.927 12.2218 967.463 12.4898C967.999 12.7578 968.434 13.1263 968.803 13.5953C969.171 14.0643 969.305 14.7008 969.305 15.4713V22.1043C969.305 22.6738 969.339 23.2433 969.406 23.7458C969.473 24.2818 969.573 24.6838 969.741 24.9183H966.19C966.123 24.7173 966.056 24.5163 966.022 24.3153C965.989 24.1143 965.955 23.9133 965.922 23.6788C965.352 24.2483 964.716 24.6503 963.945 24.8848C963.175 25.1193 962.404 25.2198 961.634 25.2198C961.031 25.2198 960.461 25.1528 959.925 24.9853C959.389 24.8513 958.954 24.6168 958.552 24.2818C958.15 23.9803 957.848 23.5783 957.614 23.1093C957.379 22.6403 957.279 22.0708 957.279 21.4008C957.279 20.6638 957.413 20.0943 957.647 19.6253C957.915 19.1563 958.217 18.7878 958.619 18.4863C959.021 18.2183 959.49 17.9838 959.992 17.8498C960.495 17.7158 961.031 17.6153 961.567 17.5148C962.103 17.4478 962.605 17.3808 963.108 17.3138C963.61 17.2803 964.079 17.1798 964.481 17.0793C964.883 16.9788 965.185 16.8448 965.419 16.6438C965.654 16.4428 965.754 16.1748 965.754 15.8063C965.754 15.4378 965.687 15.1363 965.553 14.9018C965.419 14.6673 965.252 14.4998 965.051 14.3993C964.85 14.2653 964.615 14.1983 964.347 14.1648C964.079 14.1313 963.778 14.0978 963.476 14.0978C962.773 14.0978 962.237 14.2318 961.835 14.5333C961.433 14.8348 961.198 15.3373 961.131 16.0073H957.748V16.0743ZM965.855 18.6873C965.721 18.8213 965.52 18.9218 965.285 18.9888C965.051 19.0558 964.816 19.1228 964.582 19.1898C964.314 19.2233 964.046 19.2903 963.778 19.3238C963.51 19.3573 963.208 19.3908 962.94 19.4578C962.672 19.4913 962.404 19.5583 962.17 19.6588C961.902 19.7258 961.701 19.8598 961.5 19.9938C961.299 20.1278 961.165 20.2953 961.031 20.5298C960.93 20.7308 960.863 21.0323 960.863 21.3338C960.863 21.6353 960.93 21.9033 961.031 22.1378C961.131 22.3388 961.299 22.5063 961.5 22.6403C961.701 22.7743 961.935 22.8413 962.203 22.9083C962.471 22.9418 962.739 22.9753 963.007 22.9753C963.711 22.9753 964.247 22.8748 964.615 22.6403C964.984 22.4058 965.285 22.1378 965.453 21.8028C965.62 21.4678 965.754 21.1663 965.788 20.8313C965.821 20.4963 965.855 20.2283 965.855 20.0273V18.6873Z" fill="#686058"/>
<path d="M975 21.7358C975.168 22.0038 975.369 22.2383 975.603 22.4058C975.838 22.5733 976.139 22.7073 976.441 22.7743C976.776 22.8413 977.111 22.9083 977.446 22.9083C977.68 22.9083 977.948 22.8748 978.216 22.8078C978.484 22.7408 978.719 22.6738 978.953 22.5398C979.188 22.4058 979.355 22.2383 979.523 22.0373C979.657 21.8363 979.757 21.5683 979.757 21.2668C979.757 20.7308 979.422 20.3288 978.719 20.0943C978.015 19.8263 977.044 19.5583 975.804 19.2903C975.302 19.1898 974.799 19.0558 974.297 18.8883C973.794 18.7208 973.392 18.5198 972.99 18.2853C972.622 18.0173 972.32 17.7158 972.086 17.3138C971.851 16.9118 971.751 16.4428 971.751 15.9068C971.751 15.0693 971.918 14.3993 972.22 13.8968C972.555 13.3608 972.957 12.9588 973.493 12.6573C974.029 12.3558 974.598 12.1548 975.268 12.0208C975.938 11.8868 976.608 11.8198 977.278 11.8198C977.982 11.8198 978.652 11.8868 979.288 12.0208C979.925 12.1548 980.528 12.3893 981.03 12.6908C981.533 12.9923 981.968 13.4278 982.303 13.9303C982.638 14.4328 982.839 15.1028 982.906 15.9068H979.59C979.556 15.2368 979.288 14.7678 978.819 14.5333C978.35 14.2988 977.814 14.1648 977.178 14.1648C976.977 14.1648 976.776 14.1648 976.541 14.1983C976.307 14.2318 976.106 14.2653 975.905 14.3658C975.704 14.4328 975.57 14.5668 975.436 14.7343C975.302 14.9018 975.235 15.1028 975.235 15.3708C975.235 15.6723 975.335 15.9403 975.57 16.1413C975.804 16.3423 976.106 16.5098 976.474 16.6103C976.843 16.7443 977.278 16.8448 977.747 16.9453C978.216 17.0458 978.719 17.1463 979.188 17.2803C979.69 17.3808 980.193 17.5483 980.695 17.7158C981.164 17.8833 981.6 18.0843 982.002 18.3858C982.37 18.6538 982.672 18.9888 982.906 19.3908C983.141 19.7928 983.241 20.2953 983.241 20.8983C983.241 21.7358 983.074 22.4393 982.739 23.0088C982.404 23.5783 981.968 24.0473 981.432 24.3823C980.896 24.7173 980.26 24.9853 979.556 25.1193C978.853 25.2533 978.149 25.3203 977.412 25.3203C976.675 25.3203 975.938 25.2533 975.235 25.0858C974.531 24.9518 973.895 24.6838 973.359 24.3488C972.823 24.0138 972.354 23.5448 971.985 22.9753C971.617 22.4058 971.449 21.7023 971.416 20.8313H974.732C974.766 21.1663 974.866 21.4678 975 21.7358Z" fill="#686058"/>
<path d="M988.836 7.29688V13.9299H988.903C989.338 13.1929 989.908 12.6569 990.611 12.3219C991.315 11.9869 991.985 11.8194 992.621 11.8194C993.559 11.8194 994.33 11.9534 994.933 12.1879C995.536 12.4559 996.005 12.7909 996.34 13.2599C996.675 13.7289 996.943 14.2649 997.077 14.9014C997.211 15.5379 997.278 16.2749 997.278 17.0454V24.8844H993.76V17.7154C993.76 16.6769 993.593 15.8729 993.258 15.3704C992.923 14.8679 992.353 14.5999 991.516 14.5999C990.544 14.5999 989.874 14.8679 989.439 15.4374C989.003 16.0069 988.802 16.9449 988.802 18.2514V24.9514H985.285V7.29688H988.836Z" fill="#686058"/>
<path d="M1003.98 21.1328V24.9183H1000.12V21.1328H1003.98Z" fill="#686058"/>
<path d="M1013.83 12.1549V14.4999H1011.25V20.8314C1011.25 21.4344 1011.35 21.8029 1011.55 22.0039C1011.75 22.2049 1012.15 22.3054 1012.72 22.3054C1012.92 22.3054 1013.12 22.3054 1013.29 22.2719C1013.46 22.2719 1013.66 22.2384 1013.79 22.2049V24.9184C1013.49 24.9519 1013.16 24.9854 1012.82 25.0189C1012.45 25.0189 1012.12 25.0524 1011.75 25.0524C1011.21 25.0524 1010.68 25.0189 1010.21 24.9519C1009.74 24.8849 1009.3 24.7174 1008.94 24.5164C1008.57 24.3154 1008.27 24.0139 1008.06 23.6119C1007.86 23.2099 1007.73 22.7074 1007.73 22.0709V14.4999H1005.62V12.1549H1007.73V8.33594H1011.25V12.1549H1013.83Z" fill="#686058"/>
<path d="M1019.25 21.8698C1019.79 22.3723 1020.53 22.6403 1021.53 22.6403C1022.23 22.6403 1022.84 22.4728 1023.37 22.1043C1023.88 21.7358 1024.21 21.3673 1024.31 20.9653H1027.39C1026.89 22.5063 1026.15 23.5783 1025.12 24.2483C1024.11 24.9183 1022.87 25.2198 1021.4 25.2198C1020.39 25.2198 1019.49 25.0523 1018.68 24.7508C1017.88 24.4158 1017.21 23.9803 1016.64 23.3773C1016.07 22.7743 1015.64 22.0708 1015.33 21.2668C1015.03 20.4293 1014.86 19.5248 1014.86 18.5533C1014.86 17.6153 1015.03 16.7108 1015.33 15.8733C1015.64 15.0358 1016.1 14.3323 1016.67 13.7293C1017.24 13.1263 1017.95 12.6573 1018.75 12.3223C1019.55 11.9873 1020.43 11.8198 1021.4 11.8198C1022.47 11.8198 1023.44 12.0208 1024.24 12.4563C1025.05 12.8918 1025.72 13.4278 1026.22 14.1313C1026.72 14.8348 1027.13 15.6388 1027.36 16.5433C1027.59 17.4478 1027.66 18.3858 1027.59 19.3908H1018.38C1018.45 20.5298 1018.75 21.3338 1019.25 21.8698ZM1023.24 15.1363C1022.8 14.6673 1022.17 14.4328 1021.33 14.4328C1020.76 14.4328 1020.29 14.5333 1019.92 14.7008C1019.55 14.9018 1019.25 15.1363 1019.02 15.4043C1018.78 15.6723 1018.65 15.9738 1018.55 16.3088C1018.45 16.6103 1018.42 16.9118 1018.38 17.1463H1024.08C1023.94 16.2753 1023.64 15.6053 1023.24 15.1363Z" fill="#686058"/>
<path d="M1033.02 12.1548V13.9303H1033.09C1033.52 13.1933 1034.09 12.6573 1034.83 12.3223C1035.53 11.9873 1036.27 11.8198 1037.01 11.8198C1037.95 11.8198 1038.72 11.9538 1039.32 12.1883C1039.92 12.4563 1040.39 12.7913 1040.73 13.2603C1041.06 13.7293 1041.33 14.2653 1041.46 14.9018C1041.6 15.5383 1041.66 16.2753 1041.66 17.0458V24.8848H1038.15V17.7158C1038.15 16.6773 1037.98 15.8733 1037.64 15.3708C1037.31 14.8683 1036.74 14.6003 1035.9 14.6003C1034.93 14.6003 1034.26 14.8683 1033.83 15.4378C1033.39 16.0073 1033.19 16.9453 1033.19 18.2518V24.9518H1029.67V12.1548H1033.02Z" fill="#686058"/>
<path d="M914.834 17.1132L916.542 15.3713L922.505 9.44175L918.72 5.65625L908.268 16.1082L912.053 19.8937L914.834 17.1132Z" fill="#686058"/>
<path d="M924.216 11.1442L918.27 17.0898L923.221 22.0406L929.167 16.095L924.216 11.1442Z" fill="#686058"/>
<path d="M916.546 18.8345L913.774 21.606L918.725 26.5567L921.497 23.7852L916.546 18.8345Z" fill="#686058"/>
<g clip-path="url(#clip0)">
<path d="M731.58 8.3042H727.923V23.406H731.58V8.3042Z" fill="#686058"/>
<path d="M812.332 23.406L819.623 8.3042H815.869L810.551 19.315L805.258 8.3042H801.504L808.794 23.406H812.332Z" fill="#686058"/>
<path d="M716.734 23.406L724.506 8.3042H720.559L714.761 19.315L704.029 8.3042H699L713.317 23.406H716.734Z" fill="#686058"/>
<path d="M826.24 8.3042L818.468 23.406H822.438L828.213 12.3952L838.968 23.406H843.973L829.656 8.3042H826.24Z" fill="#686058"/>
<path d="M741.229 13.5641V23.406H737.596V8.3042H741.229L750.445 18.1227V8.3042H754.078V23.406H750.445L741.229 13.5641Z" fill="#686058"/>
<path d="M763.366 13.5641V23.406H759.708V8.3042H763.366L772.558 18.1227V8.3042H776.215V23.406H772.558L763.366 13.5641Z" fill="#686058"/>
<path d="M790.291 20.7173C793.515 20.7173 795.609 19.0107 795.609 15.925C795.609 12.956 793.612 11.2962 790.291 11.2962C786.97 11.2962 784.974 12.956 784.974 15.925C784.974 19.0341 787.042 20.7173 790.291 20.7173ZM781.244 15.8782C781.244 10.8287 784.636 8 790.291 8C795.946 8 799.339 10.8287 799.339 15.8782C799.339 21.1381 795.801 24.0369 790.291 24.0369C784.781 24.0369 781.244 21.1381 781.244 15.8782Z" fill="#686058"/>
</g>
<g clip-path="url(#clip1)">
<path d="M383.268 25.7325H388.085V7.77979H383.268V25.7325Z" fill="#686058"/>
<path d="M396.313 25.7323H391.496V7.77952H396.179V10.0087C397.256 8.13858 399.41 7.30078 401.325 7.30078C405.754 7.30078 407.788 10.4874 407.788 14.422V25.7323H402.956V15.2598C402.956 13.2551 401.983 11.6842 399.665 11.6842C397.555 11.6842 396.313 13.3299 396.313 15.4094V25.7323Z" fill="#686058"/>
<path d="M380.321 12.0881V7.77945H376.73V4.84717L371.973 6.89677L371.943 20.4361C371.943 23.907 374.112 25.9865 377.598 25.9865C379.019 25.9865 379.887 25.7322 380.321 25.5527V21.5432C380.066 21.6031 379.423 21.6779 378.839 21.6779C377.463 21.6779 376.73 21.1692 376.73 19.5984V12.0881H380.321Z" fill="#686058"/>
<path d="M383.268 2.06457V4.74252H388.13V0L383.268 2.06457Z" fill="#686058"/>
<path d="M419.113 20.7652C416.6 20.7652 414.82 19.0148 414.82 16.2022C414.82 13.4344 416.72 11.6841 419.113 11.6841C421.432 11.6841 423.317 13.4344 423.317 16.2022C423.317 18.9848 421.582 20.7652 419.113 20.7652ZM423.362 7.77933V9.90374C422.734 8.69193 421.103 7.4502 418.276 7.4502C413.369 7.4502 409.958 11.4596 409.958 16.2022C409.958 21.2439 413.518 24.9242 418.276 24.9242C420.849 24.9242 422.524 23.8022 423.243 22.6352V23.9518C423.243 27.4077 421.537 28.9486 418.485 28.9486C416.69 28.9486 415.343 28.0659 414.685 26.7195L410.616 28.4549C411.872 30.9833 414.745 33.2124 418.635 33.2124C425.352 33.2124 428 28.7242 428 23.8022V7.77933H423.362Z" fill="#686058"/>
<path d="M362.772 12.118L359.555 11.4299C358.089 11.1606 357.251 10.3078 357.251 9.11096C357.251 7.67474 358.657 6.55269 360.438 6.55269C362.607 6.55269 364.432 7.77946 364.836 9.88891L369.205 8.04875C367.424 3.29127 363.026 2.4834 360.393 2.4834C355.815 2.4834 352.239 5.61017 352.239 9.61962C352.239 11.5495 352.987 13.1503 354.394 14.3173L354.409 14.3023L354.424 14.3322C355.411 15.1401 356.728 15.7535 358.343 16.1125L361.335 16.8007C363.535 17.2645 363.998 18.4165 363.998 19.3141C363.998 20.5858 362.981 21.8724 360.707 21.8724C357.939 21.8724 356.653 20.1968 356.354 18.596L352 20.4511C352.868 22.8598 355.351 25.9865 360.767 25.9865C366.587 25.9865 369.235 22.2614 369.235 18.8054C369.235 15.4094 366.871 12.9708 362.772 12.118Z" fill="#686058"/>
</g>
<g clip-path="url(#clip2)">
<path d="M548.03 10.2116C549.333 10.2116 550.441 9.10398 550.441 7.7358C550.441 6.43277 549.333 5.3252 548.03 5.3252C546.727 5.3252 545.62 6.43277 545.62 7.7358C545.685 9.10398 546.727 10.2116 548.03 10.2116Z" fill="#686058"/>
<path d="M543.274 18.9421V26.2391H539.626V18.9421C539.626 17.8997 539.235 16.9224 538.518 16.2058C537.867 15.4891 536.889 15.0982 535.847 15.0982C534.805 15.0982 533.892 15.5543 533.176 16.2058C532.524 16.9224 532.068 17.8346 532.068 18.9421V26.2391H528.485V18.9421C528.485 17.8997 528.094 16.9224 527.377 16.2058C526.661 15.4891 525.749 15.0982 524.706 15.0982C523.664 15.0982 522.752 15.5543 522.035 16.2058C521.383 16.9224 520.927 17.8346 520.927 18.9421V26.2391H517.279V11.7103H520.927V12.4921C522.035 11.7755 523.273 11.4497 524.706 11.4497C526.726 11.4497 528.485 12.1664 529.918 13.6649C530.049 13.7952 530.179 13.9255 530.244 14.0558C530.374 13.9255 530.505 13.7952 530.57 13.6649C532.003 12.1664 533.762 11.4497 535.782 11.4497C537.802 11.4497 539.561 12.1664 540.994 13.6649C542.427 15.1633 543.274 16.9224 543.274 18.9421Z" fill="#686058"/>
<path d="M546.076 26.2387H550.05V11.71H546.076V26.2387Z" fill="#686058"/>
<mask id="mask0" mask-type="alpha" maskUnits="userSpaceOnUse" x="492" y="5" width="135" height="22">
<path fill-rule="evenodd" clip-rule="evenodd" d="M492 5.3252H626.798V26.4343H492V5.3252Z" fill="white"/>
</mask>
<g mask="url(#mask0)">
<path d="M510.112 26.2394H514.021V5.91211H510.112V26.2394Z" fill="#686058"/>
</g>
<mask id="mask1" mask-type="alpha" maskUnits="userSpaceOnUse" x="492" y="5" width="135" height="22">
<path fill-rule="evenodd" clip-rule="evenodd" d="M492 5.3252H626.798V26.4343H492V5.3252Z" fill="white"/>
</mask>
<g mask="url(#mask1)">
<path d="M502.099 21.6785C501.447 22.3952 500.47 22.7861 499.427 22.7861C498.385 22.7861 497.473 22.33 496.756 21.6785C496.105 20.9618 495.649 20.0497 495.649 18.9421C495.649 17.8997 496.039 16.9224 496.756 16.2058C497.473 15.4891 498.385 15.0982 499.427 15.0982C500.47 15.0982 501.447 15.5543 502.099 16.2058C502.815 16.9224 503.206 17.8346 503.206 18.9421C503.206 20.0497 502.75 20.9618 502.099 21.6785ZM503.206 11.7103V12.4921C502.099 11.7755 500.861 11.4497 499.427 11.4497C497.408 11.4497 495.649 12.1664 494.215 13.6649C492.782 15.1633 492.065 16.9224 492.065 19.0073C492.065 21.0921 492.782 22.8512 494.215 24.3497C495.649 25.8482 497.408 26.5649 499.427 26.5649C500.861 26.5649 502.099 26.2391 503.206 25.5224V26.3043H506.855V11.7103H503.206Z" fill="#686058"/>
</g>
<mask id="mask2" mask-type="alpha" maskUnits="userSpaceOnUse" x="492" y="5" width="135" height="22">
<path fill-rule="evenodd" clip-rule="evenodd" d="M492 5.3252H626.798V26.4343H492V5.3252Z" fill="white"/>
</mask>
<g mask="url(#mask2)">
<path d="M563.797 10.2116C565.1 10.2116 566.208 9.10398 566.208 7.7358C566.208 6.43277 565.1 5.3252 563.797 5.3252C562.494 5.3252 561.386 6.43277 561.386 7.7358C561.386 9.10398 562.494 10.2116 563.797 10.2116Z" fill="#686058"/>
</g>
<mask id="mask3" mask-type="alpha" maskUnits="userSpaceOnUse" x="492" y="5" width="135" height="22">
<path fill-rule="evenodd" clip-rule="evenodd" d="M492 5.3252H626.798V26.4343H492V5.3252Z" fill="white"/>
</mask>
<g mask="url(#mask3)">
<path d="M622.108 17.1828L620.283 16.7267C618.98 16.4661 618.785 16.0752 618.785 15.7494C618.785 14.8373 620.153 14.707 620.544 14.707C622.173 14.707 623.02 15.554 623.346 16.0752L623.606 16.4661L626.473 14.5116L626.212 14.1206C625.691 13.2737 624.127 11.3843 620.479 11.3843C617.026 11.3843 614.876 13.1434 614.876 15.8797C614.876 18.2252 616.309 19.6585 619.111 20.31L620.935 20.7009C622.238 21.0267 622.824 21.2873 622.824 22.004C622.824 23.0464 621.456 23.1116 620.87 23.1116C618.85 23.1116 617.742 21.6131 617.482 21.2873L617.221 20.8964L614.55 23.1116L614.745 23.4373C615.202 24.154 616.961 26.4343 620.87 26.4343C622.564 26.4343 624.062 25.9782 625.105 25.0661C626.147 24.2191 626.733 23.0464 626.733 21.7434C626.799 18.6161 624.127 17.6388 622.108 17.1828Z" fill="#686058"/>
</g>
<path d="M628.948 7.01904V26.2387H632.858V15.6842H635.203V11.71H632.858L632.792 7.01904H628.948Z" fill="#686058"/>
<path d="M561.843 26.2387H565.752V11.71H561.843V26.2387Z" fill="#686058"/>
<mask id="mask4" mask-type="alpha" maskUnits="userSpaceOnUse" x="561" y="5" width="66" height="22">
<path fill-rule="evenodd" clip-rule="evenodd" d="M561.415 5.3252H626.827V26.4343H561.415V5.3252Z" fill="white"/>
</mask>
<g mask="url(#mask4)">
<path d="M594.707 11.71L591.124 22.2645L587.54 11.71H583.892L588.843 26.2387H593.469L598.355 11.71H594.707Z" fill="#686058"/>
</g>
<mask id="mask5" mask-type="alpha" maskUnits="userSpaceOnUse" x="561" y="5" width="66" height="22">
<path fill-rule="evenodd" clip-rule="evenodd" d="M561.415 5.3252H626.827V26.4343H561.415V5.3252Z" fill="white"/>
</mask>
<g mask="url(#mask5)">
<path d="M605.978 15.0979C607.021 15.0979 607.998 15.554 608.65 16.2055C608.975 16.5312 609.301 16.9873 609.497 17.4434H602.46C602.656 16.9873 602.916 16.5312 603.307 16.2055C603.959 15.554 604.936 15.0979 605.978 15.0979ZM613.34 18.9419C613.34 16.857 612.624 15.0979 611.19 13.5994C609.757 12.1009 607.998 11.3843 605.978 11.3843C603.959 11.3843 602.2 12.1009 600.766 13.5994C599.333 15.0979 598.616 16.857 598.616 18.9419C598.616 21.0267 599.333 22.7858 600.766 24.2843C602.2 25.7828 603.959 26.4994 605.978 26.4994C607.998 26.4994 609.757 25.7828 611.19 24.2843L608.65 21.6782C607.998 22.3949 607.021 22.7858 605.978 22.7858C604.936 22.7858 603.959 22.3297 603.307 21.6782C602.981 21.3525 602.656 20.8964 602.46 20.4403H613.34V18.9419Z" fill="#686058"/>
</g>
<mask id="mask6" mask-type="alpha" maskUnits="userSpaceOnUse" x="561" y="5" width="66" height="22">
<path fill-rule="evenodd" clip-rule="evenodd" d="M561.415 5.3252H626.827V26.4343H561.415V5.3252Z" fill="white"/>
</mask>
<g mask="url(#mask6)">
<path d="M563.825 10.2116C565.128 10.2116 566.236 9.10398 566.236 7.7358C566.236 6.43277 565.128 5.3252 563.825 5.3252C562.522 5.3252 561.415 6.43277 561.415 7.80095C561.415 9.10398 562.522 10.2116 563.825 10.2116Z" fill="#686058"/>
</g>
<mask id="mask7" mask-type="alpha" maskUnits="userSpaceOnUse" x="561" y="5" width="66" height="22">
<path fill-rule="evenodd" clip-rule="evenodd" d="M561.415 5.3252H626.827V26.4343H561.415V5.3252Z" fill="white"/>
</mask>
<g mask="url(#mask7)">
<path d="M622.071 17.1828L620.311 16.7267C619.008 16.4661 618.813 16.0752 618.813 15.7494C618.813 14.8373 620.181 14.707 620.572 14.707C622.201 14.707 623.048 15.554 623.374 16.0752L623.634 16.4661L626.501 14.5116L626.24 14.1206C625.719 13.2737 624.155 11.3843 620.507 11.3843C617.054 11.3843 614.904 13.1434 614.904 15.8797C614.904 18.2252 616.337 19.6585 619.139 20.31L620.963 20.7009C622.266 21.0267 622.852 21.2873 622.852 22.004C622.852 23.0464 621.484 23.1116 620.898 23.1116C618.878 23.1116 617.771 21.6131 617.51 21.2873L617.249 20.8964L614.578 23.1116L614.774 23.4373C615.23 24.154 616.989 26.4343 620.898 26.4343C622.592 26.4343 624.09 25.9782 625.133 25.0661C626.175 24.2191 626.761 23.0464 626.761 21.7434C626.827 18.6161 624.09 17.6388 622.071 17.1828Z" fill="#686058"/>
</g>
<path d="M628.948 7.01904V26.2387H632.858V15.6842H635.203V11.71H632.858L632.792 7.01904H628.948Z" fill="#686058"/>
<path d="M583.538 18.9421V26.2391H579.889V18.9421C579.889 17.8997 579.499 16.9224 578.782 16.2058C578.065 15.4891 577.153 15.0982 576.111 15.0982C575.068 15.0982 574.156 15.5543 573.439 16.2058C572.788 16.9224 572.332 17.8346 572.332 18.9421V26.2391H568.683V11.7103H572.332V12.4921C573.439 11.7755 574.677 11.4497 576.111 11.4497C578.13 11.4497 579.889 12.1664 581.323 13.6649C582.821 15.0982 583.538 16.9224 583.538 18.9421Z" fill="#686058"/>
<mask id="mask8" mask-type="alpha" maskUnits="userSpaceOnUse" x="583" y="11" width="31" height="16">
<path fill-rule="evenodd" clip-rule="evenodd" d="M583.905 11.4219H613.353V26.4719H583.905V11.4219Z" fill="white"/>
</mask>
<g mask="url(#mask8)">
<path d="M594.72 11.6831L591.137 22.2376L587.553 11.6831H583.905L588.791 26.2119H593.417L598.368 11.6831H594.72Z" fill="#686058"/>
</g>
<mask id="mask9" mask-type="alpha" maskUnits="userSpaceOnUse" x="583" y="11" width="31" height="16">
<path fill-rule="evenodd" clip-rule="evenodd" d="M583.905 11.4219H613.353V26.4719H583.905V11.4219Z" fill="white"/>
</mask>
<g mask="url(#mask9)">
<path d="M605.991 15.1355C607.034 15.1355 608.011 15.5916 608.662 16.2431C608.988 16.5688 609.314 17.0249 609.509 17.481H602.473C602.669 17.0249 602.929 16.634 603.32 16.2431C603.972 15.5264 604.949 15.1355 605.991 15.1355ZM613.353 18.9795C613.353 16.8946 612.637 15.1355 611.203 13.637C609.77 12.1385 608.011 11.4219 605.991 11.4219C603.972 11.4219 602.212 12.1385 600.779 13.637C599.346 15.1355 598.629 16.8946 598.629 18.9795C598.629 21.0643 599.346 22.8234 600.779 24.3219C602.212 25.8204 603.972 26.537 605.991 26.537C608.011 26.537 609.77 25.8204 611.203 24.3219L608.662 21.7158C608.011 22.4325 607.034 22.8234 605.991 22.8234C604.949 22.8234 603.972 22.3673 603.32 21.7158C602.994 21.3901 602.669 20.934 602.473 20.4779H613.353V18.9795Z" fill="#686058"/>
</g>
</g>
<g clip-path="url(#clip3)">
<path d="M283.275 18.2689C285.414 17.6721 286.906 16.18 286.906 13.743V13.6932C286.906 12.4001 286.458 11.3059 285.662 10.4604C284.668 9.51541 283.176 8.96831 281.286 8.96831H274.472V23.8891H277.158V18.7165H280.49L284.22 23.8891H287.353C287.403 23.8891 283.275 18.2689 283.275 18.2689ZM277.158 16.379V11.3556H281.037C283.026 11.3556 284.17 12.2011 284.17 13.8424V13.8922C284.17 15.3842 282.927 16.379 281.037 16.379H277.158ZM257.562 11.3059V23.8891H269.001V21.5515H259.999V17.5229H266.912V15.1853H259.999V11.3059H269.001V8.96831H257.562V11.3059ZM244.779 8.96831H242.143V23.8891H252.588V21.5018H244.779V8.96831ZM224.736 11.4054H229.61V23.8891H232.346V11.4054H237.22V8.96831H224.786V11.4054H224.736ZM217.176 8.96831H219.762V23.8891H217.574L209.417 13.2953V23.8891H206.831V8.96831H209.268L217.226 19.3134L217.176 8.96831ZM193.502 23.9886L188.379 12.0022L183.256 23.9886H180.521L187.136 8.86884H189.622L196.237 23.9886H193.502ZM175 29.8574H201.857V3H175V29.8574Z" fill="#686058"/>
</g>
<defs>
<clipPath id="clip0">
<rect width="145" height="16.0369" fill="white" transform="translate(699 8)"/>
</clipPath>
<clipPath id="clip1">
<rect width="76" height="33.2126" fill="white" transform="translate(352)"/>
</clipPath>
<clipPath id="clip2">
<rect width="143.333" height="21.5" fill="white" transform="translate(492 5)"/>
</clipPath>
<clipPath id="clip3">
<rect width="113" height="26.8574" fill="white" transform="translate(175 3)"/>
</clipPath>
</defs>
</svg>
